<svg xmlns="http://www.w3.org/2000/svg" width="74.524" height="116.857" viewBox="0 0 74.524 116.857">
  <g id="Group_1381" data-name="Group 1381" transform="translate(-122.093 -122.006)">
    <path id="Path_83" data-name="Path 83" d="M228.35,87.274a18.8,18.8,0,0,1-.714,3.794,47.707,47.707,0,0,1-3.279,8.381,44.413,44.413,0,0,1-4.024,6.491,11.762,11.762,0,0,1,4.141,4.884,21.725,21.725,0,0,1,1.939,6.827,29.6,29.6,0,0,1-.374,8.851,39.328,39.328,0,0,1-2.9,8.786,47.64,47.64,0,0,1-4.71,7.981,52.512,52.512,0,0,1-6.119,6.988,60.794,60.794,0,0,1-7.041,5.808,54.284,54.284,0,0,1-7.553,4.463,46.821,46.821,0,0,1-7.628,2.946,32.72,32.72,0,0,1-8.6,1.315,17.89,17.89,0,0,1-7.321-1.343,13.077,13.077,0,0,1-5.362-4.244,15.086,15.086,0,0,1-2.678-7.448q-.039-.526-.085-1.075t-.1-1.12a22.614,22.614,0,0,1,.747-6.27A31.131,31.131,0,0,1,168.581,138l1.228-3.689,5.53.975-1.825,5.487c-1.305,5.591-.391,11.307,1.445,13.561a9.032,9.032,0,0,0,3.869,2.762,14.32,14.32,0,0,0,5.378.844,25.182,25.182,0,0,0,6.419-1.015,37.4,37.4,0,0,0,8.423-3.66,43.2,43.2,0,0,0,8.281-6.283,48.889,48.889,0,0,0,7.2-8.808,46.414,46.414,0,0,0,5.22-11.252,21.481,21.481,0,0,0,.962-4.255,15.819,15.819,0,0,0,0-3.836,13.5,13.5,0,0,0-1.544-4.936,11.109,11.109,0,0,0-2.961-3.459,25.3,25.3,0,0,1-4.056,3.2,20.808,20.808,0,0,1-3.725,1.888q-.387.158-.754.287c-.245.087-.5.167-.767.242q-3.043.864-4.539-.154a3.181,3.181,0,0,1-1.219-3.294,5.22,5.22,0,0,1,1.151-2.427,14.175,14.175,0,0,1,2.232-2.221,16.271,16.271,0,0,1,2.783-1.791,15.851,15.851,0,0,1,2.854-1.152,17.031,17.031,0,0,1,2.414-.514,18.628,18.628,0,0,1,2.19-.157,54.3,54.3,0,0,0,3.432-6.1,30.071,30.071,0,0,0,2.368-6.827,12.153,12.153,0,0,0,.046-3.873,11.409,11.409,0,0,0-1.1-3.743,8.422,8.422,0,0,0-2.429-3,8.751,8.751,0,0,0-3.74-1.626,10.875,10.875,0,0,0-5.036.378,41.191,41.191,0,0,0-6.854,2.824,39.207,39.207,0,0,0-4.993,3.126,26.353,26.353,0,0,0-3.476,3.063q-1.386,1.493-2.341,2.692c-.369.481-.712.914-1.033,1.3a61.992,61.992,0,0,1,.413-8.709c.224-.209.451-.423.679-.647a49.142,49.142,0,0,1,4.69-4.017,45.9,45.9,0,0,1,5.8-3.721,37.669,37.669,0,0,1,6.891-2.884,20.52,20.52,0,0,1,7.985-1,14.05,14.05,0,0,1,6.151,1.968,12.508,12.508,0,0,1,4.144,4.223A14.316,14.316,0,0,1,228.29,83.6a17.711,17.711,0,0,1,.059,3.672Zm-19.177,21.685a4.432,4.432,0,0,0-.928.434,13.8,13.8,0,0,0-1.183.775,8.7,8.7,0,0,0-1.125.979,3.893,3.893,0,0,0-.757,1.045q-.149.239.082.294a1.784,1.784,0,0,0,.693-.025,10.854,10.854,0,0,0,1.06-.252l1.2-.339a4.553,4.553,0,0,0,1.344-.968,22.446,22.446,0,0,0,2.076-2.2,6.677,6.677,0,0,0-2.459.258ZM187.922,85.8c-.016.072-.032.144-.05.218a29.017,29.017,0,0,0-.641,11.9c.8,5.368,3.152,12.6,8.981,21.848,10.033,15.917,8.774,20.309,6.225,23.617-.481.3-.662-1.841-1.734.634-3.313,7.648-22.073,10.6-16.646,8.378,16.77-6.873,7.7-25.5,7.252-25.16a25.35,25.35,0,0,1-6.8,1.4,7.812,7.812,0,0,1-.938,0c-2.421-.213-3.337-1.438-2.636-3.5a9.667,9.667,0,0,0,.377-1.191c.147-.741-.185-1.012-1.064-.994a3.5,3.5,0,0,1-1.024-.114,1.252,1.252,0,0,1-.97-1.23,1.4,1.4,0,0,1,.871-1.261c.378-.21.8-.357,1.27-.561-.179-.06-.327-.106-.47-.159-.495-.186-1.014-.34-1.476-.569-1.452-.72-1.42-1.743.055-2.649.59-.363.736-.7.4-1.176a3.031,3.031,0,0,0-.813-.715c-.578-.383-1.223-.7-1.782-1.1a1.148,1.148,0,0,1-.07-1.95,12.1,12.1,0,0,1,1.6-1.131c1.1-.729,2.239-1.411,3.289-2.183a3.056,3.056,0,0,0,1.275-1.948c-2.123-.123-3.912-.6-4.423-2.541,1.083,1.224,2.637,1.028,4.247.713.631-.124.8-.421.712-.888-.153-.816-.336-1.628-.442-2.452a14.807,14.807,0,0,1,1.488-9.455,1.422,1.422,0,0,1,.1-.326l-.037.06q.135-.282.93-1.486c.529-.8,1.25-1.978,2.312-3.334a7.891,7.891,0,0,1,.637-.7Zm-11.21,43.255a.26.26,0,0,1-.014.141q-.7,2.115-1.406,4.23-.179.538-.356,1.076a1,1,0,0,0-.025.121l-4.309-.76c.15-.447.3-.9.45-1.344q.234-.7.467-1.409.261-.784.523-1.569c.156-.466.305-.933.468-1.4a5.093,5.093,0,0,1,1.631-2.368,2.3,2.3,0,0,1,1.3-.56c.108-.007.146.022.172.11.291.991.588,1.98.882,2.97.075.253.15.506.219.761Z" transform="translate(-31.8 50.497)" fill="#daa095" fill-rule="evenodd"/>
    <g id="Group_1375" data-name="Group 1375" transform="translate(122.093 217.575)">
      <path id="Path_75" data-name="Path 75" d="M135.49,335.356a7.468,7.468,0,0,1,.241-.765.982.982,0,0,1,1-.586c.44,0,.6.318.727.639a1.488,1.488,0,0,1-.156,1.445c-.825,1.268-.441,2.346,1.065,2.719a5.326,5.326,0,0,0,4.007-.427c2.645-1.489,2.833-5.635.321-7.168a2.754,2.754,0,0,0-2.88-.206c-.083.043-.182.056-.264.1a.373.373,0,0,1-.58-.234.583.583,0,0,1,.182-.482c.812-.728,1.67-1.405,2.461-2.155a6.327,6.327,0,0,0,1.043-1.341,2.565,2.565,0,0,0-.29-3.041,2.448,2.448,0,0,0-3-.464c-.444.228-.824.578-1.248.849-.131.083-.393.173-.453.114-.161-.158-.385-.379-.121-.637a11.733,11.733,0,0,1,1.073-1,4.331,4.331,0,0,1,3.685-.947,2.86,2.86,0,0,1,2.068,4.1A13.12,13.12,0,0,1,142.822,328c-.209.274-.471.507-.742.794.179.087.353.181.535.258a5.617,5.617,0,0,1,3.195,5.253c-.319,4.423-4.275,5.9-7.345,4.989a3.869,3.869,0,0,1-2.9-3.335c-.016-.107-.046-.212-.069-.317Z" transform="translate(-135.49 -318.261)" fill="#daa095"/>
      <path id="Path_76" data-name="Path 76" d="M303.349,327.687a2.562,2.562,0,0,0-1.662,1.481c-1.088,2.122-2.188,4.237-3.281,6.355-.854,1.656-1.7,3.316-2.559,4.97a2.2,2.2,0,0,1-2.458,1.352,1.857,1.857,0,0,1-1.437-1.958.8.8,0,0,1,.638-.783.688.688,0,0,1,.8.43.789.789,0,0,1-.032,1.041,3.78,3.78,0,0,1-.516.375,1.4,1.4,0,0,0,1.822-.124,5.946,5.946,0,0,0,.965-1.278c.546-1,1.052-2.017,1.519-3.053a1.14,1.14,0,0,0-.023-.875q-1.71-3.3-3.493-6.562a15.812,15.812,0,0,0-1.055-1.45,1.89,1.89,0,0,1-.167-.417,1.619,1.619,0,0,1,.425-.128c.791-.013,1.582.011,2.372-.013.381-.012.683.031.8.52a1.8,1.8,0,0,1-.311.2c-.576.235-.694.488-.419,1.049.3.609.627,1.2.946,1.8q.846,1.588,1.7,3.173a5.188,5.188,0,0,0,.342.478,5.733,5.733,0,0,0,.439-.676c.735-1.608,1.472-3.214,2.175-4.836.276-.637.186-.731-.457-1.013a2.522,2.522,0,0,1-.535-.47,1.216,1.216,0,0,1,.318-.139c.837-.032,1.675-.08,2.511-.064.213,0,.423.213.635.328Z" transform="translate(-230.042 -321.512)" fill="#daa095"/>
      <path id="Path_77" data-name="Path 77" d="M176.554,313.317l.358.106a3.773,3.773,0,0,1-.47.19,1.47,1.47,0,0,0-1.223,1.445c-.076,1.735-.071,3.473-.1,5.21a.616.616,0,0,0,.06.163c.378-.314.731-.619,1.1-.908a3.786,3.786,0,0,1,4.19-.457,3.832,3.832,0,0,1,2.216,3.5,5.216,5.216,0,0,1-.511,2.625c-1.185,2.461-3.25,3.157-5.867,2.364a6.1,6.1,0,0,1-.876-.36,2.083,2.083,0,0,0-1.651-.152c-.137.047-.4.043-.448-.035a.809.809,0,0,1-.128-.59,11.818,11.818,0,0,0,.288-4.775c-.011-.125-.008-.252-.008-.379,0-1.6,0-3.195,0-4.791,0-.656.059-1.34-.647-1.747-.108-.062-.157-.225-.254-.372a2.674,2.674,0,0,1,.254-.132c.707-.267,1.441-.48,2.116-.811a2.713,2.713,0,0,1,1.676-.324ZM175.1,323.64c.039.651.048,1.141.1,1.628a1.745,1.745,0,0,0,1.619,1.8,8.16,8.16,0,0,0,1.926.052,2.485,2.485,0,0,0,1.731-.972,4.05,4.05,0,0,0-.729-5.618,2.737,2.737,0,0,0-4.46,1.72C175.176,322.758,175.144,323.281,175.1,323.64Z" transform="translate(-157.905 -313.057)" fill="#daa095"/>
      <path id="Path_78" data-name="Path 78" d="M251.656,319.278c.212.256.5.464.57.73a.892.892,0,0,1-.218.772.808.808,0,0,1-.761-.057,1.317,1.317,0,0,1-.492-1.439c.135-.536.59-.7,1.066-.817a1.169,1.169,0,0,1,1.343.443,2.646,2.646,0,0,1,.357,2.692,24.787,24.787,0,0,1-1.115,2.246,4.672,4.672,0,0,0-.3,4.236,3.072,3.072,0,0,0,3.248,1.621,2.6,2.6,0,0,0,2.226-2.619c.03-1.138.017-2.278.006-3.417-.006-.686-.145-.827-.776-1.106-.17-.075-.268-.312-.4-.474a1.773,1.773,0,0,1,.471-.181c.567-.046,1.135-.072,1.7-.085.51-.011.7.2.7.713-.014,2.262-.015,4.524-.045,6.786a.76.76,0,0,0,.488.768,3.744,3.744,0,0,1,.636.539l-.055.146a3.349,3.349,0,0,1-.472.074c-.554.009-1.107.006-1.661,0-.458,0-.637-.185-.644-.649,0-.237,0-.475-.007-.712a.857.857,0,0,0-.05-.159c-.145.106-.275.2-.4.3a5.754,5.754,0,0,1-3.04,1.31,3.587,3.587,0,0,1-3.877-4.018,6.4,6.4,0,0,1,.709-2.132c.571-1.089,1.306-2.092,1.888-3.176a3.325,3.325,0,0,0,.366-1.534C253.113,319.22,252.4,318.889,251.656,319.278Z" transform="translate(-204.772 -316.293)" fill="#daa095"/>
      <path id="Path_79" data-name="Path 79" d="M230.8,334a.837.837,0,0,1,.083,1.111,3.018,3.018,0,0,1-2.611,1.544,6.237,6.237,0,0,1-3.031-.366,3.134,3.134,0,0,1-2.07-3.651,3.038,3.038,0,0,1,1.856-2.026,5.251,5.251,0,0,1,4.237-.126c.22.088.44.176.662.26.022.009.056-.015.084-.024a2.489,2.489,0,0,0-3.376-2.144,16.548,16.548,0,0,0-1.6.769c-.075-.2-.275-.493-.2-.6.253-.379.47-.883,1.018-.9a16.469,16.469,0,0,1,2.607.019,3.441,3.441,0,0,1,2.317,1.446,10.887,10.887,0,0,1,1.31,2.235c.6,1.44,1.1,2.927,1.633,4.4.2.541.121.624-.444.673a.98.98,0,0,1-1.109-.668c-.248-.631-.451-1.283-.742-1.894a11.8,11.8,0,0,0-1.219-2.228,3.128,3.128,0,0,0-4.3-.4,2.727,2.727,0,0,0-.885,2.793,2.289,2.289,0,0,0,1.87,1.764,2.732,2.732,0,0,0,3.04-.9C230.2,334.719,230.5,334.378,230.8,334Z" transform="translate(-188.426 -321.971)" fill="#daa095"/>
      <path id="Path_80" data-name="Path 80" d="M207.9,332.321c.468.416.311.758,0,1.1a7.543,7.543,0,0,1-3.047,2.119,4.366,4.366,0,0,1-5.491-3.249,4.6,4.6,0,0,1,3.975-5.7,3.32,3.32,0,0,1,1.312.092,7.252,7.252,0,0,1,2.484,1.126c.626.491.628.9.007,1.375-1.385,1.052-2.744,2.138-4.114,3.21a.959.959,0,0,1-.265.2c-.173.051-.407.143-.527.071-.362-.217-.171-.428.073-.622.914-.73,1.817-1.475,2.736-2.2.937-.74.937-1.062-.085-1.685a3.449,3.449,0,0,0-2.074-.705,2.576,2.576,0,0,0-2.272,3.088,4.839,4.839,0,0,0,1.856,3.2,3.083,3.083,0,0,0,4.014-.006,11.7,11.7,0,0,0,.978-.959C207.614,332.628,207.752,332.479,207.9,332.321Z" transform="translate(-174.018 -321.22)" fill="#daa095"/>
      <path id="Path_81" data-name="Path 81" d="M280.521,326.389a1.884,1.884,0,0,1-.288,2.569,2.718,2.718,0,0,1-4.046-.917,2.192,2.192,0,0,1-.146-.876c-.013-1.818-.006-3.637-.006-5.456v-.554l-.907-.11c-.094-.011-.225.018-.277-.034a4.76,4.76,0,0,1-.388-.488c.142-.058.283-.118.425-.172a.3.3,0,0,1,.095,0c1.2-.027,1.172.283,1.139-1.23a2.377,2.377,0,0,0-.57-1.7c-.224-.236-.155-.445.192-.552.919-.284,1.829-.6,2.748-.881a4.128,4.128,0,0,1,.684-.1l.284.458a3.424,3.424,0,0,1-.531.259,1.251,1.251,0,0,0-.94,1.132c-.091.842-.1,1.692-.155,2.614.575,0,1.062.021,1.545-.006s.613.256.7.72h-1.581c-.551,0-.766.144-.768.7-.006,1.944.009,3.888.061,5.831a1.018,1.018,0,0,0,.969,1.1,1.226,1.226,0,0,0,1.4-.8,7.379,7.379,0,0,0,.209-.965C280.4,326.774,280.453,326.626,280.521,326.389Z" transform="translate(-219.478 -314.767)" fill="#daa095"/>
    </g>
  </g>
</svg>
