<svg xmlns="http://www.w3.org/2000/svg" width="30" height="30" viewBox="0 0 30 30">
  <g id="Group_1544" data-name="Group 1544" transform="translate(-315 -449)">
    <rect id="Rectangle_Copy_2" data-name="Rectangle Copy 2" width="30" height="30" rx="10" transform="translate(315 449)" fill="#daa095"/>
    <g id="_1._Icons_Line_add-item-alt" data-name="1. Icons / Line /  add-item-alt" transform="translate(322.518 455.003)">
      <path id="Fill_10" data-name="Fill 10" d="M8.647,12.038a1.333,1.333,0,1,1,1.33,1.416A1.376,1.376,0,0,1,8.647,12.038Zm.665,0a.666.666,0,1,0,.665-.708A.689.689,0,0,0,9.312,12.038Zm-6.652,0a1.376,1.376,0,0,1,1.33-1.416,1.419,1.419,0,0,1,0,2.832A1.377,1.377,0,0,1,2.66,12.038Zm.665,0a.689.689,0,0,0,.665.708.709.709,0,0,0,0-1.416A.688.688,0,0,0,3.326,12.038Zm.792-2.125A1.692,1.692,0,0,1,2.481,8.434L2.335,7.5V7.491L1.523,2.308a1.02,1.02,0,0,0-.984-.892H.333A.341.341,0,0,1,0,1.062.344.344,0,0,1,.333.708H.539a1.7,1.7,0,0,1,1.63,1.416H6.985a.344.344,0,0,1,.332.354.34.34,0,0,1-.332.354H2.275L2.94,7.081h8.448l.359-1.338c0-.015.007-.022.007-.036s0-.007.007-.014a.336.336,0,0,1,.406-.234A.362.362,0,0,1,12.4,5.9L11.96,7.534a.339.339,0,0,1-.32.255H3.053l.086.531a1.015,1.015,0,0,0,.985.885h7.516a.345.345,0,0,1,.333.354.34.34,0,0,1-.333.354ZM10.643,4.6V2.832H8.98a.34.34,0,0,1-.333-.354.345.345,0,0,1,.333-.354h1.663V.354a.334.334,0,1,1,.666,0v1.77h1.663a.246.246,0,0,1,.1.022.07.07,0,0,1,.047.021.134.134,0,0,1,.066.043.2.2,0,0,1,.053.057.314.314,0,0,1,.047.106.291.291,0,0,1,.02.106.534.534,0,0,1-.013.1l-.014.043a.322.322,0,0,1-.306.212H11.308V4.6a.334.334,0,1,1-.666,0Z" transform="translate(1.33 2.124)" fill="#fff"/>
    </g>
  </g>
</svg>
