<svg xmlns="http://www.w3.org/2000/svg" width="11.999" height="10.099" viewBox="0 0 11.999 10.099">
  <path id="bull-horn" d="M3.008,10.1a1.133,1.133,0,0,1-.954-.582,6.974,6.974,0,0,1-.721-3.631A2,2,0,0,1,2,2H5A11.155,11.155,0,0,0,10.161.047a.333.333,0,0,1,.5.286v1.7A1.673,1.673,0,0,1,12,3.667v.667a1.673,1.673,0,0,1-1.334,1.634v1.7A.333.333,0,0,1,10.332,8a.336.336,0,0,1-.171-.047A11.15,11.15,0,0,0,5,6H4.146A.553.553,0,0,0,4,6.33c0-.016,0-.022.014-.022a.341.341,0,0,1,.093.04l.043.021c.382.19.517.314.517.631a.725.725,0,0,1-.24.548l-.016.018c-.066.071-.077.087-.077.142,0-.01,0-.015.011-.015a.524.524,0,0,1,.111.038l.026.01C4.832,7.88,5,8,5,8.333a1.28,1.28,0,0,1-.431.9A2.4,2.4,0,0,1,3.008,10.1ZM2,6A6.36,6.36,0,0,0,2.61,9.149a.524.524,0,0,0,.439.278c.264,0,.6-.21,1.047-.662a.682.682,0,0,0,.235-.411c0,.022-.011.03-.025.03a.242.242,0,0,1-.069-.021l-.026-.01c-.353-.139-.545-.282-.545-.638a.792.792,0,0,1,.256-.6l.017-.018c.049-.051.059-.063.06-.083,0,.011,0,.015-.013.015a.336.336,0,0,1-.093-.04l-.044-.022c-.382-.191-.517-.315-.517-.631A1.012,1.012,0,0,1,3.389,6ZM10,.915h0A11.81,11.81,0,0,1,5.333,2.654V5.345A11.8,11.8,0,0,1,10,7.085V.915ZM2,2.667A1.333,1.333,0,1,0,2,5.333H4.665V2.667Zm8.666.056V5.277a1,1,0,0,0,.667-.944V3.667A1,1,0,0,0,10.665,2.723Z" fill="#fff"/>
</svg>
