<svg id="Component_69_1" data-name="Component 69 – 1" xmlns="http://www.w3.org/2000/svg" width="14" height="18" viewBox="0 0 14 18">
  <path id="Path_2579" data-name="Path 2579" d="M13.956,4.023l-.378-1.191a1.061,1.061,0,0,0-1-.759H9.394V.985A.964.964,0,0,0,8.456,0H5.543A.964.964,0,0,0,4.6.985V2.073H1.424a1.061,1.061,0,0,0-1,.759L.043,4.023a.931.931,0,0,0,.117.8A.839.839,0,0,0,.849,5.2h.4L2.115,16.5A1.59,1.59,0,0,0,3.659,18h6.859a1.59,1.59,0,0,0,1.544-1.5L12.931,5.2h.219a.84.84,0,0,0,.689-.37.931.931,0,0,0,.117-.8ZM5.609,1.054H8.39V2.073H5.609ZM11.06,16.418a.559.559,0,0,1-.542.527H3.659a.559.559,0,0,1-.542-.527L2.252,5.2h9.672Zm-10-12.276.31-.977a.052.052,0,0,1,.05-.038H12.575a.053.053,0,0,1,.05.038l.31.977Zm0,0" transform="translate(0 0)" fill="#242424"/>
  <path id="Path_2580" data-name="Path 2580" d="M268.8,176.136h.028a.527.527,0,0,0,.526-.5l.5-9.506a.527.527,0,0,0-1.053-.055l-.5,9.506A.527.527,0,0,0,268.8,176.136Zm0,0" transform="translate(-259.367 -159.755)" fill="#242424"/>
  <path id="Path_2581" data-name="Path 2581" d="M106.313,175.641a.527.527,0,0,0,.526.5h.029a.527.527,0,0,0,.5-.555l-.519-9.506a.527.527,0,0,0-1.053.057Zm0,0" transform="translate(-102.273 -159.758)" fill="#242424"/>
  <path id="Path_2582" data-name="Path 2582" d="M194.781,176.14a.527.527,0,0,0,.527-.527v-9.506a.527.527,0,1,0-1.055,0v9.506A.527.527,0,0,0,194.781,176.14Zm0,0" transform="translate(-187.776 -159.758)" fill="#242424"/>
</svg>
