<svg xmlns="http://www.w3.org/2000/svg" width="32" height="32" viewBox="0 0 32 32">
  <g id="Group_1637" data-name="Group 1637" transform="translate(-28 -331)">
    <rect id="Rectangle" width="32" height="32" rx="10" transform="translate(28 331)" fill="#daa095"/>
    <path id="Path_2593" data-name="Path 2593" d="M10.576,2.025a7.993,7.993,0,0,0-8.552,8.552A8.152,8.152,0,0,0,10.248,18H13.2a.8.8,0,1,0,0-1.6H10.264A6.619,6.619,0,0,1,3.8,11.576a6.421,6.421,0,0,1,7.768-7.768A6.6,6.6,0,0,1,16.4,10.264v.88A1.293,1.293,0,0,1,15.2,12.4,1.293,1.293,0,0,1,14,11.144v-1a4.091,4.091,0,0,0-3.408-4.1,4,4,0,1,0,2.24,6.784,2.957,2.957,0,0,0,3.44.968A2.848,2.848,0,0,0,18,11.128v-.872a8.154,8.154,0,0,0-7.424-8.232ZM10,12.4A2.4,2.4,0,1,1,12.4,10,2.4,2.4,0,0,1,10,12.4Z" transform="translate(34 337)" fill="#fff"/>
  </g>
</svg>
