<svg xmlns="http://www.w3.org/2000/svg" xmlns:xlink="http://www.w3.org/1999/xlink" width="227.368" height="219.221" viewBox="0 0 227.368 219.221">
  <defs>
    <clipPath id="clip-path">
      <path id="Clip_2" data-name="Clip 2" d="M0,0H227.368V115H0Z" transform="translate(0 0.102)" fill="none"/>
    </clipPath>
    <clipPath id="clip-path-2">
      <path id="Clip_696" data-name="Clip 696" d="M0,0H25.258V14.551H0Z" transform="translate(0.074 0.315)" fill="#daa095"/>
    </clipPath>
  </defs>
  <g id="Group_1637" data-name="Group 1637" transform="translate(-54 -202.464)">
    <g id="Group_721" data-name="Group 721" transform="translate(54 202)">
      <g id="Group_3" data-name="Group 3" transform="translate(0 104.58)">
        <path id="Clip_2-2" data-name="Clip 2" d="M0,0H227.368V115H0Z" transform="translate(0 0.102)" fill="none"/>
        <g id="Group_3-2" data-name="Group 3" clip-path="url(#clip-path)">
          <path id="Fill_1" data-name="Fill 1" d="M33.3,98.162c-44.4-22.456-44.4-58.864,0-81.32s116.377-22.455,160.774,0,44.4,58.864,0,81.32-116.377,22.456-160.774,0" transform="translate(0 0.102)" fill="#e1e1e1" opacity="0.407"/>
        </g>
      </g>
      <g id="Group_36" data-name="Group 36" transform="translate(71.013 39.601)">
        <path id="Fill_4" data-name="Fill 4" d="M6.045,4.712l32.5,18.772a9.3,9.3,0,0,1,4.193,7.264V94.892L45.5,96.485V30.5a13.135,13.135,0,0,0-5.921-10.255L5.92.8C2.664-1.078,0,.46,0,4.22V70.208l2.776,1.6V6.6c0-2.076,1.471-2.925,3.269-1.887" transform="translate(86.355 0.154)" fill="#e1e1e1"/>
        <path id="Fill_6" data-name="Fill 6" d="M0,9.9A11.72,11.72,0,0,1,5.3.719C6.84-.169,8.218-.2,9.187.444l3.577,2.042L5.157,15.409,1.613,13.37l0-.009A3.673,3.673,0,0,1,0,9.9" transform="translate(67.333 138.305)" fill="#aa7445"/>
        <path id="Fill_8" data-name="Fill 8" d="M5.3.724A11.72,11.72,0,0,0,0,9.909c0,3.382,2.374,4.752,5.3,3.061a11.72,11.72,0,0,0,5.3-9.185C10.605.4,8.232-.967,5.3.724" transform="translate(71.045 140.439)" fill="#875b37"/>
        <path id="Fill_10" data-name="Fill 10" d="M3.59,1.572c0-1.322-.8-1.929-1.8-1.357A4.3,4.3,0,0,0,0,3.645C0,4.967.8,5.575,1.795,5a4.3,4.3,0,0,0,1.8-3.43" transform="translate(74.553 144.677)" fill="#634125"/>
        <path id="Fill_12" data-name="Fill 12" d="M7.677,0s0,6.051,2.886,8.192c.544.4,1.121.683,1.461.966.736.613.248,1.739-.645,2.218C10.08,12.072,3,10.187,0,4.432Z" transform="translate(62.456 135.52)" fill="#f0f0f0"/>
        <path id="Fill_14" data-name="Fill 14" d="M7.677,0s0,6.051,2.887,8.192c.544.4,1.121.683,1.461.966.736.613.248,1.739-.645,2.218C10.08,12.072,3,10.187,0,4.432Z" transform="translate(65.204 137.099)" fill="#fafafa"/>
        <path id="Fill_16" data-name="Fill 16" d="M.509.069A1.126,1.126,0,0,0,0,.951c0,.324.228.456.509.294A1.126,1.126,0,0,0,1.018.363C1.018.039.789-.093.509.069" transform="translate(75.839 146.629)" fill="#634125"/>
        <path id="Fill_18" data-name="Fill 18" d="M0,9.9A11.72,11.72,0,0,1,5.3.719C6.84-.168,8.218-.2,9.187.444l3.576,2.042L5.157,15.409,1.613,13.369l0-.009A3.675,3.675,0,0,1,0,9.9" transform="translate(124.904 105.066)" fill="#aa7445"/>
        <path id="Fill_20" data-name="Fill 20" d="M5.3.724A11.72,11.72,0,0,0,0,9.909c0,3.382,2.374,4.752,5.3,3.061a11.72,11.72,0,0,0,5.3-9.185C10.606.4,8.232-.967,5.3.724" transform="translate(128.617 107.2)" fill="#875b37"/>
        <path id="Fill_22" data-name="Fill 22" d="M3.59,1.572c0-1.322-.8-1.929-1.8-1.357A4.3,4.3,0,0,0,0,3.645C0,4.967.8,5.575,1.795,5a4.3,4.3,0,0,0,1.8-3.43" transform="translate(132.125 111.438)" fill="#634125"/>
        <path id="Fill_24" data-name="Fill 24" d="M7.677,0s0,6.051,2.886,8.192c.544.4,1.121.683,1.461.966.736.613.248,1.739-.645,2.218C10.08,12.072,3,10.187,0,4.432Z" transform="translate(120.027 102.281)" fill="#f0f0f0"/>
        <path id="Fill_26" data-name="Fill 26" d="M7.677,0s0,6.051,2.887,8.192c.544.4,1.121.683,1.461.966.736.613.248,1.739-.645,2.218C10.08,12.072,3,10.187,0,4.432Z" transform="translate(122.775 103.86)" fill="#fafafa"/>
        <path id="Fill_28" data-name="Fill 28" d="M.509.07A1.126,1.126,0,0,0,0,.95c0,.325.228.456.509.294A1.125,1.125,0,0,0,1.018.363C1.018.039.789-.093.509.07" transform="translate(133.411 113.39)" fill="#634125"/>
        <path id="Fill_30" data-name="Fill 30" d="M134.462,29.483,83.411,0,0,48.157,51.05,77.641Z" transform="translate(0.167 68.759)" fill="#875b37"/>
        <path id="Fill_32" data-name="Fill 32" d="M83.412,0V3.207L0,51.364V48.158Z" transform="translate(51.217 98.242)" fill="#634125"/>
        <path id="Fill_34" data-name="Fill 34" d="M0,0V3.207L51.051,32.69V29.484Z" transform="translate(0.166 116.916)" fill="#533720"/>
      </g>
      <path id="Fill_37" data-name="Fill 37" d="M88.444,25.682,44.656,50.973,0,25.225,43.906,0Z" transform="translate(109.777 112.299)" fill="#533720"/>
      <path id="Fill_39" data-name="Fill 39" d="M82.481,23.193,42.381,0,0,24.529,40.1,47.722Z" transform="translate(114.25 84.718)" fill="#00dfbf"/>
      <path id="Fill_40" data-name="Fill 40" d="M82.481,23.193,42.381,0,0,24.529,40.1,47.722Z" transform="translate(114.25 84.718)" fill="#aa7445"/>
      <path id="Fill_41" data-name="Fill 41" d="M0,52.562,42.381,28.033V0L0,24.529Z" transform="translate(154.351 107.91)" fill="#00dfbf"/>
      <path id="Fill_42" data-name="Fill 42" d="M0,52.562,42.381,28.033V0L0,24.529Z" transform="translate(154.351 107.91)" fill="#fecb94"/>
      <g id="Group_549" data-name="Group 549" transform="translate(74.726 42.386)">
        <path id="Fill_43" data-name="Fill 43" d="M.82,5.64a.724.724,0,0,1-.364-.1A1.11,1.11,0,0,1,0,4.536V1.34l.151.028L2.48,0V3.319A2.686,2.686,0,0,1,1.334,5.487,1.051,1.051,0,0,1,.82,5.64ZM.374,1.786v2.75a.764.764,0,0,0,.268.684.353.353,0,0,0,.178.046.679.679,0,0,0,.327-.1,2.354,2.354,0,0,0,.96-1.845V3.076H1.246L1.075,1.912ZM2.107.652l-1.39.816.688.122L1.568,2.7h.539Z" transform="translate(83.483 103.148)" fill="#875b37"/>
        <path id="Fill_45" data-name="Fill 45" d="M.232,2.869a.186.186,0,0,1-.187-.187V.187a.187.187,0,1,1,.373,0v2.5a.187.187,0,0,1-.187.187" transform="translate(84.491 108.286)" fill="#875b37"/>
        <path id="Fill_47" data-name="Fill 47" d="M.187,1.627a.187.187,0,0,1-.093-.348L2.263.026a.183.183,0,0,1,.254.068.186.186,0,0,1-.068.255L.28,1.6a.183.183,0,0,1-.093.025" transform="translate(83.452 110.154)" fill="#875b37"/>
        <path id="Fill_49" data-name="Fill 49" d="M.428,4.757a.414.414,0,0,1-.2-.052A.494.494,0,0,1,0,4.255V3.744a.187.187,0,0,1,.374,0v.511c0,.077.021.117.036.126s.058.005.122-.032A1.1,1.1,0,0,0,.879,3.5V.187a.187.187,0,0,1,.373,0V3.5A1.423,1.423,0,0,1,.722,4.67a.587.587,0,0,1-.294.087" transform="translate(90.938 102.727)" fill="#875b37"/>
        <path id="Fill_51" data-name="Fill 51" d="M0,4.8V4.477A5.286,5.286,0,0,1,2.388.339,2.266,2.266,0,0,1,3.508,0,1.358,1.358,0,0,1,4.2.179a1.785,1.785,0,0,1,.765,1.647v.108L0,4.8ZM3.506.373a1.92,1.92,0,0,0-.932.29A4.935,4.935,0,0,0,.391,4.144l4.2-2.424A1.386,1.386,0,0,0,4.011.5.99.99,0,0,0,3.506.373Z" transform="translate(89.4 99.782)" fill="#875b37"/>
        <path id="Fill_53" data-name="Fill 53" d="M.232,6.729a.187.187,0,0,1-.187-.187V.187a.187.187,0,1,1,.373,0V6.542a.186.186,0,0,1-.187.187" transform="translate(97.84 96.931)" fill="#875b37"/>
        <path id="Fill_55" data-name="Fill 55" d="M.187,1.8a.19.19,0,0,1-.074-.015.187.187,0,0,1-.1-.246L.68,0l.741.856a.186.186,0,1,1-.282.244L.787.694l-.429.99A.186.186,0,0,1,.187,1.8" transform="translate(97.34 96.771)" fill="#875b37"/>
        <path id="Fill_57" data-name="Fill 57" d="M.232,6.729a.187.187,0,0,1-.187-.187V.187a.187.187,0,1,1,.373,0V6.542a.187.187,0,0,1-.187.187" transform="translate(99.568 95.947)" fill="#875b37"/>
        <path id="Fill_59" data-name="Fill 59" d="M.187,1.8A.173.173,0,0,1,.113,1.78a.186.186,0,0,1-.1-.245L.68,0l.741.856a.186.186,0,1,1-.282.244L.787.694l-.429.99A.187.187,0,0,1,.187,1.8" transform="translate(99.067 95.787)" fill="#875b37"/>
        <path id="Fill_61" data-name="Fill 61" d="M40.1,51.226,0,28.033V0L40.1,23.193Z" transform="translate(39.525 66.861)" fill="#00dfbf"/>
        <path id="Fill_63" data-name="Fill 63" d="M40.1,51.226,0,28.033V0L40.1,23.193Z" transform="translate(39.525 66.861)" fill="#cc955d"/>
        <path id="Fill_65" data-name="Fill 65" d="M0,4.259,2.745,5.844V1.585L0,0Z" transform="translate(56.36 76.581)" fill="#875b37"/>
        <path id="Fill_67" data-name="Fill 67" d="M2.745,26.114,45.126,1.585,42.381,0,0,24.529Z" transform="translate(56.36 52.052)" fill="#875b37"/>
        <path id="Fill_69" data-name="Fill 69" d="M11.35.071.123,6.538c-.2.117-.149.339.123.5L12.92,14.352a.968.968,0,0,0,.858.071l11.23-6.47c.2-.117.148-.339-.123-.5L12.208.141A.971.971,0,0,0,11.35.071" transform="translate(90.243 57.141)" fill="#fafafa"/>
        <path id="Fill_71" data-name="Fill 71" d="M10.754,6.539a.232.232,0,0,0,.116-.433L.348.032a.232.232,0,1,0-.232.4L10.638,6.508a.231.231,0,0,0,.116.031" transform="translate(96.509 61.678)" fill="#e1e1e1"/>
        <path id="Fill_73" data-name="Fill 73" d="M10.754,6.539a.232.232,0,0,0,.116-.433L.348.032a.232.232,0,1,0-.232.4L10.638,6.508a.231.231,0,0,0,.116.031" transform="translate(95.34 62.347)" fill="#e1e1e1"/>
        <path id="Fill_75" data-name="Fill 75" d="M10.754,6.539a.232.232,0,0,0,.116-.433L.348.031a.232.232,0,1,0-.232.4L10.638,6.508a.231.231,0,0,0,.116.031" transform="translate(94.172 63.017)" fill="#e1e1e1"/>
        <path id="Fill_77" data-name="Fill 77" d="M10.755,6.539a.232.232,0,0,0,.116-.433L.348.032a.232.232,0,1,0-.232.4L10.639,6.508a.228.228,0,0,0,.116.031" transform="translate(93.004 63.686)" fill="#e1e1e1"/>
        <path id="Fill_79" data-name="Fill 79" d="M5.2.236,4.794,0,0,2.768.409,3Z" transform="translate(108.986 64.564)" fill="#375a64"/>
        <path id="Fill_81" data-name="Fill 81" d="M5.5.4,4.794,0,0,2.768l.71.4Z" transform="translate(107.019 63.433)" fill="#375a64"/>
        <path id="Fill_83" data-name="Fill 83" d="M5.2.236,4.793,0,0,2.768.409,3Z" transform="translate(105.655 62.64)" fill="#375a64"/>
        <path id="Fill_85" data-name="Fill 85" d="M5.621.468,4.793,0,0,2.768l.827.468Z" transform="translate(103.989 61.678)" fill="#375a64"/>
        <path id="Fill_87" data-name="Fill 87" d="M5.2.236,4.793,0,0,2.768.409,3Z" transform="translate(102.323 60.716)" fill="#375a64"/>
        <path id="Fill_89" data-name="Fill 89" d="M5.679.5,4.794,0,0,2.768l.886.5Z" transform="translate(100.658 59.754)" fill="#375a64"/>
        <path id="Fill_91" data-name="Fill 91" d="M5.2.236,4.793,0,0,2.768.409,3Z" transform="translate(98.992 58.792)" fill="#375a64"/>
        <path id="Fill_93" data-name="Fill 93" d="M5,.118,4.794,0,0,2.767l.2.118Z" transform="translate(98.252 58.358)" fill="#375a64"/>
        <path id="Fill_95" data-name="Fill 95" d="M5,.118,4.794,0,0,2.768l.2.118Z" transform="translate(99.933 59.362)" fill="#375a64"/>
        <path id="Fill_97" data-name="Fill 97" d="M5,.118,4.794,0,0,2.767l.2.118Z" transform="translate(103.307 61.289)" fill="#375a64"/>
        <path id="Fill_99" data-name="Fill 99" d="M5,.118,4.794,0,0,2.767l.2.118Z" transform="translate(105.14 62.352)" fill="#375a64"/>
        <path id="Fill_101" data-name="Fill 101" d="M5,.118,4.794,0,0,2.767l.2.118Z" transform="translate(106.439 63.127)" fill="#375a64"/>
        <path id="Fill_103" data-name="Fill 103" d="M5,.118,4.794,0,0,2.768l.2.118Z" transform="translate(108.263 64.14)" fill="#375a64"/>
        <path id="Fill_105" data-name="Fill 105" d="M5.2.236,4.793,0,0,2.768.409,3Z" transform="translate(97.327 57.83)" fill="#375a64"/>
        <path id="Fill_107" data-name="Fill 107" d="M0,7.135v7.031c0,.271.19.381.425.245L11.4,8.074a.938.938,0,0,0,.425-.736V.3c0-.271-.19-.381-.425-.245L.425,6.4A.939.939,0,0,0,0,7.135" transform="translate(108.984 83.635)" fill="#fafafa"/>
        <path id="Fill_109" data-name="Fill 109" d="M.409,0,.055.2V6.6l.354-.2Z" transform="translate(119.721 84.7)" fill="#875b37"/>
        <path id="Fill_111" data-name="Fill 111" d="M.611,0,0,.359V6.75l.61-.359Z" transform="translate(118.077 85.532)" fill="#875b37"/>
        <path id="Fill_113" data-name="Fill 113" d="M.409,0,.055.2V6.6l.355-.2Z" transform="translate(116.836 86.365)" fill="#875b37"/>
        <path id="Fill_115" data-name="Fill 115" d="M.709,0,0,.421V6.812l.709-.421Z" transform="translate(115.448 86.982)" fill="#875b37"/>
        <path id="Fill_117" data-name="Fill 117" d="M.409,0,.055.2V6.6l.354-.2Z" transform="translate(113.95 88.03)" fill="#875b37"/>
        <path id="Fill_119" data-name="Fill 119" d="M.758,0,0,.451V6.842l.758-.451Z" transform="translate(112.562 88.616)" fill="#875b37"/>
        <path id="Fill_121" data-name="Fill 121" d="M.409,0,.055.2V6.6l.354-.2Z" transform="translate(111.065 89.695)" fill="#875b37"/>
        <path id="Fill_123" data-name="Fill 123" d="M.321,0,.143.1V6.494l.177-.1Z" transform="translate(110.33 90.163)" fill="#875b37"/>
        <path id="Fill_125" data-name="Fill 125" d="M.321,0,.143.1V6.494l.177-.1Z" transform="translate(111.811 89.347)" fill="#875b37"/>
        <path id="Fill_127" data-name="Fill 127" d="M.321,0,.143.1V6.493l.177-.1Z" transform="translate(114.717 87.645)" fill="#875b37"/>
        <path id="Fill_129" data-name="Fill 129" d="M.321,0,.143.1V6.493l.177-.1Z" transform="translate(116.309 86.732)" fill="#875b37"/>
        <path id="Fill_131" data-name="Fill 131" d="M.32,0,.143.1V6.494l.177-.1Z" transform="translate(117.452 86.1)" fill="#875b37"/>
        <path id="Fill_133" data-name="Fill 133" d="M.321,0,.143.1V6.494l.177-.1Z" transform="translate(119.002 85.159)" fill="#875b37"/>
        <path id="Fill_135" data-name="Fill 135" d="M.409,0,.055.2V6.6l.354-.2Z" transform="translate(109.622 90.528)" fill="#875b37"/>
        <path id="Fill_137" data-name="Fill 137" d="M0,21.589,37.324,0,79.559,24.437,42.235,46.026Z" transform="translate(38.146 11.569)" fill="#00dfbf"/>
        <path id="Fill_139" data-name="Fill 139" d="M0,21.589,37.324,0,79.559,24.437,42.235,46.026Z" transform="translate(38.146 11.569)" fill="#aa7445"/>
        <path id="Fill_141" data-name="Fill 141" d="M13.781.071,25.007,6.538c.2.117.149.339-.122.5L12.21,14.352a.969.969,0,0,1-.858.071L.122,7.952c-.2-.117-.148-.339.123-.495L12.922.141a.972.972,0,0,1,.859-.071" transform="translate(42.256 25.439)" fill="#fafafa"/>
        <path id="Fill_143" data-name="Fill 143" d="M.232,6.539a.232.232,0,0,1-.116-.433L10.638.032a.232.232,0,1,1,.232.4L.348,6.508a.229.229,0,0,1-.116.031" transform="translate(50.134 29.977)" fill="#e1e1e1"/>
        <path id="Fill_145" data-name="Fill 145" d="M.232,6.539a.232.232,0,0,1-.116-.433L10.638.032a.232.232,0,1,1,.232.4L.348,6.508a.229.229,0,0,1-.116.031" transform="translate(51.302 30.646)" fill="#e1e1e1"/>
        <path id="Fill_147" data-name="Fill 147" d="M.232,6.539a.232.232,0,0,1-.116-.433L10.638.031a.232.232,0,1,1,.232.4L.348,6.508a.229.229,0,0,1-.116.031" transform="translate(52.47 31.316)" fill="#e1e1e1"/>
        <path id="Fill_149" data-name="Fill 149" d="M.232,6.539a.232.232,0,0,1-.116-.433L10.638.032a.232.232,0,1,1,.232.4L.348,6.508a.229.229,0,0,1-.116.031" transform="translate(53.639 31.985)" fill="#e1e1e1"/>
        <path id="Fill_151" data-name="Fill 151" d="M0,.236.409,0,5.2,2.768,4.793,3Z" transform="translate(43.44 32.862)" fill="#375a64"/>
        <path id="Fill_153" data-name="Fill 153" d="M0,.4.71,0,5.5,2.768l-.71.4Z" transform="translate(45.106 31.732)" fill="#375a64"/>
        <path id="Fill_155" data-name="Fill 155" d="M0,.236.409,0,5.2,2.768,4.793,3Z" transform="translate(46.772 30.938)" fill="#375a64"/>
        <path id="Fill_157" data-name="Fill 157" d="M0,.468.827,0,5.62,2.768l-.827.468Z" transform="translate(48.019 29.976)" fill="#375a64"/>
        <path id="Fill_159" data-name="Fill 159" d="M0,.236.409,0,5.2,2.768,4.794,3Z" transform="translate(50.103 29.014)" fill="#375a64"/>
        <path id="Fill_161" data-name="Fill 161" d="M0,.5.886,0,5.679,2.768l-.885.5Z" transform="translate(51.292 28.053)" fill="#375a64"/>
        <path id="Fill_163" data-name="Fill 163" d="M0,.236.409,0,5.2,2.768,4.793,3Z" transform="translate(53.434 27.09)" fill="#375a64"/>
        <path id="Fill_165" data-name="Fill 165" d="M0,.118.2,0,5,2.767l-.205.118Z" transform="translate(54.379 26.657)" fill="#375a64"/>
        <path id="Fill_167" data-name="Fill 167" d="M0,.118.2,0,5,2.768l-.2.118Z" transform="translate(52.698 27.661)" fill="#375a64"/>
        <path id="Fill_169" data-name="Fill 169" d="M0,.118.2,0,5,2.767l-.2.118Z" transform="translate(49.324 29.588)" fill="#375a64"/>
        <path id="Fill_171" data-name="Fill 171" d="M0,.118.2,0,5,2.767l-.205.118Z" transform="translate(47.491 30.651)" fill="#375a64"/>
        <path id="Fill_173" data-name="Fill 173" d="M0,.118.2,0,5,2.767l-.2.118Z" transform="translate(46.192 31.426)" fill="#375a64"/>
        <path id="Fill_175" data-name="Fill 175" d="M0,.118.2,0,5,2.768l-.205.118Z" transform="translate(44.368 32.439)" fill="#375a64"/>
        <path id="Fill_177" data-name="Fill 177" d="M0,.236.409,0,5.2,2.768,4.793,3Z" transform="translate(55.1 26.128)" fill="#375a64"/>
        <path id="Fill_179" data-name="Fill 179" d="M42.235,52.47,0,28.033V0L42.235,24.437Z" transform="translate(38.145 33.158)" fill="#cc955d"/>
        <path id="Fill_181" data-name="Fill 181" d="M0,49.622,37.324,28.033V0L0,21.589Z" transform="translate(80.381 36.006)" fill="#00dfbf"/>
        <path id="Fill_183" data-name="Fill 183" d="M0,49.622,37.324,28.033V0L0,21.589Z" transform="translate(80.381 36.006)" fill="#fecb94"/>
        <path id="Fill_185" data-name="Fill 185" d="M2.744,4.259,0,5.844V1.585L2.744,0Z" transform="translate(98.125 45.726)" fill="#875b37"/>
        <path id="Fill_187" data-name="Fill 187" d="M44.979,24.437l-2.743,1.587-2.419-1.4L0,1.587,2.743,0,42.561,23.04Z" transform="translate(55.89 21.289)" fill="#875b37"/>
        <path id="Fill_189" data-name="Fill 189" d="M1.419,4.82A.88.88,0,0,1,.98,4.69,2.3,2.3,0,0,1,0,2.836V0L1.99,1.169l.13-.023V3.876a.949.949,0,0,1-.389.861A.617.617,0,0,1,1.419,4.82ZM.319,2.628v.208A2.01,2.01,0,0,0,1.14,4.414a.573.573,0,0,0,.277.087.3.3,0,0,0,.153-.04.649.649,0,0,0,.23-.584V1.526l-.6.107-.145.995Zm0-2.071V2.309H.779l.14-.95.587-.1Z" transform="translate(63.921 67.528)" fill="#875b37"/>
        <path id="Fill_191" data-name="Fill 191" d="M.232,2.452a.16.16,0,0,0,.16-.16V.16a.16.16,0,0,0-.319,0V2.292a.16.16,0,0,0,.16.16" transform="translate(64.749 71.92)" fill="#875b37"/>
        <path id="Fill_193" data-name="Fill 193" d="M2.014,1.39a.16.16,0,0,0,.08-.3L.24.022A.157.157,0,0,0,.022.081.159.159,0,0,0,.08.3l1.854,1.07a.154.154,0,0,0,.08.022" transform="translate(63.895 73.516)" fill="#875b37"/>
        <path id="Fill_195" data-name="Fill 195" d="M.7,4.066a.348.348,0,0,0,.175-.045.421.421,0,0,0,.191-.384V3.2a.159.159,0,0,0-.319,0v.438c0,.065-.019.1-.031.107s-.05,0-.1-.027A.94.94,0,0,1,.32,3V.16A.16.16,0,0,0,0,.16V3a1.215,1.215,0,0,0,.453,1A.5.5,0,0,0,.7,4.066" transform="translate(70.758 74.135)" fill="#875b37"/>
        <path id="Fill_197" data-name="Fill 197" d="M4.243,4.1h0L0,1.653V1.561A1.528,1.528,0,0,1,.654.153,1.158,1.158,0,0,1,1.244,0,1.938,1.938,0,0,1,2.2.29,4.519,4.519,0,0,1,4.243,3.827V4.1Zm-3-3.784a.841.841,0,0,0-.431.11A1.182,1.182,0,0,0,.321,1.47L3.908,3.541A4.216,4.216,0,0,0,2.042.567,1.619,1.619,0,0,0,1.246.319Z" transform="translate(68.901 71.619)" fill="#875b37"/>
        <path id="Fill_199" data-name="Fill 199" d="M.232,5.751a.16.16,0,0,0,.16-.16V.16a.16.16,0,1,0-.32,0V5.591a.16.16,0,0,0,.16.16" transform="translate(77.647 76.031)" fill="#875b37"/>
        <path id="Fill_201" data-name="Fill 201" d="M1.094,1.535a.161.161,0,0,0,.064-.013.159.159,0,0,0,.083-.21L.673,0,.04.732A.158.158,0,0,0,.055.957.16.16,0,0,0,.28.94l.3-.348.367.846a.158.158,0,0,0,.146.1" transform="translate(77.251 75.894)" fill="#875b37"/>
        <path id="Fill_203" data-name="Fill 203" d="M.232,5.751a.16.16,0,0,0,.16-.16V.16a.16.16,0,0,0-.319,0V5.591a.16.16,0,0,0,.16.16" transform="translate(76.17 75.189)" fill="#875b37"/>
        <path id="Fill_205" data-name="Fill 205" d="M1.094,1.535a.153.153,0,0,0,.063-.013.159.159,0,0,0,.083-.21L.673,0,.039.732A.159.159,0,1,0,.28.94l.3-.348.367.847a.159.159,0,0,0,.146.1" transform="translate(75.776 75.052)" fill="#875b37"/>
        <path id="Fill_207" data-name="Fill 207" d="M11.825,7.135v7.03c0,.271-.19.381-.425.246L.425,8.073A.938.938,0,0,1,0,7.338V.3C0,.032.191-.077.425.058L11.4,6.4a.94.94,0,0,1,.425.736" transform="translate(39.218 51.518)" fill="#fafafa"/>
        <path id="Fill_209" data-name="Fill 209" d="M.055,0,.409.2V6.6l-.355-.2Z" transform="translate(39.843 52.583)" fill="#375a64"/>
        <path id="Fill_211" data-name="Fill 211" d="M0,0,.611.359V6.75L0,6.392Z" transform="translate(41.341 53.415)" fill="#375a64"/>
        <path id="Fill_213" data-name="Fill 213" d="M.055,0,.41.2V6.6l-.355-.2Z" transform="translate(42.729 54.248)" fill="#375a64"/>
        <path id="Fill_215" data-name="Fill 215" d="M0,0,.71.421V6.812L0,6.392Z" transform="translate(43.871 54.864)" fill="#375a64"/>
        <path id="Fill_217" data-name="Fill 217" d="M.055,0,.41.2V6.6l-.355-.2Z" transform="translate(45.614 55.913)" fill="#375a64"/>
        <path id="Fill_219" data-name="Fill 219" d="M0,0,.758.451V6.842L0,6.392Z" transform="translate(46.708 56.499)" fill="#375a64"/>
        <path id="Fill_221" data-name="Fill 221" d="M.055,0,.409.2V6.6l-.355-.2Z" transform="translate(48.5 57.578)" fill="#375a64"/>
        <path id="Fill_223" data-name="Fill 223" d="M.143,0,.321.1V6.494l-.177-.1Z" transform="translate(49.234 58.046)" fill="#375a64"/>
        <path id="Fill_225" data-name="Fill 225" d="M.143,0,.321.1V6.494l-.177-.1Z" transform="translate(47.753 57.23)" fill="#375a64"/>
        <path id="Fill_227" data-name="Fill 227" d="M.144,0,.32.1V6.494l-.177-.1Z" transform="translate(44.847 55.528)" fill="#375a64"/>
        <path id="Fill_229" data-name="Fill 229" d="M.143,0,.321.1V6.493l-.177-.1Z" transform="translate(43.256 54.614)" fill="#375a64"/>
        <path id="Fill_231" data-name="Fill 231" d="M.143,0,.321.1V6.494l-.177-.1Z" transform="translate(42.113 53.983)" fill="#375a64"/>
        <path id="Fill_233" data-name="Fill 233" d="M.143,0,.321.1V6.494l-.177-.1Z" transform="translate(40.562 53.042)" fill="#375a64"/>
        <path id="Fill_235" data-name="Fill 235" d="M.055,0,.409.2V6.6l-.355-.2Z" transform="translate(49.942 58.411)" fill="#375a64"/>
        <path id="Fill_239" data-name="Fill 239" d="M0,19.593,33.936,0,73.528,22.858,39.592,42.451Z" transform="translate(35.607 0.403)" fill="#00dfbf"/>
        <path id="Fill_241" data-name="Fill 241" d="M0,19.593,33.936,0,73.528,22.858,39.592,42.451Z" transform="translate(35.607 0.403)" fill="#fecb94"/>
        <path id="Fill_243" data-name="Fill 243" d="M13.78.071,25.007,6.538c.2.117.149.339-.122.5L12.21,14.352a.97.97,0,0,1-.858.071L.122,7.952c-.2-.117-.148-.339.123-.5L12.922.141A.972.972,0,0,1,13.78.071" transform="translate(39.718 12.277)" fill="#fafafa"/>
        <path id="Fill_245" data-name="Fill 245" d="M.232,6.539a.232.232,0,0,1-.116-.433L10.638.032a.232.232,0,1,1,.232.4L.348,6.508a.229.229,0,0,1-.116.031" transform="translate(47.595 16.815)" fill="#e1e1e1"/>
        <path id="Fill_247" data-name="Fill 247" d="M.232,6.539a.232.232,0,0,1-.116-.433L10.638.032a.232.232,0,1,1,.232.4L.348,6.508a.229.229,0,0,1-.116.031" transform="translate(48.764 17.484)" fill="#e1e1e1"/>
        <path id="Fill_249" data-name="Fill 249" d="M.232,6.539a.232.232,0,0,1-.116-.433L10.638.031a.232.232,0,1,1,.232.4L.348,6.508a.229.229,0,0,1-.116.031" transform="translate(49.932 18.153)" fill="#e1e1e1"/>
        <path id="Fill_251" data-name="Fill 251" d="M.232,6.539a.232.232,0,0,1-.116-.433L10.638.032a.232.232,0,1,1,.232.4L.348,6.508a.229.229,0,0,1-.116.031" transform="translate(51.1 18.823)" fill="#e1e1e1"/>
        <path id="Fill_253" data-name="Fill 253" d="M0,.236.409,0,5.2,2.768,4.794,3Z" transform="translate(40.902 19.7)" fill="#875b37"/>
        <path id="Fill_255" data-name="Fill 255" d="M0,.4.71,0,5.5,2.768l-.71.4Z" transform="translate(42.567 18.57)" fill="#875b37"/>
        <path id="Fill_257" data-name="Fill 257" d="M0,.236.409,0,5.2,2.768,4.794,3Z" transform="translate(44.233 17.776)" fill="#875b37"/>
        <path id="Fill_259" data-name="Fill 259" d="M0,.468.828,0,5.621,2.768l-.827.468Z" transform="translate(45.48 16.814)" fill="#875b37"/>
        <path id="Fill_261" data-name="Fill 261" d="M0,.236.41,0,5.2,2.768,4.794,3Z" transform="translate(47.564 15.852)" fill="#875b37"/>
        <path id="Fill_263" data-name="Fill 263" d="M0,.5.885,0,5.679,2.768l-.886.5Z" transform="translate(48.754 14.89)" fill="#875b37"/>
        <path id="Fill_265" data-name="Fill 265" d="M0,.236.409,0,5.2,2.768,4.793,3Z" transform="translate(50.895 13.928)" fill="#875b37"/>
        <path id="Fill_267" data-name="Fill 267" d="M0,.118.2,0,5,2.768l-.2.118Z" transform="translate(51.841 13.495)" fill="#875b37"/>
        <path id="Fill_269" data-name="Fill 269" d="M0,.118.2,0,5,2.768l-.205.118Z" transform="translate(50.16 14.498)" fill="#875b37"/>
        <path id="Fill_271" data-name="Fill 271" d="M0,.118.2,0,5,2.767l-.2.118Z" transform="translate(46.786 16.426)" fill="#875b37"/>
        <path id="Fill_273" data-name="Fill 273" d="M0,.118.2,0,5,2.768l-.2.118Z" transform="translate(44.952 17.489)" fill="#875b37"/>
        <path id="Fill_275" data-name="Fill 275" d="M0,.118.2,0,5,2.767l-.2.118Z" transform="translate(43.654 18.264)" fill="#875b37"/>
        <path id="Fill_277" data-name="Fill 277" d="M0,.118.2,0,5,2.767l-.2.118Z" transform="translate(41.829 19.277)" fill="#875b37"/>
        <path id="Fill_279" data-name="Fill 279" d="M0,.236.409,0,5.2,2.768,4.793,3Z" transform="translate(52.561 12.966)" fill="#875b37"/>
        <path id="Fill_281" data-name="Fill 281" d="M39.592,35.92,0,13.062V0L39.592,22.858Z" transform="translate(35.607 19.996)" fill="#00dfbf"/>
        <path id="Fill_283" data-name="Fill 283" d="M39.592,35.92,0,13.062V0L39.592,22.858Z" transform="translate(35.607 19.996)" fill="#aa7445"/>
        <path id="Fill_285" data-name="Fill 285" d="M0,32.655,33.936,13.062V0L0,19.593Z" transform="translate(75.2 23.262)" fill="#00dfbf"/>
        <path id="Fill_287" data-name="Fill 287" d="M0,32.655,33.936,13.062V0L0,19.593Z" transform="translate(75.2 23.262)" fill="#cc955d"/>
        <path id="Fill_289" data-name="Fill 289" d="M2.744,4.259,0,5.844V1.585L2.744,0Z" transform="translate(92.943 30.985)" fill="#875b37"/>
        <path id="Fill_291" data-name="Fill 291" d="M39.592,24.444,0,1.585,2.744,0,42.337,22.858Z" transform="translate(53.351 8.126)" fill="#875b37"/>
        <path id="Fill_293" data-name="Fill 293" d="M1.419,4.82A.88.88,0,0,1,.98,4.69,2.3,2.3,0,0,1,0,2.836V0L1.99,1.169l.131-.023V3.876a.949.949,0,0,1-.39.861A.617.617,0,0,1,1.419,4.82ZM.319,2.628v.208A2.012,2.012,0,0,0,1.14,4.414a.574.574,0,0,0,.278.087.3.3,0,0,0,.153-.04A.65.65,0,0,0,1.8,3.876V1.526l-.6.107-.146.995Zm0-2.071V2.309h.46l.14-.95.588-.1Z" transform="translate(58.74 37.816)" fill="#875b37"/>
        <path id="Fill_295" data-name="Fill 295" d="M.232,2.452a.16.16,0,0,0,.16-.16V.16a.16.16,0,0,0-.319,0V2.292a.16.16,0,0,0,.16.16" transform="translate(59.568 42.208)" fill="#875b37"/>
        <path id="Fill_297" data-name="Fill 297" d="M2.013,1.39a.16.16,0,0,0,.08-.3L.239.022A.157.157,0,0,0,.022.081.159.159,0,0,0,.08.3l1.854,1.07a.156.156,0,0,0,.08.022" transform="translate(58.713 43.804)" fill="#875b37"/>
        <path id="Fill_299" data-name="Fill 299" d="M.7,4.066a.351.351,0,0,0,.175-.045.422.422,0,0,0,.191-.384V3.2a.16.16,0,0,0-.319,0v.438c0,.065-.018.1-.031.107s-.05,0-.1-.027A.94.94,0,0,1,.319,3V.16A.16.16,0,0,0,0,.16V3a1.213,1.213,0,0,0,.453,1A.5.5,0,0,0,.7,4.066" transform="translate(65.577 44.424)" fill="#875b37"/>
        <path id="Fill_301" data-name="Fill 301" d="M4.243,4.1h0L0,1.653V1.561A1.528,1.528,0,0,1,.654.153,1.158,1.158,0,0,1,1.244,0,1.938,1.938,0,0,1,2.2.29,4.519,4.519,0,0,1,4.243,3.827V4.1Zm-3-3.784a.845.845,0,0,0-.431.11A1.182,1.182,0,0,0,.321,1.47L3.909,3.541A4.221,4.221,0,0,0,2.042.567,1.613,1.613,0,0,0,1.246.319Z" transform="translate(63.72 41.907)" fill="#875b37"/>
        <path id="Fill_303" data-name="Fill 303" d="M.232,5.751a.16.16,0,0,0,.16-.16V.16a.16.16,0,1,0-.319,0V5.591a.16.16,0,0,0,.16.16" transform="translate(72.465 46.319)" fill="#875b37"/>
        <path id="Fill_305" data-name="Fill 305" d="M1.094,1.535a.159.159,0,0,0,.146-.223L.673,0,.039.732A.158.158,0,0,0,.055.956.16.16,0,0,0,.28.94l.3-.348.367.846a.159.159,0,0,0,.146.1" transform="translate(72.07 46.183)" fill="#875b37"/>
        <path id="Fill_307" data-name="Fill 307" d="M.232,5.751a.16.16,0,0,0,.16-.16V.16a.16.16,0,1,0-.32,0V5.591a.16.16,0,0,0,.16.16" transform="translate(70.989 45.477)" fill="#875b37"/>
        <path id="Fill_309" data-name="Fill 309" d="M1.094,1.535a.154.154,0,0,0,.064-.013.159.159,0,0,0,.083-.21L.673,0,.04.732A.159.159,0,0,0,.055.957.16.16,0,0,0,.28.94l.3-.348.367.847a.158.158,0,0,0,.146.1" transform="translate(70.594 45.341)" fill="#875b37"/>
        <path id="Fill_311" data-name="Fill 311" d="M11.825,7.135v7.031c0,.271-.19.381-.425.245L.425,8.074A.94.94,0,0,1,0,7.338V.3C0,.032.19-.077.425.058L11.4,6.4a.939.939,0,0,1,.425.736" transform="translate(36.68 23.385)" fill="#fafafa"/>
        <path id="Fill_313" data-name="Fill 313" d="M.055,0,.409.2V6.6l-.354-.2Z" transform="translate(37.305 24.45)" fill="#aa7445"/>
        <path id="Fill_315" data-name="Fill 315" d="M0,0,.611.359V6.75L0,6.391Z" transform="translate(38.803 25.282)" fill="#aa7445"/>
        <path id="Fill_317" data-name="Fill 317" d="M.055,0,.41.2V6.6l-.355-.2Z" transform="translate(40.191 26.115)" fill="#aa7445"/>
        <path id="Fill_319" data-name="Fill 319" d="M0,0,.709.421V6.812L0,6.391Z" transform="translate(41.333 26.732)" fill="#aa7445"/>
        <path id="Fill_321" data-name="Fill 321" d="M.055,0,.41.2V6.6l-.355-.2Z" transform="translate(43.076 27.78)" fill="#aa7445"/>
        <path id="Fill_323" data-name="Fill 323" d="M0,0,.758.451V6.842L0,6.391Z" transform="translate(44.17 28.367)" fill="#aa7445"/>
        <path id="Fill_325" data-name="Fill 325" d="M.055,0,.409.2V6.6l-.355-.2Z" transform="translate(45.961 29.445)" fill="#aa7445"/>
        <path id="Fill_327" data-name="Fill 327" d="M.143,0,.321.1V6.494l-.177-.1Z" transform="translate(46.696 29.914)" fill="#aa7445"/>
        <path id="Fill_329" data-name="Fill 329" d="M.143,0,.321.1V6.494l-.177-.1Z" transform="translate(45.215 29.097)" fill="#aa7445"/>
        <path id="Fill_331" data-name="Fill 331" d="M.143,0,.321.1V6.494l-.177-.1Z" transform="translate(42.309 27.395)" fill="#aa7445"/>
        <path id="Fill_333" data-name="Fill 333" d="M.143,0,.321.1V6.494l-.177-.1Z" transform="translate(40.717 26.482)" fill="#aa7445"/>
        <path id="Fill_335" data-name="Fill 335" d="M.143,0,.321.1V6.494l-.177-.1Z" transform="translate(39.574 25.85)" fill="#aa7445"/>
        <path id="Fill_337" data-name="Fill 337" d="M.143,0,.321.1V6.494l-.177-.1Z" transform="translate(38.024 24.909)" fill="#aa7445"/>
        <path id="Fill_339" data-name="Fill 339" d="M.055,0,.409.2V6.6l-.355-.2Z" transform="translate(47.404 30.278)" fill="#aa7445"/>
        <path id="Fill_341" data-name="Fill 341" d="M54.219,13.377,23.21,31.259,0,17.842,31.08,0Z" transform="translate(0.302 95.778)" fill="#533720"/>
        <path id="Fill_343" data-name="Fill 343" d="M0,16.327,28.28,0,49.018,11.973,20.738,28.3Z" transform="translate(3.133 40.14)" fill="#00dfbf"/>
        <path id="Fill_345" data-name="Fill 345" d="M0,16.327,28.28,0,49.018,11.973,20.738,28.3Z" transform="translate(3.133 40.14)" fill="#fecb94"/>
        <path id="Fill_347" data-name="Fill 347" d="M8.775.055l-8.68,5c-.157.091-.114.262.1.383l9.8,5.658a.751.751,0,0,0,.663.055l8.682-5c.157-.091.115-.262-.095-.382L9.439.109A.75.75,0,0,0,8.775.055" transform="translate(22.363 42.431)" fill="#fafafa"/>
        <path id="Fill_349" data-name="Fill 349" d="M8.315,5.056a.179.179,0,0,0,.09-.335L.269.024A.18.18,0,0,0,.09.335l8.135,4.7a.179.179,0,0,0,.09.024" transform="translate(27.207 45.939)" fill="#e1e1e1"/>
        <path id="Fill_351" data-name="Fill 351" d="M8.315,5.056a.179.179,0,0,0,.09-.335L.269.024A.179.179,0,0,0,.09.335l8.135,4.7a.179.179,0,0,0,.09.024" transform="translate(26.304 46.457)" fill="#e1e1e1"/>
        <path id="Fill_353" data-name="Fill 353" d="M8.315,5.056a.179.179,0,0,0,.09-.335L.269.024A.179.179,0,1,0,.09.335l8.135,4.7a.179.179,0,0,0,.09.024" transform="translate(25.401 46.974)" fill="#e1e1e1"/>
        <path id="Fill_355" data-name="Fill 355" d="M8.315,5.056a.179.179,0,0,0,.09-.335L.269.025A.179.179,0,0,0,.09.335l8.135,4.7a.179.179,0,0,0,.09.024" transform="translate(24.497 47.492)" fill="#e1e1e1"/>
        <path id="Fill_357" data-name="Fill 357" d="M4.023.183,3.706,0,0,2.14l.317.182Z" transform="translate(36.854 48.17)" fill="#875b37"/>
        <path id="Fill_359" data-name="Fill 359" d="M4.255.313,3.706,0,0,2.14l.549.313Z" transform="translate(35.333 47.297)" fill="#875b37"/>
        <path id="Fill_361" data-name="Fill 361" d="M4.022.183,3.706,0,0,2.14l.316.183Z" transform="translate(34.278 46.683)" fill="#875b37"/>
        <path id="Fill_363" data-name="Fill 363" d="M4.346.362,3.706,0,0,2.14.64,2.5Z" transform="translate(32.99 45.939)" fill="#875b37"/>
        <path id="Fill_365" data-name="Fill 365" d="M4.023.183,3.706,0,0,2.14l.317.182Z" transform="translate(31.703 45.195)" fill="#875b37"/>
        <path id="Fill_367" data-name="Fill 367" d="M4.39.387,3.706,0,0,2.14l.684.387Z" transform="translate(30.415 44.452)" fill="#875b37"/>
        <path id="Fill_369" data-name="Fill 369" d="M4.022.183,3.706,0,0,2.14l.317.182Z" transform="translate(29.127 43.708)" fill="#875b37"/>
        <path id="Fill_371" data-name="Fill 371" d="M3.864.091,3.706,0,0,2.14l.158.091Z" transform="translate(28.555 43.372)" fill="#875b37"/>
        <path id="Fill_373" data-name="Fill 373" d="M3.864.091,3.706,0,0,2.14l.158.091Z" transform="translate(29.854 44.149)" fill="#875b37"/>
        <path id="Fill_375" data-name="Fill 375" d="M3.864.091,3.706,0,0,2.14l.158.091Z" transform="translate(32.463 45.639)" fill="#875b37"/>
        <path id="Fill_377" data-name="Fill 377" d="M3.864.091,3.706,0,0,2.14l.158.091Z" transform="translate(33.881 46.461)" fill="#875b37"/>
        <path id="Fill_379" data-name="Fill 379" d="M3.864.091,3.706,0,0,2.14l.158.091Z" transform="translate(34.884 47.059)" fill="#875b37"/>
        <path id="Fill_381" data-name="Fill 381" d="M3.864.091,3.706,0,0,2.14l.158.091Z" transform="translate(36.295 47.843)" fill="#875b37"/>
        <path id="Fill_383" data-name="Fill 383" d="M4.022.183,3.706,0,0,2.14l.316.182Z" transform="translate(27.84 42.964)" fill="#875b37"/>
        <path id="Fill_385" data-name="Fill 385" d="M20.738,68.584,0,56.611V0L20.738,11.973Z" transform="translate(3.133 56.467)" fill="#00dfbf"/>
        <path id="Fill_387" data-name="Fill 387" d="M20.738,68.584,0,56.611V0L20.738,11.973Z" transform="translate(3.133 56.467)" fill="#cc955d"/>
        <path id="Fill_389" data-name="Fill 389" d="M0,72.938,28.28,56.611V0L0,16.327Z" transform="translate(23.872 52.113)" fill="#00dfbf"/>
        <path id="Fill_391" data-name="Fill 391" d="M0,72.938,28.28,56.611V0L0,16.327Z" transform="translate(23.872 52.113)" fill="#aa7445"/>
        <path id="Fill_393" data-name="Fill 393" d="M2.745,4.259,0,5.844V1.585L2.745,0Z" transform="translate(36.21 59.733)" fill="#875b37"/>
        <path id="Fill_395" data-name="Fill 395" d="M20.738,13.558,0,1.585,2.744,0,23.483,11.973Z" transform="translate(15.471 47.759)" fill="#875b37"/>
        <path id="Fill_397" data-name="Fill 397" d="M1.419,4.82A.872.872,0,0,1,.98,4.689,2.292,2.292,0,0,1,0,2.836V0L1.99,1.169l.13-.023V3.876a.949.949,0,0,1-.389.861A.617.617,0,0,1,1.419,4.82ZM.319,2.628v.208A2.01,2.01,0,0,0,1.14,4.414a.574.574,0,0,0,.278.087.3.3,0,0,0,.153-.04A.651.651,0,0,0,1.8,3.876V1.526l-.6.107-.146.995Zm0-2.071V2.309H.779l.14-.95.587-.105Z" transform="translate(7.412 106.951)" fill="#875b37"/>
        <path id="Fill_399" data-name="Fill 399" d="M.232,2.452a.16.16,0,0,0,.16-.16V.16a.16.16,0,0,0-.319,0V2.292a.16.16,0,0,0,.16.16" transform="translate(8.24 111.343)" fill="#875b37"/>
        <path id="Fill_401" data-name="Fill 401" d="M2.014,1.39a.16.16,0,0,0,.08-.3L.24.022A.157.157,0,0,0,.022.081.159.159,0,0,0,.08.3l1.854,1.07a.156.156,0,0,0,.08.022" transform="translate(7.385 112.939)" fill="#875b37"/>
        <path id="Fill_403" data-name="Fill 403" d="M.7,4.066a.348.348,0,0,0,.175-.045.421.421,0,0,0,.191-.384V3.2a.16.16,0,0,0-.319,0v.438c0,.065-.018.1-.031.107s-.05,0-.1-.027A.94.94,0,0,1,.319,3V.16A.16.16,0,0,0,0,.16V3a1.214,1.214,0,0,0,.453,1A.5.5,0,0,0,.7,4.066" transform="translate(14.25 113.559)" fill="#875b37"/>
        <path id="Fill_405" data-name="Fill 405" d="M4.243,4.1h0L0,1.653V1.561A1.528,1.528,0,0,1,.654.153,1.158,1.158,0,0,1,1.244,0,1.938,1.938,0,0,1,2.2.29,4.519,4.519,0,0,1,4.243,3.827V4.1Zm-3-3.784a.847.847,0,0,0-.432.11A1.187,1.187,0,0,0,.32,1.47L3.908,3.541A4.213,4.213,0,0,0,2.042.567,1.619,1.619,0,0,0,1.246.319Z" transform="translate(12.393 111.043)" fill="#875b37"/>
        <path id="Fill_407" data-name="Fill 407" d="M.232,5.751a.16.16,0,0,0,.16-.16V.16a.16.16,0,1,0-.319,0V5.591a.16.16,0,0,0,.16.16" transform="translate(21.138 115.454)" fill="#875b37"/>
        <path id="Fill_409" data-name="Fill 409" d="M1.094,1.535a.159.159,0,0,0,.146-.223L.673,0,.039.732A.158.158,0,0,0,.055.956.16.16,0,0,0,.281.94l.3-.348.367.846a.159.159,0,0,0,.146.1" transform="translate(20.742 115.318)" fill="#875b37"/>
        <path id="Fill_411" data-name="Fill 411" d="M.232,5.751a.16.16,0,0,0,.159-.16V.16a.159.159,0,1,0-.319,0V5.591a.16.16,0,0,0,.16.16" transform="translate(19.661 114.613)" fill="#875b37"/>
        <path id="Fill_413" data-name="Fill 413" d="M1.094,1.535a.153.153,0,0,0,.063-.013.159.159,0,0,0,.083-.21L.673,0,.039.731A.159.159,0,0,0,.28.94l.3-.348.367.846a.159.159,0,0,0,.146.1" transform="translate(19.267 114.476)" fill="#875b37"/>
        <path id="Fill_415" data-name="Fill 415" d="M11.825,7.135v7.031c0,.271-.19.381-.425.245L.425,8.074A.939.939,0,0,1,0,7.338V.3C0,.033.191-.077.425.058L11.4,6.4a.94.94,0,0,1,.425.736" transform="translate(10.161 96.736)" fill="#fafafa"/>
        <path id="Fill_417" data-name="Fill 417" d="M.055,0,.409.2V6.6l-.354-.2Z" transform="translate(10.786 97.801)" fill="#875b37"/>
        <path id="Fill_419" data-name="Fill 419" d="M0,0,.611.359V6.75L0,6.392Z" transform="translate(12.283 98.633)" fill="#875b37"/>
        <path id="Fill_421" data-name="Fill 421" d="M.055,0,.409.2V6.6l-.355-.2Z" transform="translate(13.671 99.466)" fill="#875b37"/>
        <path id="Fill_423" data-name="Fill 423" d="M0,0,.709.421V6.812L0,6.391Z" transform="translate(14.814 100.083)" fill="#875b37"/>
        <path id="Fill_425" data-name="Fill 425" d="M.055,0,.409.2V6.6l-.354-.2Z" transform="translate(16.557 101.131)" fill="#875b37"/>
        <path id="Fill_427" data-name="Fill 427" d="M0,0,.758.451V6.842L0,6.391Z" transform="translate(17.65 101.717)" fill="#875b37"/>
        <path id="Fill_429" data-name="Fill 429" d="M.055,0,.409.2V6.6l-.354-.2Z" transform="translate(19.442 102.796)" fill="#875b37"/>
        <path id="Fill_431" data-name="Fill 431" d="M.143,0,.321.1V6.494l-.177-.1Z" transform="translate(20.177 103.264)" fill="#875b37"/>
        <path id="Fill_433" data-name="Fill 433" d="M.143,0,.321.1V6.494l-.177-.1Z" transform="translate(18.696 102.448)" fill="#875b37"/>
        <path id="Fill_435" data-name="Fill 435" d="M.144,0,.32.1V6.493l-.177-.1Z" transform="translate(15.79 100.746)" fill="#875b37"/>
        <path id="Fill_437" data-name="Fill 437" d="M.143,0,.321.1V6.494l-.177-.1Z" transform="translate(14.198 99.832)" fill="#875b37"/>
        <path id="Fill_439" data-name="Fill 439" d="M.144,0,.32.1V6.494l-.177-.1Z" transform="translate(13.055 99.201)" fill="#875b37"/>
        <path id="Fill_441" data-name="Fill 441" d="M.143,0,.321.1V6.494l-.177-.1Z" transform="translate(11.505 98.26)" fill="#875b37"/>
        <path id="Fill_443" data-name="Fill 443" d="M.055,0,.409.2V6.6l-.354-.2Z" transform="translate(20.885 103.629)" fill="#875b37"/>
        <path id="Fill_445" data-name="Fill 445" d="M54.818,13.672,23.808,31.553,0,17.842,31.079,0Z" transform="translate(25.062 110.109)" fill="#533720"/>
        <path id="Fill_447" data-name="Fill 447" d="M0,16.327,28.28,0,49.018,11.973,20.738,28.3Z" transform="translate(28.662 83.943)" fill="#00dfbf"/>
        <path id="Fill_449" data-name="Fill 449" d="M0,16.327,28.28,0,49.018,11.973,20.738,28.3Z" transform="translate(28.662 83.943)" fill="#fecb94"/>
        <path id="Fill_451" data-name="Fill 451" d="M8.775.055l-8.68,5c-.157.091-.115.262.095.383l9.8,5.658a.752.752,0,0,0,.664.055l8.682-5c.157-.091.115-.262-.095-.383L9.438.109A.75.75,0,0,0,8.775.055" transform="translate(47.892 86.235)" fill="#fafafa"/>
        <path id="Fill_453" data-name="Fill 453" d="M8.314,5.056a.179.179,0,0,0,.09-.335L.269.024A.179.179,0,1,0,.09.335l8.135,4.7a.18.18,0,0,0,.09.024" transform="translate(52.736 89.743)" fill="#e1e1e1"/>
        <path id="Fill_455" data-name="Fill 455" d="M8.315,5.056a.179.179,0,0,0,.09-.335L.269.024A.179.179,0,0,0,.09.335l8.135,4.7a.18.18,0,0,0,.09.024" transform="translate(51.832 90.26)" fill="#e1e1e1"/>
        <path id="Fill_457" data-name="Fill 457" d="M8.315,5.055a.179.179,0,0,0,.09-.335L.269.024A.179.179,0,0,0,.09.335l8.135,4.7a.178.178,0,0,0,.09.024" transform="translate(50.929 90.778)" fill="#e1e1e1"/>
        <path id="Fill_459" data-name="Fill 459" d="M8.315,5.056a.179.179,0,0,0,.09-.335L.269.024a.179.179,0,0,0-.18.311l8.136,4.7a.178.178,0,0,0,.09.024" transform="translate(50.026 91.295)" fill="#e1e1e1"/>
        <path id="Fill_461" data-name="Fill 461" d="M4.022.183,3.706,0,0,2.14l.317.183Z" transform="translate(62.382 91.974)" fill="#875b37"/>
        <path id="Fill_463" data-name="Fill 463" d="M4.255.313,3.706,0,0,2.14l.55.312Z" transform="translate(60.862 91.1)" fill="#875b37"/>
        <path id="Fill_465" data-name="Fill 465" d="M4.022.183,3.705,0,0,2.14l.317.182Z" transform="translate(59.807 90.486)" fill="#875b37"/>
        <path id="Fill_467" data-name="Fill 467" d="M4.345.362,3.706,0,0,2.14.64,2.5Z" transform="translate(58.519 89.742)" fill="#875b37"/>
        <path id="Fill_469" data-name="Fill 469" d="M4.022.183,3.705,0,0,2.14l.316.182Z" transform="translate(57.232 88.998)" fill="#875b37"/>
        <path id="Fill_471" data-name="Fill 471" d="M4.391.387,3.706,0,0,2.14l.685.387Z" transform="translate(55.943 88.255)" fill="#875b37"/>
        <path id="Fill_473" data-name="Fill 473" d="M4.022.183,3.706,0,0,2.14l.317.182Z" transform="translate(54.656 87.511)" fill="#875b37"/>
        <path id="Fill_475" data-name="Fill 475" d="M3.864.091,3.706,0,0,2.14l.158.091Z" transform="translate(54.083 87.176)" fill="#875b37"/>
        <path id="Fill_477" data-name="Fill 477" d="M3.864.091,3.706,0,0,2.14l.158.091Z" transform="translate(55.383 87.952)" fill="#875b37"/>
        <path id="Fill_479" data-name="Fill 479" d="M3.864.091,3.706,0,0,2.14l.158.091Z" transform="translate(57.992 89.442)" fill="#875b37"/>
        <path id="Fill_481" data-name="Fill 481" d="M3.864.091,3.706,0,0,2.14l.158.091Z" transform="translate(59.409 90.264)" fill="#875b37"/>
        <path id="Fill_483" data-name="Fill 483" d="M3.864.091,3.706,0,0,2.14l.158.091Z" transform="translate(60.413 90.863)" fill="#875b37"/>
        <path id="Fill_485" data-name="Fill 485" d="M3.864.091,3.706,0,0,2.14l.158.091Z" transform="translate(61.824 91.646)" fill="#875b37"/>
        <path id="Fill_487" data-name="Fill 487" d="M4.022.183,3.706,0,0,2.14l.317.182Z" transform="translate(53.368 86.767)" fill="#875b37"/>
        <path id="Fill_489" data-name="Fill 489" d="M20.738,39.52,0,27.546V0L20.738,11.973Z" transform="translate(28.662 100.27)" fill="#00dfbf"/>
        <path id="Fill_491" data-name="Fill 491" d="M20.738,39.52,0,27.546V0L20.738,11.973Z" transform="translate(28.662 100.27)" fill="#cc955d"/>
        <path id="Fill_493" data-name="Fill 493" d="M0,43.874,28.28,27.546V0L0,16.327Z" transform="translate(49.4 95.917)" fill="#00dfbf"/>
        <path id="Fill_495" data-name="Fill 495" d="M0,43.874,28.28,27.546V0L0,16.327Z" transform="translate(49.4 95.917)" fill="#aa7445"/>
        <path id="Fill_497" data-name="Fill 497" d="M2.744,4.259,0,5.844V1.585L2.744,0Z" transform="translate(61.738 103.536)" fill="#875b37"/>
        <path id="Fill_499" data-name="Fill 499" d="M20.738,13.558,0,1.585,2.744,0,23.483,11.973Z" transform="translate(41 91.563)" fill="#875b37"/>
        <path id="Fill_501" data-name="Fill 501" d="M.485,3.175a.444.444,0,0,1-.216-.054A.615.615,0,0,1,0,2.553V.755L.089.77,1.467,0V1.868A1.5,1.5,0,0,1,.788,3.09.642.642,0,0,1,.485,3.175ZM.221,1.005V2.553a.42.42,0,0,0,.158.385.219.219,0,0,0,.106.026.412.412,0,0,0,.193-.058,1.306,1.306,0,0,0,.568-1.039V1.732H.736l-.1-.655ZM1.246.366.424.826.832.9l.1.626h.319Z" transform="translate(74.603 117.638)" fill="#875b37"/>
        <path id="Fill_503" data-name="Fill 503" d="M.232,1.615a.105.105,0,0,1-.105-.105V.1A.105.105,0,0,1,.337.1v1.4a.105.105,0,0,1-.105.105" transform="translate(75.069 120.532)" fill="#875b37"/>
        <path id="Fill_505" data-name="Fill 505" d="M.105.916A.105.105,0,0,1,.053.72l1.222-.7a.1.1,0,0,1,.143.038A.1.1,0,0,1,1.379.2L.158.9A.1.1,0,0,1,.105.916" transform="translate(74.585 121.583)" fill="#875b37"/>
        <path id="Fill_507" data-name="Fill 507" d="M.241,2.679a.23.23,0,0,1-.115-.03A.278.278,0,0,1,0,2.4V2.108a.105.105,0,1,1,.211,0V2.4c0,.043.012.066.02.071s.033,0,.068-.018a.619.619,0,0,0,.2-.475V.1a.105.105,0,0,1,.21,0V1.973a.8.8,0,0,1-.3.656.327.327,0,0,1-.165.049" transform="translate(70.79 121.992)" fill="#875b37"/>
        <path id="Fill_509" data-name="Fill 509" d="M0,2.7V2.521A2.978,2.978,0,0,1,1.345.191,1.281,1.281,0,0,1,1.976,0a.759.759,0,0,1,.388.1,1.006,1.006,0,0,1,.432.928v.06L0,2.7ZM1.975.211A1.067,1.067,0,0,0,1.45.374,2.777,2.777,0,0,0,.221,2.333L2.583.968A.775.775,0,0,0,2.258.284.544.544,0,0,0,1.975.211Z" transform="translate(69.924 120.334)" fill="#875b37"/>
        <path id="Fill_511" data-name="Fill 511" d="M.232,3.788a.105.105,0,0,1-.105-.105V.1A.105.105,0,0,1,.337.1V3.683a.105.105,0,0,1-.105.105" transform="translate(66.572 123.24)" fill="#875b37"/>
        <path id="Fill_513" data-name="Fill 513" d="M.105,1.011A.1.1,0,0,1,.064,1,.1.1,0,0,1,.009.864L.383,0,.8.482A.105.105,0,1,1,.641.62L.443.391.2.948a.1.1,0,0,1-.1.064" transform="translate(66.392 123.15)" fill="#875b37"/>
        <path id="Fill_515" data-name="Fill 515" d="M.232,3.789a.105.105,0,0,1-.1-.105V.1a.105.105,0,0,1,.21,0V3.683a.105.105,0,0,1-.105.105" transform="translate(67.545 122.686)" fill="#875b37"/>
        <path id="Fill_517" data-name="Fill 517" d="M.1,1.011a.105.105,0,0,1-.1-.147L.383,0,.8.482A.105.105,0,1,1,.641.62L.443.39.2.948a.1.1,0,0,1-.1.063" transform="translate(67.364 122.596)" fill="#875b37"/>
        <path id="Fill_519" data-name="Fill 519" d="M0,7.135v7.031c0,.271.19.381.425.245L11.4,8.074a.939.939,0,0,0,.425-.736V.3c0-.271-.19-.381-.425-.245L.425,6.4A.94.94,0,0,0,0,7.135" transform="translate(51.628 121.273)" fill="#fafafa"/>
        <path id="Fill_521" data-name="Fill 521" d="M.409,0,.055.2V6.6l.355-.2Z" transform="translate(62.365 122.338)" fill="#875b37"/>
        <path id="Fill_523" data-name="Fill 523" d="M.611,0,0,.359V6.75l.61-.359Z" transform="translate(60.721 123.17)" fill="#875b37"/>
        <path id="Fill_525" data-name="Fill 525" d="M.409,0,.055.2V6.6l.355-.2Z" transform="translate(59.48 124.003)" fill="#875b37"/>
        <path id="Fill_527" data-name="Fill 527" d="M.709,0,0,.421V6.812l.709-.421Z" transform="translate(58.092 124.62)" fill="#875b37"/>
        <path id="Fill_529" data-name="Fill 529" d="M.409,0,.055.2V6.6l.355-.2Z" transform="translate(56.594 125.668)" fill="#875b37"/>
        <path id="Fill_531" data-name="Fill 531" d="M.758,0,0,.451V6.842l.758-.451Z" transform="translate(55.206 126.254)" fill="#875b37"/>
        <path id="Fill_533" data-name="Fill 533" d="M.409,0,.055.2V6.6l.355-.2Z" transform="translate(53.709 127.333)" fill="#875b37"/>
        <path id="Fill_535" data-name="Fill 535" d="M.321,0,.143.1V6.494l.177-.1Z" transform="translate(52.974 127.801)" fill="#875b37"/>
        <path id="Fill_537" data-name="Fill 537" d="M.321,0,.143.1V6.494l.177-.1Z" transform="translate(54.455 126.985)" fill="#875b37"/>
        <path id="Fill_539" data-name="Fill 539" d="M.321,0,.143.1V6.494l.177-.1Z" transform="translate(57.361 125.283)" fill="#875b37"/>
        <path id="Fill_541" data-name="Fill 541" d="M.321,0,.143.1V6.494l.177-.1Z" transform="translate(58.953 124.369)" fill="#875b37"/>
        <path id="Fill_543" data-name="Fill 543" d="M.32,0,.143.1V6.494l.177-.1Z" transform="translate(60.096 123.738)" fill="#875b37"/>
        <path id="Fill_545" data-name="Fill 545" d="M.321,0,.143.1V6.494l.177-.1Z" transform="translate(61.646 122.797)" fill="#875b37"/>
        <path id="Fill_547" data-name="Fill 547" d="M.409,0,.055.2V6.6l.355-.2Z" transform="translate(52.266 128.166)" fill="#875b37"/>
      </g>
      <g id="Group_686" data-name="Group 686" transform="translate(24.135 3.398)">
        <path id="Fill_550" data-name="Fill 550" d="M10.583,27.291C10.734,24.828,12.055,0,12.055,0L0,8.51C2.106,22.7,2.568,26.98,2.658,29.348a1.991,1.991,0,0,0-.056.608c.065,2.813,3.432,4.282,6.073,6.119A49.164,49.164,0,0,0,15.8,40.345c1.909.877,5.754.9,6.209-.26-3.214-2.255-6.931-4.717-9.5-7.308a6.175,6.175,0,0,1-1.928-5.486" transform="translate(26.712 128.968)" fill="#ffaea1"/>
        <path id="Fill_552" data-name="Fill 552" d="M26.272,6a2.311,2.311,0,0,1-.429,2.433,11.286,11.286,0,0,1-7.93,1.835,14.3,14.3,0,0,1-7.729-2.8c-1.6-1.236-3.855-2.979-5.65-3.328A11.176,11.176,0,0,1,.508,2.651C-.032,2.171,0,0,0,0Z" transform="translate(27.913 166.001)" fill="#16152f"/>
        <path id="Fill_554" data-name="Fill 554" d="M1.435,0A.626.626,0,0,0,.847.516c-.11.6-.209,2.34-.452,3.325A16.687,16.687,0,0,0,.107,9.118c.239,1.108,2.961,1.842,4.7,2.444a22.368,22.368,0,0,1,5.668,3.285,16.9,16.9,0,0,0,8.4,2.834c3.934,0,6.461-1.052,7.222-2.407.941-1.676.161-2.628-4.4-4.555-.862-.364-3.9-2.012-4.935-2.611-2.8-1.618-5.591-3.887-6.921-6.8A1.651,1.651,0,0,0,9.177.418,1.513,1.513,0,0,0,8.3.355a7.738,7.738,0,0,0-2.163.654c-.6.284-1.456.615-1.429,1.353a2.381,2.381,0,0,0,.184.749c.057.149.1.35-.033.44s-.305-.007-.425-.106A11.367,11.367,0,0,1,3.186,2.074a4.343,4.343,0,0,0-.728-.683A7.875,7.875,0,0,1,1.675.926C1.4.67,1.455.346,1.435,0" transform="translate(27.896 157.629)" fill="#daa095"/>
        <path id="Fill_556" data-name="Fill 556" d="M7.619,0C1.932.454.2,3.822,0,5.894a14.09,14.09,0,0,0,4.058.75c3.934,0,6.623-1.053,7.384-2.407C12.33,2.655,11.683,1.4,7.619,0" transform="translate(42.712 168.665)" fill="#fafafa"/>
        <path id="Fill_558" data-name="Fill 558" d="M.283,2.45a.285.285,0,0,1-.177-.058A.256.256,0,0,1,.06,2.021a6.841,6.841,0,0,1,5.111-2,.269.269,0,0,1,.252.287.272.272,0,0,1-.3.239A6.342,6.342,0,0,0,.5,2.35a.281.281,0,0,1-.213.1" transform="translate(41.514 166.393)" fill="#f0f0f0"/>
        <path id="Fill_560" data-name="Fill 560" d="M.283,2.451a.288.288,0,0,1-.177-.057A.256.256,0,0,1,.06,2.022a6.828,6.828,0,0,1,5.111-2,.27.27,0,0,1,.252.288.271.271,0,0,1-.3.239A6.329,6.329,0,0,0,.5,2.351a.281.281,0,0,1-.214.1" transform="translate(39.036 165.069)" fill="#f0f0f0"/>
        <path id="Fill_562" data-name="Fill 562" d="M.283,2.45a.285.285,0,0,1-.177-.058A.256.256,0,0,1,.06,2.021a6.845,6.845,0,0,1,5.111-2,.269.269,0,0,1,.252.287.272.272,0,0,1-.3.239A6.342,6.342,0,0,0,.5,2.35a.279.279,0,0,1-.213.1" transform="translate(36.735 163.55)" fill="#f0f0f0"/>
        <path id="Fill_564" data-name="Fill 564" d="M.283,2.486a.291.291,0,0,1-.174-.055.256.256,0,0,1-.052-.37A6.992,6.992,0,0,1,5.641.024a.269.269,0,0,1,.252.287.273.273,0,0,1-.3.239A6.49,6.49,0,0,0,.5,2.383a.278.278,0,0,1-.216.1" transform="translate(34.48 161.995)" fill="#f0f0f0"/>
        <path id="Fill_566" data-name="Fill 566" d="M13.459,2.719.883,0C.552,7.786.753,18.317.486,25.624.436,27-.276,36.293.119,39.149c.595,4.29,6.346,4.011,6.821,1.486s.891-13.316.985-14.435c.267-4.681,2.938-12.549,4.812-20.881.092-.409.634-2.2.721-2.6" transform="translate(3.953 133.563)" fill="#ffaea1"/>
        <path id="Fill_568" data-name="Fill 568" d="M11.7,2.14a10.46,10.46,0,0,1-1.35,5.672A4.433,4.433,0,0,1,5.6,9.484C3.667,9.127,1.158,8.073.51,5.94A12.135,12.135,0,0,1,.234,0Z" transform="translate(1.225 173.937)" fill="#16152f"/>
        <path id="Fill_570" data-name="Fill 570" d="M3.076,0c-.788.084-.867,3.442-1.169,6.814C1.584,10.427.436,11.959.134,14.922c-.344,3.386-.074,4.883,1.357,6.87s6.259,3.809,8.46.806c1.793-2.448,1.751-5.087,1.424-8.444A75.327,75.327,0,0,1,10.806,5.6c.038-2.527.474-4.88-.226-5.136-.035.372-.065.844-.1,1.21-.03.28-.046,1.649-.488,1.678a4.629,4.629,0,0,1-.052-.95A1.033,1.033,0,0,0,9.681,1.6a3.045,3.045,0,0,0-1.243-.41c-.784-.107-1.572-.2-2.364-.233-.395-.017-.791-.019-1.186,0a3.5,3.5,0,0,0-1,.163.667.667,0,0,0-.412.358.964.964,0,0,0-.024.386,2.454,2.454,0,0,1-.067.695c-.025.1-.1.225-.211.2a.2.2,0,0,1-.138-.2c-.022-.406.023-.7.023-1.177,0-.219.026-.518.019-.738S3.07.216,3.076,0" transform="translate(1.39 158.294)" fill="#daa095"/>
        <path id="Fill_572" data-name="Fill 572" d="M0,1.178A7.5,7.5,0,0,0,1.286,6.256c1.431,1.987,6.641,3.8,8.842.8a8.7,8.7,0,0,0,1.406-4.977c-1.5-2.2-9.41-2.894-11.529-.9" transform="translate(1.391 173.997)" fill="#fafafa"/>
        <path id="Fill_574" data-name="Fill 574" d="M7.313,1.216a.344.344,0,0,1-.1-.02A12.977,12.977,0,0,0,.371.829.3.3,0,0,1,.011.647.257.257,0,0,1,.216.329a13.445,13.445,0,0,1,7.23.39.249.249,0,0,1,.154.34.3.3,0,0,1-.287.156" transform="translate(3.417 171.272)" fill="#f0f0f0"/>
        <path id="Fill_576" data-name="Fill 576" d="M.276.965A.294.294,0,0,1,.019.8.253.253,0,0,1,.188.465,11.283,11.283,0,0,1,7.405.8a.245.245,0,0,1,.139.344.317.317,0,0,1-.39.123A10.8,10.8,0,0,0,.4.948.331.331,0,0,1,.276.965" transform="translate(3.588 168.618)" fill="#f0f0f0"/>
        <path id="Fill_578" data-name="Fill 578" d="M.276,1.051A.292.292,0,0,1,.022.89.249.249,0,0,1,.183.553,10.168,10.168,0,0,1,7.544.86a.243.243,0,0,1,.115.351.316.316,0,0,1-.4.1A9.685,9.685,0,0,0,.4,1.032a.316.316,0,0,1-.128.019" transform="translate(3.683 166.158)" fill="#f0f0f0"/>
        <path id="Fill_580" data-name="Fill 580" d="M.276,1.02A.294.294,0,0,1,.023.863.249.249,0,0,1,.179.524,10.625,10.625,0,0,1,7.6.9a.243.243,0,0,1,.124.349.309.309,0,0,1-.4.11A10.142,10.142,0,0,0,.407,1a.331.331,0,0,1-.131.02" transform="translate(3.801 163.521)" fill="#ececec"/>
        <path id="Fill_582" data-name="Fill 582" d="M6.011,0c-.3,14.164-2.83,45.627-2.83,45.627C2.967,47.367.448,54.766.356,61.058.211,70.932,0,78.41,0,78.41s5.516,2.184,9.567.673c0,0,5.271-20.987,6.748-27.536,1.76-7.8,6.153-22.308,6.153-22.308l-.32,20.62a56.569,56.569,0,0,0-.166,12.466c.486,4.159,2.157,15.74,2.157,15.74a22.687,22.687,0,0,0,9.476-.281s2.65-24.867,2.868-28.694c.249-4.363,1.6-48.238,1.6-48.238Z" transform="translate(4.108 72.507)" fill="#313060"/>
        <path id="Fill_584" data-name="Fill 584" d="M.392,16.422,2.363,3.277A14.031,14.031,0,0,0,10.474,0s-.411,3.082-6.43,4.941L1.766,16.026,0,36.656Z" transform="translate(26.185 85.323)" fill="#16152f"/>
        <path id="Fill_586" data-name="Fill 586" d="M.086,5.674c2.556-.134,7.319-.3,10.741,3.917,2.405,2.962,8.965,10.086,12.681,14.789C26,21.788,32.041,15.5,33.03,13.666a28.911,28.911,0,0,0,2.257-5.41,18.8,18.8,0,0,0,.794-3.373A18.412,18.412,0,0,0,36.153.656c-.031-1.278,1.869-.623,2.6,1.407a11.082,11.082,0,0,1,.556,3.473c.7-.337,2.748-1.341,3.067-1.489,1.112-.516,4.648-1.758,4.986.234.075.446-.065.933.129,1.341a2.893,2.893,0,0,0,.387.518,2.283,2.283,0,0,1,.277,2.305A1.8,1.8,0,0,0,47.958,9.5a2.886,2.886,0,0,1,.048,1.146,4.614,4.614,0,0,1-.447.825,3.552,3.552,0,0,0-.306,1.174,4.387,4.387,0,0,1-.268,1.185c-.388.884-1.456,1.086-2.277,1.381-1.091.392-2.551.9-3.686,1.453-1.971,1.3-7.283,10.906-12.662,17.063-1.843,2.109-3.5,3.429-5.244,3.2l.016-.006c-1.415-.032-3.164-1.316-4.851-2.772C12.92,29.518,4.313,20.42,4.313,20.42.685,16.056-.325,8.6.086,5.674" transform="translate(35.083 25.534)" fill="#ffaea1"/>
        <path id="Fill_588" data-name="Fill 588" d="M0,0A11.472,11.472,0,0,1,5.029,1.442C6.933,2.523,7.617,3.434,9.822,5.9S17.3,14.77,17.3,14.77a14.2,14.2,0,0,1-9.188,7.307L.424,14.62Z" transform="translate(37.543 30.491)" fill="#313060"/>
        <path id="Fill_590" data-name="Fill 590" d="M2.468,0C1.374.387,1.093,1.129,1.175,2.718,1.224,3.66,1,5.411,0,6.142A2.437,2.437,0,0,0,1.315,5.52c.468-.513.6-.574.876-.3a1.773,1.773,0,0,0,.72.384,1.224,1.224,0,0,0-.066,1.462c.518.8,2.727.747,4.5-.247,0,0-2.907,1.009-3.617.1s.808-2.132,1.955-2.485c0,0-2.813.767-3.276-.149S3.1,2.626,4.753,2.146c0,0-2.331.5-2.757-.282A1.457,1.457,0,0,1,2.468,0" transform="translate(73.343 31.256)" fill="#da7d8c"/>
        <path id="Fill_592" data-name="Fill 592" d="M3.742,2.626S1.019,5.021.323,7.61c-.343,1.272-.657,2.335.42,9.4A99.722,99.722,0,0,1,2,31.026l.267,14.088c4.035,4.725,23.611,7.294,33.032.929,0,0,.054-24.421-.612-32.473C34.236,8.1,32.56,2.97,30.679,1.29,28.119.846,25.656.548,25.656.548L16.234,0Z" transform="translate(7.715 29.32)" fill="#daa095"/>
        <path id="Fill_594" data-name="Fill 594" d="M23.011,11.934c1.255-2.879.026-6.7-1.473-8.488C19.369.854,16-.264,10.909.052,7.042.292,3.238,1.9,2.514,5.868-.594,6.795-.24,11.9.533,14.151,2.1,18.721,5.187,22.7,5.24,25.035Z" transform="translate(15.099 0.429)" fill="#313060"/>
        <path id="Fill_596" data-name="Fill 596" d="M23.046,16.914c-.611,2.206-1.889,3.823-3.928,4.142a17.091,17.091,0,0,1-3.222.017l.081,2.809c2.745,2.35,1.739,5.436-.093,8.218-2.275-2.53-4.88-3.432-7.153-4.433a7.285,7.285,0,0,1-3.317-3.212l-.291-9.486s-1.249,1.418-3.307.078a4.49,4.49,0,0,1-1.4-5.5A2.206,2.206,0,0,1,4.111,8.94c.625.654,1.36,1.884,1.883,1.712A1.9,1.9,0,0,0,7.261,9.36a11.549,11.549,0,0,0,.666-4.172,5.615,5.615,0,0,0,1.6-1.232A5.158,5.158,0,0,0,10.91.764c4.409-1.381,9.48-.731,11.313.687,1.055,1.857,1.093,6.177,1.268,8.664a20.435,20.435,0,0,1-.445,6.8" transform="translate(15.062 6.199)" fill="#ffaea1"/>
        <path id="Fill_598" data-name="Fill 598" d="M9.726,6.276c-2.257-.127-6.795-1.181-8-2.44A9.317,9.317,0,0,1,0,0S.181,3.255,1.116,4.691s3.3,2.063,4.729,2.419a35.226,35.226,0,0,0,3.924.6Z" transform="translate(21.231 20.995)" fill="#da7d8c"/>
        <path id="Fill_600" data-name="Fill 600" d="M13.537,11.427C12.357,10.7,9.75,7.744,8.454,9.118s-1.991,1.753-2.847,1.5S2.861,8.5,1.625,7.131A7.9,7.9,0,0,1,0,3.807a22.188,22.188,0,0,0,1.741-2.42C2.328.345,2.2.052,2.953,0L3.02,1.964a7.4,7.4,0,0,0,2.6,2.519c2.12,1.448,6.393,3.606,7.919,6.944" transform="translate(17.408 26.874)" fill="#313060"/>
        <path id="Fill_602" data-name="Fill 602" d="M0,10.071C.7,9.43,1.846,6.433,2.152,6.523,2.6,6.655,3.409,8.717,3.8,8.238c.618-.761.43-4.236-.6-5.5C2.213,1.523.808.133.04,0L.095,1.853A7.48,7.48,0,0,1,.855,4.841C.848,5.893.145,9.062,0,10.071" transform="translate(30.945 28.23)" fill="#313060"/>
        <path id="Fill_604" data-name="Fill 604" d="M1.825.948A.928.928,0,0,1,.915,1.9.933.933,0,0,1,0,.948.928.928,0,0,1,.909,0a.935.935,0,0,1,.915.948" transform="translate(27.706 13.923)" fill="#313060"/>
        <path id="Fill_606" data-name="Fill 606" d="M2.031.525.183,1.772A1.17,1.17,0,0,1,.5.184,1.088,1.088,0,0,1,2.031.525" transform="translate(26.223 11.429)" fill="#313060"/>
        <path id="Fill_608" data-name="Fill 608" d="M2.026,1.631,0,.663A1.078,1.078,0,0,1,1.463.108a1.179,1.179,0,0,1,.563,1.524" transform="translate(35.08 11.178)" fill="#313060"/>
        <path id="Fill_610" data-name="Fill 610" d="M1.825.948A.927.927,0,0,1,.915,1.9.934.934,0,0,1,0,.948.928.928,0,0,1,.909,0a.934.934,0,0,1,.915.948" transform="translate(34.599 13.866)" fill="#313060"/>
        <path id="Fill_612" data-name="Fill 612" d="M0,0,.66,6.559,4.179,5.5Z" transform="translate(31.626 12.909)" fill="#da7d8c"/>
        <path id="Fill_614" data-name="Fill 614" d="M.038,0,3.813.835A1.9,1.9,0,0,1,1.548,2.369,2.024,2.024,0,0,1,.038,0" transform="translate(29.487 20.995)" fill="#da7d8c"/>
        <path id="Fill_616" data-name="Fill 616" d="M1.519,1.684a1.861,1.861,0,0,0,.236.027A1.755,1.755,0,0,0,0,0,2,2,0,0,0,1.519,1.684" transform="translate(29.516 21.68)" fill="#ff9090"/>
        <path id="Fill_618" data-name="Fill 618" d="M33.775,0,9.1,4.825,0,34.47l23.5-5.211Z" transform="translate(27.723 52.884)" fill="#16152f"/>
        <path id="Fill_620" data-name="Fill 620" d="M10.612,0a5.677,5.677,0,0,1-4,4.114A12.486,12.486,0,0,1,0,3.726L.761,1.246Z" transform="translate(30.312 75.2)"/>
        <path id="Fill_622" data-name="Fill 622" d="M10.507,1.379l.26-.912c.143-.5-1.279-.617-3.177-.254l-3.634.7C2.058,1.273.4,1.976.26,2.48L0,3.393Z" transform="translate(43.607 55.406)"/>
        <path id="Fill_624" data-name="Fill 624" d="M12.88,1.528c.091-.315-.48-.435-1.276-.27l-1.44.3S10.714-.416,7.528.08A4.932,4.932,0,0,0,3.509,2.805l-1.539.331a2.843,2.843,0,0,0-1.755.9L0,4.6,12.708,2.113s.08-.27.171-.585" transform="translate(43.141 51.876)" fill="#00dfbf"/>
        <path id="Fill_626" data-name="Fill 626" d="M12.88,1.528c.091-.315-.48-.435-1.276-.27l-1.44.3S10.714-.416,7.528.08A4.932,4.932,0,0,0,3.509,2.805l-1.539.331a2.843,2.843,0,0,0-1.755.9L0,4.6,12.708,2.113s.08-.27.171-.585" transform="translate(43.141 51.876)" fill="#daa095"/>
        <path id="Fill_628" data-name="Fill 628" d="M.26,4.051c.119-.419,1.288-.973,2.767-1.358.014-.053.029-.1.04-.147.114-.439-.058-.718-.952-.543l-.052-.357L10.872,0l-.388.36c-1.163.2-1.649.324-1.87,1.1-.018.064-.031.116-.048.178,1.382-.158,2.319-.012,2.2.4l-.26.912L0,4.964Z" transform="translate(43.752 53.932)" fill="#00dfbf"/>
        <path id="Fill_630" data-name="Fill 630" d="M.26,4.051c.119-.419,1.288-.973,2.767-1.358.014-.053.029-.1.04-.147.114-.439-.058-.718-.952-.543l-.052-.357L10.872,0l-.388.36c-1.163.2-1.649.324-1.87,1.1-.018.064-.031.116-.048.178,1.382-.158,2.319-.012,2.2.4l-.26.912L0,4.964Z" transform="translate(43.752 53.932)" fill="#daa095"/>
        <path id="Fill_632" data-name="Fill 632" d="M32.9,37.9a27.946,27.946,0,0,0,9.174,1.081c.767,0,1.347.116,1.573.847.08.259.186.619-.8.911a1.368,1.368,0,0,0-.768.4c-.23.359-.116.721-.175,1.144a3.247,3.247,0,0,1-.939,1.6,7.5,7.5,0,0,1-1.551,1.448c-1.91,1.2-4.858,1.35-7.035,1a23.7,23.7,0,0,1-4.343-1.284c-1.329-.491-9.419-2.875-10.38-3.21C10.51,39.344.687,36.288.11,32.9S1.348,18.97,2.648,10.372C3.7,3.429,6.513.953,11.078,0c5,5.68,1.839,15.525,1.839,15.525L11.1,28.639c.769.641,12.456,7.2,14.475,7.855a5.692,5.692,0,0,0,2.831-.3,12.311,12.311,0,0,1,5.183-.525" transform="translate(0.114 32.219)" fill="#ffaea1"/>
        <path id="Fill_634" data-name="Fill 634" d="M11.047,0C6.2.666,3.331,3.147,2.351,7.842,1.527,11.788,0,24.527,0,24.527c3.224,2.843,8.511,2.689,11.371,1.7L12.85,15.989C14.039,13.37,15.9,5.56,11.047,0" transform="translate(0.41 31.945)" fill="#313060"/>
        <path id="Fill_636" data-name="Fill 636" d="M3.1.133.656,1.485A1.194,1.194,0,0,0,.1,2.4C.038,4.592-.139,12.123.212,16.249a1.307,1.307,0,0,0,.595.916,46.724,46.724,0,0,0,6.9,3.333,2.186,2.186,0,0,0,1.177-.129l1.744-.7a.983.983,0,0,0,.569-.845A99.075,99.075,0,0,1,12.7,4.856a.884.884,0,0,0-.462-.876L4.2.1A1.336,1.336,0,0,0,3.1.133" transform="translate(5.242 73.202)" fill="#313060"/>
        <path id="Fill_638" data-name="Fill 638" d="M.212,14.25C-.139,10.124.037,2.595.1.4A.364.364,0,0,1,.669.058l7.48,3.717a.979.979,0,0,1,.5.888A117.367,117.367,0,0,0,8.28,17.985a.462.462,0,0,1-.574.514,46.712,46.712,0,0,1-6.9-3.332,1.309,1.309,0,0,1-.6-.917" transform="translate(5.242 75.2)" fill="#434185"/>
        <path id="Fill_640" data-name="Fill 640" d="M0,16.134a2.241,2.241,0,0,0,1.085-.145l1.746-.7a1.015,1.015,0,0,0,.564-.843c.341-4.5.774-9.195,1.5-13.965A.776.776,0,0,0,4.809,0L.76,1.846a.846.846,0,0,1,.088.434A116.532,116.532,0,0,0,.482,15.607.463.463,0,0,1,0,16.134" transform="translate(13.041 77.58)" fill="#16152f"/>
        <path id="Fill_642" data-name="Fill 642" d="M.154,0,5.646,2.657,5.354,7.128,0,4.771S.038,1.893.154,0" transform="translate(6.641 77.155)" fill="#16152f"/>
        <path id="Fill_644" data-name="Fill 644" d="M5.07,6.649,0,4.417S.034,1.878.134,0L5.34,2.519Z" transform="translate(6.947 77.294)" fill="#00dfbf"/>
        <path id="Fill_646" data-name="Fill 646" d="M5.07,6.649,0,4.417S.034,1.878.134,0L5.34,2.519Z" transform="translate(6.947 77.294)" fill="#313060"/>
        <path id="Fill_648" data-name="Fill 648" d="M6.285,2.42,4.92,3.074,0,.666,1.326,0Z" transform="translate(8.307 74.451)" fill="#16152f"/>
        <path id="Fill_650" data-name="Fill 650" d="M5.875,2.318l-1.16.556L0,.566,1.126,0Z" transform="translate(8.514 74.652)" fill="#00dfbf"/>
        <path id="Fill_652" data-name="Fill 652" d="M5.875,2.318l-1.16.556L0,.566,1.126,0Z" transform="translate(8.514 74.652)" fill="#16152f"/>
        <path id="Fill_654" data-name="Fill 654" d="M1.321.076.149.626,0,.552,1.165,0Z" transform="translate(12.367 76.551)"/>
        <path id="Fill_656" data-name="Fill 656" d="M1.326.076.169.632,0,.55,1.171,0Z" transform="translate(11.31 76.036)"/>
        <path id="Fill_658" data-name="Fill 658" d="M1.316.076.149.626,0,.553,1.161,0Z" transform="translate(10.278 75.53)"/>
        <path id="Fill_660" data-name="Fill 660" d="M1.316.076.149.623,0,.55,1.16,0Z" transform="translate(9.326 75.065)"/>
        <path id="Fill_662" data-name="Fill 662" d="M1.606.866l-.039.551a.209.209,0,0,1-.306.19L.267,1.2A.462.462,0,0,1,0,.776L.034.211a.2.2,0,0,1,.3-.189L1.343.441a.458.458,0,0,1,.263.425" transform="translate(10.627 84.945)" fill="#16152f"/>
        <path id="Fill_664" data-name="Fill 664" d="M1.606.844l-.03.552a.209.209,0,0,1-.3.195l-1-.392A.46.46,0,0,1,0,.779L.024.214a.2.2,0,0,1,.3-.194l1.013.4a.456.456,0,0,1,.269.421" transform="translate(10.636 86.763)" fill="#16152f"/>
        <path id="Fill_666" data-name="Fill 666" d="M1.606.823l-.022.552a.209.209,0,0,1-.3.2L.28,1.2A.46.46,0,0,1,0,.783L.015.217a.2.2,0,0,1,.3-.2L1.331.406a.457.457,0,0,1,.276.417" transform="translate(10.644 88.581)" fill="#16152f"/>
        <path id="Fill_668" data-name="Fill 668" d="M1.607.8l-.013.553a.209.209,0,0,1-.3.2L.286,1.2A.461.461,0,0,1,0,.786L.007.22A.2.2,0,0,1,.3.018L1.325.389A.457.457,0,0,1,1.607.8" transform="translate(10.653 90.399)" fill="#16152f"/>
        <path id="Fill_670" data-name="Fill 670" d="M1.589.868l-.03.575a.2.2,0,0,1-.3.189L.272,1.225A.474.474,0,0,1,0,.8L.024.211A.2.2,0,0,1,.32.022l1,.42a.469.469,0,0,1,.268.427" transform="translate(8.42 83.928)" fill="#16152f"/>
        <path id="Fill_672" data-name="Fill 672" d="M1.588.862l-.027.575a.2.2,0,0,1-.3.191l-.988-.4A.474.474,0,0,1,0,.8L.021.212a.2.2,0,0,1,.3-.19l1,.414a.47.47,0,0,1,.27.426" transform="translate(8.412 85.719)" fill="#16152f"/>
        <path id="Fill_674" data-name="Fill 674" d="M1.589.856l-.024.576a.2.2,0,0,1-.3.192l-.99-.4A.473.473,0,0,1,0,.8L.018.213A.2.2,0,0,1,.313.021l1,.41a.469.469,0,0,1,.272.424" transform="translate(8.404 87.51)" fill="#16152f"/>
        <path id="Fill_676" data-name="Fill 676" d="M1.589.849l-.021.576a.2.2,0,0,1-.3.194L.278,1.224A.473.473,0,0,1,0,.8L.015.214A.2.2,0,0,1,.309.021L1.315.427a.469.469,0,0,1,.274.423" transform="translate(8.397 89.3)" fill="#16152f"/>
        <path id="Fill_678" data-name="Fill 678" d="M1.571.871l-.02.6a.2.2,0,0,1-.294.189l-.98-.409A.485.485,0,0,1,0,.823L.014.21A.2.2,0,0,1,.3.022L1.3.443a.482.482,0,0,1,.273.427" transform="translate(6.213 82.912)" fill="#16152f"/>
        <path id="Fill_680" data-name="Fill 680" d="M1.572.871l-.02.6a.2.2,0,0,1-.294.189l-.98-.409A.486.486,0,0,1,0,.823L.014.21A.2.2,0,0,1,.305.022L1.3.443a.482.482,0,0,1,.273.427" transform="translate(6.219 84.647)" fill="#16152f"/>
        <path id="Fill_682" data-name="Fill 682" d="M1.572.871l-.02.6a.2.2,0,0,1-.294.189l-.98-.409A.486.486,0,0,1,0,.823L.014.21A.2.2,0,0,1,.305.022L1.3.443a.482.482,0,0,1,.273.427" transform="translate(6.225 86.383)" fill="#16152f"/>
        <path id="Fill_684" data-name="Fill 684" d="M1.572.871l-.02.6a.2.2,0,0,1-.294.189l-.98-.409A.485.485,0,0,1,0,.823L.014.21A.2.2,0,0,1,.305.022L1.3.443a.482.482,0,0,1,.273.427" transform="translate(6.232 88.118)" fill="#16152f"/>
      </g>
      <g id="Group_720" data-name="Group 720" transform="translate(116.034 0.149)">
        <path id="Fill_687" data-name="Fill 687" d="M5.74,0,0,3.324,2.28,8.449a.515.515,0,0,0,.218.244c.272.155,1.883,1.087,1.972,1.139a.527.527,0,0,0,.77-.307L7.716,1.141Z" transform="translate(9.559 32.722)" fill="#00dfbf"/>
        <path id="Fill_689" data-name="Fill 689" d="M5.74,0,0,3.324,2.28,8.449a.515.515,0,0,0,.218.244c.272.155,1.883,1.087,1.972,1.139a.527.527,0,0,0,.77-.307L7.716,1.141Z" transform="translate(9.559 32.722)" fill="#daa095"/>
        <path id="Fill_691" data-name="Fill 691" d="M0,3.324,2.28,8.449a.526.526,0,0,0,.984-.065L5.74,0Z" transform="translate(11.535 33.863)" fill="#daa095"/>
        <path id="Fill_693" data-name="Fill 693" d="M22.143.12.5,12.617a1.1,1.1,0,0,0-.5.861V40.339a1.084,1.084,0,0,0,.5.856l1.78,1a1.114,1.114,0,0,0,1,0l21.646-12.5a1.1,1.1,0,0,0,.5-.861V1.969a1.085,1.085,0,0,0-.5-.856l-1.78-1a1.114,1.114,0,0,0-1,.005" transform="translate(0.383 0.315)" fill="#00dfbf"/>
        <g id="Group_697" data-name="Group 697" transform="translate(0.464)">
          <path id="Clip_696-2" data-name="Clip 696" d="M0,0H25.258V14.551H0Z" transform="translate(0.074 0.315)" fill="none"/>
          <g id="Group_697-2" data-name="Group 697" clip-path="url(#clip-path-2)">
            <path id="Fill_695" data-name="Fill 695" d="M25.258,1.88c-.039-.25-.243-.34-.492-.2L3.122,14.18a1.016,1.016,0,0,0-.351.372L0,12.971a.993.993,0,0,1,.342-.353L21.989.12a1.111,1.111,0,0,1,1,0l1.779,1a1.1,1.1,0,0,1,.493.767" transform="translate(0.074 0.314)" fill="#daa095"/>
          </g>
        </g>
        <path id="Fill_698" data-name="Fill 698" d="M0,40.287V13.425a1.1,1.1,0,0,1,.5-.861L22.143.068c.275-.159.5-.03.5.286V27.216a1.1,1.1,0,0,1-.5.861L.5,40.574c-.274.158-.5.03-.5-.287" transform="translate(3.162 1.93)" fill="#daa095"/>
        <path id="Fill_700" data-name="Fill 700" d="M3.277,29.218a1.138,1.138,0,0,1-1,.006l-1.779-1A1.079,1.079,0,0,1,0,27.37V.507A1.022,1.022,0,0,1,.159,0L2.927,1.58a.987.987,0,0,0-.147.489V28.93c0,.291.2.458.5.288" transform="translate(0.382 13.286)" fill="#daa095"/>
        <path id="Fill_702" data-name="Fill 702" d="M.249,7.514A.251.251,0,0,1,0,7.265V2.587a.25.25,0,0,1,.124-.216L4.175.033A.253.253,0,0,1,4.3,0a.249.249,0,0,1,.249.248V4.926a.252.252,0,0,1-.124.216L.373,7.48A.244.244,0,0,1,.249,7.514ZM4.051.681.5,2.731v4.1L4.051,4.782Z" transform="translate(5.23 15.322)" fill="#fafafa"/>
        <path id="Fill_704" data-name="Fill 704" d="M3.775.038A.492.492,0,0,0,3.132.3L1.275,4.719l-.442-.43a.491.491,0,0,0-.684.7l.958.932a.489.489,0,0,0,.342.138.47.47,0,0,0,.1-.01A.489.489,0,0,0,1.9,5.763L4.038.682A.492.492,0,0,0,3.775.038" transform="translate(6.23 14.36)" fill="#e7d700"/>
        <path id="Fill_706" data-name="Fill 706" d="M.648,6.059,10.979.093c.357-.207.647-.058.647.331A1.393,1.393,0,0,1,10.979,1.5L.648,7.469C.29,7.675,0,7.527,0,7.138A1.391,1.391,0,0,1,.648,6.059" transform="translate(12.325 9.159)" fill="#e7d700"/>
        <path id="Fill_708" data-name="Fill 708" d="M.249,7.514A.251.251,0,0,1,0,7.264V2.587a.252.252,0,0,1,.124-.216L4.176.033A.249.249,0,0,1,4.3,0a.253.253,0,0,1,.125.033.248.248,0,0,1,.124.215V4.927a.249.249,0,0,1-.124.215L.373,7.48A.244.244,0,0,1,.249,7.514ZM4.051.681.5,2.732v4.1L4.051,4.782Z" transform="translate(5.23 22.338)" fill="#fafafa"/>
        <path id="Fill_710" data-name="Fill 710" d="M3.775.038A.492.492,0,0,0,3.132.3L1.275,4.719l-.442-.43a.491.491,0,0,0-.684.7l.958.932a.489.489,0,0,0,.342.138.5.5,0,0,0,.1-.009A.491.491,0,0,0,1.9,5.763L4.038.682A.492.492,0,0,0,3.775.038" transform="translate(6.23 21.376)" fill="#e7d700"/>
        <path id="Fill_712" data-name="Fill 712" d="M.648,6.058,10.979.093c.357-.206.647-.058.647.331a1.394,1.394,0,0,1-.647,1.08L.648,7.468C.29,7.675,0,7.527,0,7.138A1.392,1.392,0,0,1,.648,6.058" transform="translate(12.325 16.153)" fill="#e7d700"/>
        <path id="Fill_714" data-name="Fill 714" d="M.249,7.514A.251.251,0,0,1,0,7.264V2.587a.25.25,0,0,1,.124-.216L4.176.033A.249.249,0,0,1,4.3,0a.253.253,0,0,1,.125.033.249.249,0,0,1,.124.215V4.926a.249.249,0,0,1-.124.215L.373,7.48A.244.244,0,0,1,.249,7.514ZM4.051.681.5,2.731v4.1l3.552-2.05Z" transform="translate(5.23 29.354)" fill="#fafafa"/>
        <path id="Fill_716" data-name="Fill 716" d="M3.775.038A.492.492,0,0,0,3.132.3L1.275,4.719l-.442-.43a.491.491,0,0,0-.684.7l.958.932a.489.489,0,0,0,.342.139.5.5,0,0,0,.1-.01A.491.491,0,0,0,1.9,5.763L4.038.682A.492.492,0,0,0,3.775.038" transform="translate(6.23 28.391)" fill="#e7d700"/>
        <path id="Fill_718" data-name="Fill 718" d="M.648,6.059,10.979.093c.357-.207.647-.058.647.331A1.393,1.393,0,0,1,10.979,1.5L.648,7.469C.29,7.675,0,7.527,0,7.138A1.392,1.392,0,0,1,.648,6.059" transform="translate(12.325 23.146)" fill="#e7d700"/>
      </g>
    </g>
  </g>
</svg>
