<svg id="_01_Icons_Line_checkmark-circle" data-name="01) Icons/Line/checkmark-circle" xmlns="http://www.w3.org/2000/svg" width="24" height="24" viewBox="0 0 24 24">
  <path id="home" d="M14.5,18h-3a.5.5,0,0,1-.5-.5v-6a.5.5,0,0,0-.5-.5h-3a.5.5,0,0,0-.5.5v6a.5.5,0,0,1-.5.5h-3A2.5,2.5,0,0,1,1,15.5V7.736l-.182.149a.5.5,0,0,1-.636-.771l8.5-7a.5.5,0,0,1,.635,0l8.5,7a.5.5,0,0,1-.143.854.5.5,0,0,1-.493-.083L17,7.736V15.5A2.5,2.5,0,0,1,14.5,18Zm-7-8h3A1.5,1.5,0,0,1,12,11.5V17h2.5A1.5,1.5,0,0,0,16,15.5V7a.411.411,0,0,1,.007-.082L9,1.148,1.994,6.918A.5.5,0,0,1,2,7v8.5A1.5,1.5,0,0,0,3.5,17H6V11.5A1.5,1.5,0,0,1,7.5,10Z" transform="translate(3 3)" fill="#121924"/>
</svg>
