<svg xmlns="http://www.w3.org/2000/svg" width="32" height="32" viewBox="0 0 32 32">
  <g id="Group_1637" data-name="Group 1637" transform="translate(-29 -219)">
    <rect id="Rectangle" width="32" height="32" rx="10" transform="translate(29 219)" fill="#daa095"/>
    <path id="Combined-Shape" d="M10,20A10,10,0,0,1,6.108.786a10,10,0,0,1,7.785,18.428A9.937,9.937,0,0,1,10,20ZM10,4.667H9.769c-1.224,0-1.418.007-1.967.031a3.943,3.943,0,0,0-1.295.248,2.727,2.727,0,0,0-1.56,1.56A3.918,3.918,0,0,0,4.7,7.8c-.026.582-.032.774-.032,2.2s.006,1.617.032,2.2a3.957,3.957,0,0,0,.248,1.295,2.73,2.73,0,0,0,1.56,1.56A3.948,3.948,0,0,0,7.8,15.3c.574.026.764.032,2.2.032s1.625-.006,2.2-.032a3.951,3.951,0,0,0,1.3-.248,2.732,2.732,0,0,0,1.56-1.56A3.977,3.977,0,0,0,15.3,12.2c.026-.582.032-.774.032-2.2s-.006-1.617-.032-2.2a3.971,3.971,0,0,0-.248-1.294,2.727,2.727,0,0,0-1.56-1.56A3.958,3.958,0,0,0,12.2,4.7C11.624,4.673,11.434,4.667,10,4.667Z" transform="translate(35 225)" fill="#fff"/>
    <path id="Combined-Shape-2" data-name="Combined-Shape" d="M4.251,8.5c-1.375,0-1.54-.005-2.1-.03a2.876,2.876,0,0,1-.963-.179A1.606,1.606,0,0,1,.6,7.9a1.6,1.6,0,0,1-.388-.6A2.862,2.862,0,0,1,.03,6.345C.005,5.8,0,5.64,0,4.25S.005,2.7.03,2.155a2.869,2.869,0,0,1,.179-.963A1.6,1.6,0,0,1,.6.6a1.617,1.617,0,0,1,.6-.388A2.884,2.884,0,0,1,2.155.029C2.636.007,2.818,0,3.786,0h.465c1.4,0,1.559.005,2.1.03A2.878,2.878,0,0,1,7.309.21,1.6,1.6,0,0,1,7.9.6a1.617,1.617,0,0,1,.388.6,2.881,2.881,0,0,1,.179.963c.025.542.03.7.03,2.095S8.5,5.8,8.472,6.346a2.881,2.881,0,0,1-.179.963,1.72,1.72,0,0,1-.984.983,2.851,2.851,0,0,1-.963.179C5.791,8.5,5.626,8.5,4.251,8.5Zm0-6.911A2.663,2.663,0,1,0,6.913,4.252,2.666,2.666,0,0,0,4.251,1.589ZM7.019.862h0a.622.622,0,1,0,.624.622A.622.622,0,0,0,7.017.863Z" transform="translate(40.786 230.6)" fill="#fff"/>
    <path id="Shape" d="M1.728,0A1.728,1.728,0,1,1,0,1.728,1.728,1.728,0,0,1,1.728,0Z" transform="translate(43.307 233.124)" fill="#fff"/>
  </g>
</svg>
