<svg id="Group_1638" data-name="Group 1638" xmlns="http://www.w3.org/2000/svg" width="32" height="32" viewBox="0 0 32 32">
  <rect id="Rectangle" width="32" height="32" rx="10" fill="#daa095"/>
  <g id="_01_Icons_Line_checkmark-circle" data-name="01) Icons/Line/checkmark-circle" transform="translate(6 6)">
    <path id="map-marker" d="M5.833,15a.415.415,0,0,1-.283-.111,23.827,23.827,0,0,1-4.158-4.813A8.229,8.229,0,0,1,0,5.833a5.833,5.833,0,1,1,11.667,0,8.229,8.229,0,0,1-1.392,4.242,23.828,23.828,0,0,1-4.158,4.813A.417.417,0,0,1,5.833,15Zm0-14.167a5.006,5.006,0,0,0-5,5c0,2.3,1.682,5.054,5,8.179,3.317-3.124,5-5.876,5-8.179A5.006,5.006,0,0,0,5.833.833Zm0,8.333A3.333,3.333,0,1,1,9.167,5.833,3.337,3.337,0,0,1,5.833,9.166Zm0-5.833a2.5,2.5,0,1,0,2.5,2.5A2.5,2.5,0,0,0,5.833,3.333Z" transform="translate(4.167 2.5)" fill="#fff"/>
  </g>
</svg>
