<svg xmlns="http://www.w3.org/2000/svg" width="9.334" height="12" viewBox="0 0 9.334 12">
  <path id="map-marker" d="M4.667,12a.332.332,0,0,1-.227-.089A19.062,19.062,0,0,1,1.114,8.06,6.583,6.583,0,0,1,0,4.667a4.667,4.667,0,1,1,9.334,0A6.583,6.583,0,0,1,8.22,8.06a19.062,19.062,0,0,1-3.326,3.851A.333.333,0,0,1,4.667,12Zm0-11.334a4,4,0,0,0-4,4c0,1.841,1.346,4.043,4,6.544,2.654-2.5,4-4.7,4-6.544A4,4,0,0,0,4.667.666Zm0,6.667A2.667,2.667,0,1,1,7.333,4.667,2.67,2.67,0,0,1,4.667,7.333Zm0-4.667a2,2,0,1,0,2,2A2,2,0,0,0,4.667,2.666Z" fill="#c5cee0"/>
</svg>
