<svg xmlns="http://www.w3.org/2000/svg" width="300.751" height="242.839" viewBox="0 0 300.751 242.839">
  <g id="Group_1364" data-name="Group 1364" transform="translate(-1475.346 -1058.089)">
    <path id="Path_58" data-name="Path 58" d="M1666.422,488.255c.122-.127.246-.253.368-.381q3.1-3.25,5.9-6.676c.085-.1.171-.207.255-.311q2.828-3.477,5.352-7.116l.146-.209q2.55-3.691,4.784-7.53l.058-.1q2.257-3.886,4.185-7.9h0c17.984-37.478,14.238-82.74-15.482-118.166C1646.931,310,1602.6,324.4,1568.394,313.646c-42.13-13.24-64.555-21.088-103.023,8.39-44.13,33.817-73.006,104.712-47.558,155.233.04.081.084.161.125.241q.689,1.357,1.43,2.695c.11.2.226.4.339.594.435.769.88,1.534,1.342,2.292.161.264.327.525.491.788q.643,1.03,1.319,2.049c.2.3.406.6.611.9q.649.948,1.328,1.882.354.487.715.969.664.887,1.359,1.76c.266.336.533.672.805,1.005.458.561.931,1.117,1.407,1.67.293.34.583.68.882,1.016.483.542.98,1.077,1.48,1.611.312.333.619.668.938,1,.52.537,1.057,1.067,1.6,1.6.319.313.63.63.955.939.595.567,1.211,1.124,1.827,1.68.287.259.565.523.857.779q1.377,1.209,2.822,2.384a88.556,88.556,0,0,0,9.183,6.489,106.968,106.968,0,0,0,10.274,5.575,131.68,131.68,0,0,0,14.152,5.716c4.931,1.677,10.059,3.129,15.337,4.364q1.583.37,3.184.715,3.2.688,6.467,1.274c6.529,1.17,13.231,2.033,20.024,2.6q3.4.283,6.821.47c6.845.372,13.753.454,20.642.257,5.74-.164,11.467-.522,17.132-1.065a242.554,242.554,0,0,0,26.521-4.008,202.321,202.321,0,0,0,21.5-5.712q1.459-.479,2.892-.976,2.867-1,5.628-2.07a133.332,133.332,0,0,0,15.459-7.12c1.332-.727,2.638-1.479,3.93-2.241q.5-.3,1-.6,1.741-1.048,3.436-2.136c.126-.081.256-.16.383-.242q1.866-1.213,3.667-2.48c.284-.2.565-.4.847-.6q1.575-1.121,3.105-2.28c.163-.124.33-.245.492-.369q1.753-1.343,3.44-2.737c.208-.172.413-.346.62-.519q1.5-1.247,2.941-2.531c.152-.135.307-.269.458-.4q1.652-1.484,3.237-3.014c.114-.11.225-.222.338-.332Q1665.019,489.717,1666.422,488.255Z" transform="translate(77.749 768.248)" fill="#f0f0f0"/>
    <path id="Path_59" data-name="Path 59" d="M1672.068,341.036a49.357,49.357,0,0,0-11.462-10.051v30.128h-15.5v28.252h-19.683V320.915c-7.129-.631-14.447-.866-21.74-1.205l-21.03,16.93v54.072h-28.316V343.967h-35.381V326.033L1497.566,315.7V305.653a72.015,72.015,0,0,0-7.992,2.9v3.29l-3.5-1.691a101.481,101.481,0,0,0-9.893,5.539v25.347h-29.7c-21.318,24.176-36.161,56.993-37.94,88.771.725,20.029,3.692,37.361,9.338,48.565.04.081.084.16.125.241q.689,1.356,1.43,2.693c.11.2.226.4.339.594.435.768.88,1.533,1.342,2.291.161.264.327.525.491.787q.643,1.03,1.319,2.048c.2.3.406.6.611.9q.649.947,1.328,1.881.354.487.715.969.664.886,1.359,1.759c.266.336.534.671.806,1,.458.561.931,1.116,1.407,1.669.292.34.583.68.882,1.016.483.542.98,1.077,1.481,1.611.312.333.619.668.938,1,.52.537,1.057,1.066,1.6,1.594.319.313.63.629.954.939.6.567,1.211,1.123,1.828,1.679.287.259.565.523.857.779q1.377,1.209,2.822,2.383a88.583,88.583,0,0,0,9.184,6.486,107.006,107.006,0,0,0,10.274,5.572,131.748,131.748,0,0,0,14.153,5.713c4.931,1.676,10.06,3.128,15.339,4.362q1.583.37,3.185.714,3.2.688,6.467,1.273c6.529,1.169,13.232,2.032,20.025,2.6q3.4.283,6.821.47c6.846.372,13.754.454,20.643.257,5.74-.164,11.468-.521,17.133-1.065q2.977-.285,5.928-.643l.424-.05q2.909-.353,5.786-.775l.4-.057q2.93-.432,5.821-.93l.2-.034q2.968-.515,5.89-1.1l8.471-1.868.052-.013q1.943-.469,3.857-.967c.747-.195,1.484-.4,2.224-.6.919-.252,1.834-.505,2.74-.768q.878-.253,1.748-.512c1.513-.453,3.016-.914,4.492-1.4q1.459-.478,2.893-.976,2.867-1,5.628-2.069a133.365,133.365,0,0,0,15.461-7.116c1.332-.727,2.638-1.478,3.93-2.24q.5-.3,1-.6,1.741-1.047,3.436-2.135c.126-.081.256-.16.382-.242q1.866-1.213,3.667-2.479c.284-.2.565-.4.847-.6q1.575-1.121,3.106-2.279c.163-.124.33-.245.492-.368q1.753-1.343,3.441-2.735c.208-.172.413-.346.62-.519q1.5-1.247,2.941-2.53c.152-.135.307-.269.458-.4q1.653-1.483,3.237-3.012c.114-.11.225-.222.338-.332q1.463-1.422,2.866-2.883c.122-.127.246-.253.368-.381q3.1-3.249,5.9-6.673c.085-.1.171-.207.255-.311q2.828-3.475,5.352-7.112l.146-.209q2.55-3.69,4.784-7.527l.058-.1q2.257-3.884,4.185-7.9h0c5.739-11.954,9.26-33.08,10.433-56.956C1696.053,380.794,1687.625,359.568,1672.068,341.036Z" transform="translate(77.68 767.168)" fill="#e0e0e0"/>
    <g id="Group_1361" data-name="Group 1361" transform="translate(1670.498 1058.089)">
      <rect id="Rectangle_63" data-name="Rectangle 63" width="6.202" height="7.752" transform="translate(29.975 4.082)" fill="#daa095"/>
      <g id="Group_1360" data-name="Group 1360" transform="translate(3.343 13.102)">
        <path id="Rectangle_64" data-name="Rectangle 64" d="M1.29,0H4.912A1.29,1.29,0,0,1,6.2,1.29V7.752a0,0,0,0,1,0,0H0a0,0,0,0,1,0,0V1.29A1.29,1.29,0,0,1,1.29,0Z" transform="translate(55.08 0) rotate(45)" fill="#daa095"/>
        <path id="Rectangle_65" data-name="Rectangle 65" d="M0,0H6.2a0,0,0,0,1,0,0V6.462a1.29,1.29,0,0,1-1.29,1.29H1.29A1.29,1.29,0,0,1,0,6.462V0A0,0,0,0,1,0,0Z" transform="translate(9.867 5.482) rotate(135)" fill="#daa095"/>
      </g>
      <circle id="Ellipse_7" data-name="Ellipse 7" cx="33.076" cy="33.076" r="33.076" transform="translate(0 9.25)" fill="#daa095"/>
      <circle id="Ellipse_8" data-name="Ellipse 8" cx="27.132" cy="27.132" r="27.132" transform="translate(5.943 15.193)" fill="#f0f0f0"/>
      <rect id="Rectangle_66" data-name="Rectangle 66" width="21.198" height="6.202" rx="3.101" transform="translate(22.477 0)" fill="#daa095"/>
      <circle id="Ellipse_9" data-name="Ellipse 9" cx="4.522" cy="4.522" r="4.522" transform="translate(28.554 37.804)" fill="#daa095"/>
      <path id="Rectangle_67" data-name="Rectangle 67" d="M0,0H18.165a2.609,2.609,0,0,1,2.609,2.609v0a2.609,2.609,0,0,1-2.609,2.609H0a0,0,0,0,1,0,0V0A0,0,0,0,1,0,0Z" transform="translate(31.074 41.148) rotate(-45)" fill="#daa095"/>
    </g>
    <path id="Path_60" data-name="Path 60" d="M1411.234,372.819a140.67,140.67,0,0,1,38.361-80.679c2.542-2.623,5.547-5.306,9.2-5.415,5.739-.172,9.473,5.795,11.971,10.964,13.066,27.037,26.409,55.2,26.663,85.231.148,17.558-4.223,34.8-8.565,51.817-2.712,10.627-5.733,21.809-13.526,29.527-16.373,16.214-40.6,7.386-49.5-11.013C1413.676,428.1,1407.926,400.749,1411.234,372.819Z" transform="translate(77.181 772.503)" fill="#c9c9c9"/>
    <path id="Path_61" data-name="Path 61" d="M1509.294,408.3a123.7,123.7,0,0,1,33.732-70.945c2.236-2.307,4.879-4.666,8.089-4.762,5.047-.151,8.329,5.1,10.526,9.641,11.49,23.774,23.223,48.544,23.446,74.948.131,15.439-3.713,30.6-7.531,45.565-2.384,9.345-5.041,19.178-11.894,25.964-14.4,14.258-35.7,6.495-43.526-9.685C1511.442,456.908,1506.385,432.857,1509.294,408.3Z" transform="translate(53.452 759.579)" fill="#b3b3b3"/>
    <g id="Group_1362" data-name="Group 1362" transform="translate(1530.013 1121.327)">
      <path id="Path_70" data-name="Path 70" d="M11.186,0H112.493a29.853,29.853,0,0,1,29.853,29.853V128.2H11.186A11.186,11.186,0,0,1,0,117.012V11.186A11.186,11.186,0,0,1,11.186,0Z" transform="translate(2.995)" fill="#daa095"/>
      <path id="Rectangle_69" data-name="Rectangle 69" d="M7.337,0h138a0,0,0,0,1,0,0V13.35a4.483,4.483,0,0,1-4.483,4.483H7.337A7.337,7.337,0,0,1,0,10.5V7.337A7.337,7.337,0,0,1,7.337,0Z" transform="translate(0 113.195)" fill="#a5888a"/>
      <path id="Path_62" data-name="Path 62" d="M1657.7,523.5h80.106a12.254,12.254,0,0,0,12.255-12.255V473.8a12.25,12.25,0,0,0-1.946-6.627l-27.348-42.544A16.835,16.835,0,0,0,1706.6,416.9h-48.9Z" transform="translate(-1512.359 -395.308)" fill="#a5888a"/>
      <circle id="Ellipse_10" data-name="Ellipse 10" cx="21.106" cy="21.106" r="21.106" transform="translate(26.448 107.091)" fill="#926f73"/>
      <circle id="Ellipse_11" data-name="Ellipse 11" cx="21.106" cy="21.106" r="21.106" transform="translate(162.902 107.091)" fill="#926f73"/>
      <circle id="Ellipse_12" data-name="Ellipse 12" cx="9.968" cy="9.968" r="9.968" transform="translate(174.041 118.23)" fill="#a5888a"/>
      <circle id="Ellipse_13" data-name="Ellipse 13" cx="9.968" cy="9.968" r="9.968" transform="translate(37.623 118.23)" fill="#a5888a"/>
      <path id="Path_63" data-name="Path 63" d="M1686.53,476.783h48.157a4.941,4.941,0,0,0,4.156-7.612l-17.127-26.644a4.942,4.942,0,0,0-4.156-2.27h-31.03a4.941,4.941,0,0,0-4.941,4.941v26.644A4.941,4.941,0,0,0,1686.53,476.783Z" transform="translate(-1519.09 -401.889)" fill="#f0f0f0"/>
      <path id="Rectangle_70" data-name="Rectangle 70" d="M12.072,0h3.789a0,0,0,0,1,0,0V17.341a0,0,0,0,1,0,0H0a0,0,0,0,1,0,0V12.072A12.072,12.072,0,0,1,12.072,0Z" transform="translate(221.841 96.048)" fill="#cf8678"/>
      <path id="Rectangle_71" data-name="Rectangle 71" d="M0,0H15.862a0,0,0,0,1,0,0V17.341a0,0,0,0,1,0,0H12.072A12.072,12.072,0,0,1,0,5.269V0A0,0,0,0,1,0,0Z" transform="translate(18.857 113.389) rotate(-180)" fill="#cf8678"/>
      <rect id="Rectangle_72" data-name="Rectangle 72" width="26.977" height="17.833" rx="5.361" transform="translate(215.544 113.195)" fill="#a5888a"/>
      <path id="Path_64" data-name="Path 64" d="M1577.992,490.815l-3.381,7.74h59.676v-7.74Z" transform="translate(-1488.945 -416.136)" fill="#f7d3c7"/>
      <path id="Path_65" data-name="Path 65" d="M1526.674,498.555l3.381-7.74h-70.549v7.74Z" transform="translate(-1456.51 -416.136)" fill="#f7d3c7"/>
      <path id="Path_66" data-name="Path 66" d="M1590.821,458.411l-6.762,15.48h52.891v-15.48Z" transform="translate(-1491.608 -407.005)" fill="#fff"/>
      <path id="Path_67" data-name="Path 67" d="M1540.222,458.411h-80.716v15.48h73.954Z" transform="translate(-1456.51 -407.005)" fill="#fff"/>
    </g>
    <path id="Path_68" data-name="Path 68" d="M1468.631,583.657c-.634-2.117-1.224-4.34-2.671-6.012s-4.061-2.579-5.92-1.381c-2.469,1.592-1.936,5.291-1.105,8.109l-13.245-6.648c-2.44-1.224-4.956-2.471-7.676-2.693s-5.729.822-7.041,3.215c-1.349,2.46-.5,5.7,1.416,7.746a13.908,13.908,0,0,0,7.429,3.668c2.511.529,5.2.769,7.3,2.234s3.223,4.761,1.445,6.611c-2.019,2.1-6.062.876-7.991,3.06-1.584,1.794-.514,4.846,1.5,6.135s4.561,1.316,6.954,1.3l15.669-.1c2.879-.018,11.969,1.5,14.06-.732,2.038-2.175-3.251-8.15-4.476-10.523A81.768,81.768,0,0,1,1468.631,583.657Z" transform="translate(71.544 681.468)" fill="#b3b3b3"/>
    <path id="Path_69" data-name="Path 69" d="M1483.076,615.831l-9.174-6.084a6.172,6.172,0,0,1-2.729-2.833c-.707-2.075,1.1-4.332,3.213-4.9s4.355.063,6.429.771a91.231,91.231,0,0,1,19,9.042c-.906-2.854-1.819-5.892-1.087-8.8s3.809-5.43,6.633-4.432c6.557,2.316,9.866,18.855,3.808,23.106C1501.294,627.226,1489.674,620.162,1483.076,615.831Z" transform="translate(62.353 674.883)" fill="#c9c9c9"/>
    <g id="Group_1363" data-name="Group 1363" transform="translate(1475.346 1201.601)">
      <rect id="Rectangle_73" data-name="Rectangle 73" width="38.66" height="6.33" rx="3.165" fill="#f7d3c7"/>
      <rect id="Rectangle_74" data-name="Rectangle 74" width="38.66" height="6.33" rx="3.165" transform="translate(0 31.915)" fill="#f7d3c7"/>
      <rect id="Rectangle_75" data-name="Rectangle 75" width="24.296" height="6.33" rx="3.165" transform="translate(14.364 15.957)" fill="#f7d3c7"/>
    </g>
  </g>
</svg>
