<svg xmlns="http://www.w3.org/2000/svg" width="301.557" height="276.506" viewBox="0 0 301.557 276.506">
  <g id="Group_1636" data-name="Group 1636" transform="translate(-37 -134)">
    <g id="Group_1635" data-name="Group 1635">
      <g id="Group_1634" data-name="Group 1634">
        <g id="Group_1343" data-name="Group 1343" transform="translate(37 134)">
          <path id="Path_3" data-name="Path 3" d="M443.185,345.6c-23.513-34.369-65.113-17.8-97.219-30.17-39.538-15.237-60.583-24.269-96.685,9.656-49.849,46.843-78.969,155.513-23.4,210.7,42.986,42.685,135.558,39.351,183.208,7.49C470.59,502.154,487.124,409.824,443.185,345.6Z" transform="translate(-188.488 -290.999)" fill="#f0f0f0"/>
          <path id="Path_4" data-name="Path 4" d="M488.225,484.875a68.374,68.374,0,0,0,.814-48.008c-2.278-6.326-5.529-12.429-6.242-19.115s2.007-14.416,8.294-16.8c7-2.657,14.966,2.784,17.795,9.715s1.921,14.749.967,22.174L534.513,381.3c2.119-4.43,4.313-8.964,7.865-12.356s8.808-5.449,13.465-3.888c5.767,1.932,8.661,8.79,8.068,14.845s-3.83,11.483-6.989,16.682l-24.494,40.321a48.62,48.62,0,0,1,31.738-24.387c8.224-1.878,19-.1,21.583,7.928,2.024,6.3-2.5,13.117-8.287,16.308s-12.594,3.8-19.081,5.08A88.669,88.669,0,0,0,501.6,480.576Z" transform="translate(-284.684 -284.435)" fill="#c9c9c9"/>
          <g id="Group_1318" data-name="Group 1318" transform="translate(212.465 99.68)">
            <path id="Path_5" data-name="Path 5" d="M501.825,471.378l-.9-1.307a78.316,78.316,0,0,0,26.922-32.046c2.176-4.768,3.9-9.833,5.567-14.733,1.277-3.754,2.6-7.636,4.12-11.38,4.324-10.641,9.668-18.061,16.336-22.682l.9,1.3c-6.407,4.439-11.566,11.627-15.771,21.974-1.5,3.7-2.818,7.561-4.088,11.294-1.68,4.937-3.417,10.04-5.626,14.88A79.9,79.9,0,0,1,501.825,471.378Z" transform="translate(-500.927 -389.23)" fill="#dbdbdb"/>
          </g>
          <g id="Group_1319" data-name="Group 1319" transform="translate(222.078 135.544)">
            <path id="Path_6" data-name="Path 6" d="M513.9,473.531l-.851-1.338c6.22-3.954,13.362-8.486,20.509-13.021,7.229-4.588,14.464-9.178,20.756-13.178,8.224-5.228,16.334-9.83,25.113-8.754l-.194,1.574c-8.259-1.012-16.1,3.451-24.069,8.519-6.292,4-13.527,8.591-20.757,13.179C527.263,465.046,520.121,469.577,513.9,473.531Z" transform="translate(-513.051 -437.082)" fill="#dbdbdb"/>
          </g>
          <path id="Path_7" data-name="Path 7" d="M257.466,448.7c3.592-8.866-2.668-18.719-10.014-24.846s-16.331-10.844-21.146-19.109c-2.411-4.137-3.579-8.876-5.667-13.187s-5.51-8.432-10.207-9.362c-7.652-1.515-14.466,6.652-14.5,14.452s4.522,14.806,9.166,21.073,9.711,12.7,10.967,20.4c1.433,8.787-1.575,19.862,5.567,25.177,6.239,4.643,16.571,1.158,21.8,6.916,3.34,3.675,2.826,9.283,3.75,14.162s5.7,10.178,10.076,7.821Z" transform="translate(-188.533 -289.799)" fill="#c9c9c9"/>
          <g id="Group_1320" data-name="Group 1320" transform="translate(18.179 108.11)">
            <path id="Path_8" data-name="Path 8" d="M270.422,474.064c-11.79,0-23.223-8.682-26.267-20.094-.351-1.318-.6-2.671-.849-3.979a31.242,31.242,0,0,0-1.575-6.139c-2.12-5.2-6.871-8.79-11.465-12.26-1.56-1.179-3.174-2.4-4.67-3.666a48.879,48.879,0,0,1-16.066-26.768l1.549-.335a47.286,47.286,0,0,0,15.542,25.894c1.463,1.241,3.057,2.445,4.6,3.611,4.765,3.6,9.693,7.32,11.978,12.927a32.945,32.945,0,0,1,1.666,6.445c.239,1.28.487,2.6.823,3.862,2.932,10.993,14.161,19.3,25.505,18.9l.055,1.585C270.973,474.059,270.7,474.064,270.422,474.064Z" transform="translate(-209.529 -400.824)" fill="#dbdbdb"/>
          </g>
          <path id="Path_9" data-name="Path 9" d="M252.565,500.341c5.9-2.481,7.055-11.012,3.773-16.509s-9.432-8.534-15.386-10.886-12.27-4.448-16.845-8.926c-4.382-4.291-6.623-10.242-9-15.894s-5.258-11.471-10.358-14.878-13.031-3.3-16.478,1.775c-4.3,6.33.863,14.879,6.815,19.689s13.423,9.126,15.173,16.576c1.264,5.383-.907,11.124.33,16.514,1.387,6.04,6.7,10.314,11.994,13.533s11.108,6.058,14.784,11.047,4.171,13.045-.844,16.685Z" transform="translate(-186.618 -305.763)" fill="#bababa"/>
          <g id="Group_1321" data-name="Group 1321" transform="translate(18.873 142.556)">
            <path id="Path_10" data-name="Path 10" d="M251.3,506.287c-.6-5.476-6.843-8.525-9.5-9.581-1.139-.454-2.337-.872-3.5-1.277-3.621-1.264-7.366-2.571-10.27-5.227-2.165-1.98-2.64-4.993-3.1-7.906a22.373,22.373,0,0,0-1.051-4.613,112.13,112.13,0,0,0-6.7-13.407,113.413,113.413,0,0,1-6.787-13.6l1.476-.58a112.186,112.186,0,0,0,6.7,13.407,113.13,113.13,0,0,1,6.787,13.6,23.838,23.838,0,0,1,1.141,4.944c.437,2.766.849,5.377,2.6,6.983,2.663,2.436,6.092,3.633,9.722,4.9,1.175.411,2.39.834,3.561,1.3,6.174,2.458,10,6.424,10.488,10.882Z" transform="translate(-210.404 -450.097)" fill="#c9c9c9"/>
          </g>
          <path id="Path_11" data-name="Path 11" d="M199.178,528.548c3.884,20.452,12.649,39.277,27.57,54.191,42.7,42.685,134.666,39.351,182,7.491,22.312-15.017,38.657-36.868,48.3-61.682Z" transform="translate(-189.207 -337.955)" fill="#e0e0e0"/>
          <path id="Path_12" data-name="Path 12" d="M486.246,492.961c.167-4.1.2-8.364,2.036-12.034s6.112-6.5,10-5.2c5.17,1.725,5.913,8.619,5.717,14.065l20.746-18.038c3.821-3.322,7.77-6.72,12.555-8.371s10.674-1.157,14.133,2.54c3.558,3.8,3.525,10.009,1.018,14.571s-7,7.707-11.664,10.009c-4.27,2.105-8.987,3.771-12.1,7.375s-3.6,10.039.444,12.546c4.594,2.846,11.3-1.214,15.768,1.824,3.673,2.5,3.152,8.473.121,11.717s-7.592,4.462-11.9,5.536l-28.2,7.03c-5.182,1.292-20.821,8.2-25.6,5.151-4.661-2.973,2.1-16.142,3.2-20.97A151.507,151.507,0,0,0,486.246,492.961Z" transform="translate(-283.65 -314.38)" fill="#b3b3b3"/>
          <g id="Group_1323" data-name="Group 1323" transform="translate(51.392)">
            <g id="Group_1322" data-name="Group 1322">
              <rect id="Rectangle_4" data-name="Rectangle 4" width="154.708" height="244.772" rx="25.811" transform="translate(19.587)" fill="#a5888a"/>
              <path id="Path_13" data-name="Path 13" d="M452.958,345.719V319.626H298.25v26.093a13.839,13.839,0,0,0,8.111-12.593,13.849,13.849,0,0,0,27.7,0,13.849,13.849,0,0,0,27.7,0,13.849,13.849,0,0,0,27.7,0,13.849,13.849,0,0,0,27.7,0A13.849,13.849,0,0,0,431,346.975h0a13.849,13.849,0,0,0,13.849-13.849A13.839,13.839,0,0,0,452.958,345.719Z" transform="translate(-278.663 -264.691)" fill="#926f73" opacity="0.4"/>
              <rect id="Rectangle_5" data-name="Rectangle 5" width="137.282" height="193.608" rx="3.035" transform="translate(28.3 29.973)" fill="#e0e0e0"/>
              <path id="Path_14" data-name="Path 14" d="M446.521,319.626H309.239v17.54a13.849,13.849,0,0,0,27.095-4.04,13.849,13.849,0,0,0,27.7,0,13.849,13.849,0,0,0,27.7,0,13.849,13.849,0,0,0,27.7,0,13.849,13.849,0,0,0,13.849,13.849h0a13.852,13.852,0,0,0,13.246-9.809Z" transform="translate(-280.939 -264.691)" fill="#f7d3c7"/>
              <path id="Path_15" data-name="Path 15" d="M414.427,262.059h-52.9a3.526,3.526,0,0,1-3.527-3.526h0a3.527,3.527,0,0,1,3.527-3.527h52.9a3.527,3.527,0,0,1,3.527,3.527h0A3.526,3.526,0,0,1,414.427,262.059Z" transform="translate(-291.039 -241.167)" fill="#daa095" opacity="0.4"/>
              <circle id="Ellipse_1" data-name="Ellipse 1" cx="3.328" cy="3.328" r="3.328" transform="translate(138.966 14.038)" fill="#daa095" opacity="0.4"/>
              <path id="Rectangle_6" data-name="Rectangle 6" d="M0,0H27.7a0,0,0,0,1,0,0V13.5A13.849,13.849,0,0,1,13.849,27.349h0A13.849,13.849,0,0,1,0,13.5V0A0,0,0,0,1,0,0Z" transform="translate(0 48.242)" fill="#f4eff4"/>
              <path id="Rectangle_7" data-name="Rectangle 7" d="M0,0H27.7a0,0,0,0,1,0,0V13.5A13.849,13.849,0,0,1,13.849,27.349h0A13.849,13.849,0,0,1,0,13.5V0A0,0,0,0,1,0,0Z" transform="translate(27.697 48.242)" fill="#daa095"/>
              <path id="Rectangle_8" data-name="Rectangle 8" d="M0,0H27.7a0,0,0,0,1,0,0V13.5A13.849,13.849,0,0,1,13.849,27.349h0A13.849,13.849,0,0,1,0,13.5V0A0,0,0,0,1,0,0Z" transform="translate(55.395 48.242)" fill="#f4eff4"/>
              <path id="Rectangle_9" data-name="Rectangle 9" d="M0,0H27.7a0,0,0,0,1,0,0V13.5A13.849,13.849,0,0,1,13.849,27.349h0A13.849,13.849,0,0,1,0,13.5V0A0,0,0,0,1,0,0Z" transform="translate(83.092 48.242)" fill="#daa095"/>
              <path id="Rectangle_10" data-name="Rectangle 10" d="M0,0H27.7a0,0,0,0,1,0,0V13.5A13.849,13.849,0,0,1,13.849,27.349h0A13.849,13.849,0,0,1,0,13.5V0A0,0,0,0,1,0,0Z" transform="translate(110.789 48.242)" fill="#f4eff4"/>
              <path id="Rectangle_11" data-name="Rectangle 11" d="M0,0H27.7a0,0,0,0,1,0,0V13.5A13.849,13.849,0,0,1,13.849,27.349h0A13.849,13.849,0,0,1,0,13.5V0A0,0,0,0,1,0,0Z" transform="translate(138.487 48.242)" fill="#daa095"/>
              <path id="Rectangle_12" data-name="Rectangle 12" d="M0,0H27.7a0,0,0,0,1,0,0V13.5A13.849,13.849,0,0,1,13.849,27.349h0A13.849,13.849,0,0,1,0,13.5V0A0,0,0,0,1,0,0Z" transform="translate(166.184 48.242)" fill="#f4eff4"/>
              <path id="Path_16" data-name="Path 16" d="M301.244,302.528h-27.7l28.3-27.175H324.96Z" transform="translate(-273.547 -245.381)" fill="#fffaff"/>
              <path id="Path_17" data-name="Path 17" d="M336.176,302.528h-27.7l23.715-27.175h19.792Z" transform="translate(-280.782 -245.381)" fill="#f7d3c7"/>
              <path id="Path_18" data-name="Path 18" d="M371.108,302.528h-27.7l15.81-27.175h19.792Z" transform="translate(-288.016 -245.381)" fill="#fffaff"/>
              <path id="Path_19" data-name="Path 19" d="M476.945,302.528h27.7l-28.3-27.175H453.229Z" transform="translate(-310.76 -245.381)" fill="#fffaff"/>
              <path id="Path_20" data-name="Path 20" d="M444.077,302.528h27.7L448.06,275.353H428.267Z" transform="translate(-305.591 -245.381)" fill="#f7d3c7"/>
              <path id="Path_21" data-name="Path 21" d="M411.21,302.528h27.7L423.1,275.353H403.305Z" transform="translate(-300.421 -245.381)" fill="#fffaff"/>
              <path id="Path_22" data-name="Path 22" d="M406.04,302.528h-27.7l7.905-27.175h11.887Z" transform="translate(-295.251 -245.381)" fill="#f7d3c7"/>
            </g>
            <rect id="Rectangle_13" data-name="Rectangle 13" width="36.128" height="35.966" rx="6.992" transform="translate(36.081 112.579)" fill="#e0e0e0"/>
            <path id="Path_82" data-name="Path 82" d="M6.992,0H114.728a6.992,6.992,0,0,1,6.992,6.992V33.07a6.992,6.992,0,0,1-6.992,6.992H6.992A6.992,6.992,0,0,1,0,33.07V6.992A6.992,6.992,0,0,1,6.992,0Z" transform="translate(36.081 149.885)" fill="#e0e0e0"/>
            <path id="Rectangle_15" data-name="Rectangle 15" d="M6.992,0H114.728a6.992,6.992,0,0,1,6.992,6.992V33.908a0,0,0,0,1,0,0H0a0,0,0,0,1,0,0V6.992A6.992,6.992,0,0,1,6.992,0Z" transform="translate(36.081 189.673)" fill="#e0e0e0"/>
            <rect id="Rectangle_16" data-name="Rectangle 16" width="36.128" height="35.966" rx="6.992" transform="translate(78.492 112.579)" fill="#c1c1e0"/>
            <rect id="Rectangle_17" data-name="Rectangle 17" width="36.128" height="35.966" rx="6.992" transform="translate(121.672 112.579)" fill="#e0e0e0"/>
          </g>
          <g id="Group_1326" data-name="Group 1326" transform="translate(178.517 142.748)">
            <rect id="Rectangle_18" data-name="Rectangle 18" width="73.255" height="72.926" rx="14.176" fill="#fff"/>
          </g>
          <g id="Group_1336" data-name="Group 1336" transform="translate(43.562 163.257)">
            <rect id="Rectangle_25" data-name="Rectangle 25" width="87.018" height="86.626" rx="16.84" fill="#fff"/>
          </g>
          <g id="Group_1339" data-name="Group 1339" transform="translate(99.741 78.542)">
            <rect id="Rectangle_33" data-name="Rectangle 33" width="96.511" height="96.077" rx="18.677" fill="#fff"/>
          </g>
          <g id="Group_1342" data-name="Group 1342" transform="translate(50.608 106.664)">
            <path id="Path_29" data-name="Path 29" d="M321.268,427.93H281.381a73.791,73.791,0,0,1-1.9,9.149,40.355,40.355,0,0,1-2.174,6.14,4.628,4.628,0,1,1-2.632-2.134c.133-.317.274-.668.42-1.056a57.452,57.452,0,0,0,2.424-8.917q.314-1.608.55-3.183h-1.081a6.045,6.045,0,0,0-4.286,1.783L269,433.449l-2.7,2.72-3.451,3.474a8.307,8.307,0,0,0,0,11.71l9.864,9.93a6.039,6.039,0,0,0,4.286,1.784h44.275a6.043,6.043,0,0,0,6.043-6.043V433.972A6.042,6.042,0,0,0,321.268,427.93Z" transform="translate(-260.428 -403.389)" fill="#daa095"/>
            <g id="Group_1340" data-name="Group 1340" transform="translate(28.237 29.567)">
              <path id="Path_30" data-name="Path 30" d="M296.04,440.26a5.742,5.742,0,0,1,.473-2.313,6.167,6.167,0,0,1,1.3-1.909,6.04,6.04,0,0,1,1.945-1.3,6.252,6.252,0,0,1,2.452-.473,6.387,6.387,0,0,1,2.47.473,6,6,0,0,1,1.962,1.3,6.154,6.154,0,0,1,1.3,1.909,5.729,5.729,0,0,1,.473,2.313,5.954,5.954,0,0,1-1.77,4.239,6.119,6.119,0,0,1-1.962,1.279,6.373,6.373,0,0,1-2.47.473,6.238,6.238,0,0,1-2.452-.473,6.167,6.167,0,0,1-1.945-1.279,5.949,5.949,0,0,1-1.769-4.239Zm3.749,0a2.507,2.507,0,0,0,.7,1.857,2.455,2.455,0,0,0,3.433,0,2.81,2.81,0,0,0,0-3.714,2.453,2.453,0,0,0-3.433,0A2.509,2.509,0,0,0,299.789,440.26Zm1.627,15.854,13.7-20.459a1.667,1.667,0,0,1,2.314-.457h0a1.667,1.667,0,0,1,.456,2.311l-13.7,20.459a1.666,1.666,0,0,1-2.313.457h0A1.667,1.667,0,0,1,301.416,456.114Zm9.479-2.751a5.729,5.729,0,0,1,.473-2.313,6.154,6.154,0,0,1,1.3-1.909,6.029,6.029,0,0,1,1.944-1.3,6.252,6.252,0,0,1,2.452-.473,6.384,6.384,0,0,1,2.47.473,6.008,6.008,0,0,1,1.962,1.3,6.167,6.167,0,0,1,1.3,1.909,5.742,5.742,0,0,1,.473,2.313,5.949,5.949,0,0,1-1.769,4.239,6.131,6.131,0,0,1-1.962,1.279,6.37,6.37,0,0,1-2.47.473,6.238,6.238,0,0,1-2.452-.473,6.154,6.154,0,0,1-1.944-1.279,5.954,5.954,0,0,1-1.77-4.239Zm3.749,0a2.508,2.508,0,0,0,.7,1.857,2.455,2.455,0,0,0,3.433,0,2.81,2.81,0,0,0,0-3.714,2.453,2.453,0,0,0-3.433,0A2.508,2.508,0,0,0,314.644,453.363Z" transform="translate(-296.04 -434.269)" fill="#c9c9c9"/>
            </g>
            <g id="Group_1341" data-name="Group 1341" transform="translate(3.712)">
              <path id="Path_31" data-name="Path 31" d="M281.313,402.054c-1.864-4.194-4.869-5.075-7.062-5.075-2.267,0-5.377.939-7.326,5.406A28.366,28.366,0,0,0,265.11,413.5a67,67,0,0,0,2.153,16.258q.18.684.374,1.347a31.929,31.929,0,0,0,2.378,6.112c.064.12.128.235.194.348,1.24,2.152,2.563,3.2,4.041,3.2,1.819,0,3.016-1.941,3.759-3.4.09-.178.182-.363.272-.555a4.64,4.64,0,0,0-2.632-2.134,9.791,9.791,0,0,1-1.512,2.705,7.722,7.722,0,0,1-1.672-2.566c-.053-.111-.105-.228-.16-.349a40.948,40.948,0,0,1-2.339-7.428c-.029-.128-.059-.258-.087-.387-1.51-6.858-1.907-13.958-1.061-18.994.825-4.914,2.651-7.406,5.432-7.406.821,0,3.322,0,4.676,4.838,1.082,3.858,1.108,9.845.117,16.43h3.307a64.783,64.783,0,0,0,.689-8.976A26.384,26.384,0,0,0,281.313,402.054Z" transform="translate(-265.11 -396.979)" fill="#c9c9c9"/>
              <path id="Path_32" data-name="Path 32" d="M285.1,427.93a73.8,73.8,0,0,1-1.9,9.149,40.358,40.358,0,0,1-2.174,6.14,4.641,4.641,0,0,0-2.632-2.134c.133-.317.274-.668.42-1.056a57.452,57.452,0,0,0,2.424-8.917q.314-1.608.549-3.183Z" transform="translate(-267.863 -403.389)" fill="#c9c9c9"/>
            </g>
          </g>
          <path id="Path_33" data-name="Path 33" d="M241.461,563.915a53.645,53.645,0,0,0-21.342-45.02c-4.993-3.683-10.612-6.467-15.513-10.271s-9.2-8.976-10-15.128c-7.191,7.957-9.3,19.642-7.261,30.17s7.792,20.018,14.667,28.248a110.09,110.09,0,0,0,45.7,32.37Z" transform="translate(-186.602 -330.696)" fill="#c9c9c9"/>
          <path id="Path_34" data-name="Path 34" d="M262.63,599.262c-1.133-17.652-11.446-33.423-23.311-46.541-6.31-6.977-13.66-14.81-12.786-24.177a36.476,36.476,0,0,0-5.163,36.6c6.024,14.092,20.152,22.672,33.432,30.324Z" transform="translate(-193.23 -337.955)" fill="#bdbdbd"/>
          <path id="Path_35" data-name="Path 35" d="M502.327,570.855c.1-2.439.121-4.978,1.212-7.161s3.637-3.87,5.952-3.1c3.077,1.027,3.519,5.129,3.4,8.371l12.346-10.735c2.274-1.977,4.624-4,7.472-4.982s6.352-.688,8.411,1.511c2.117,2.261,2.1,5.957.606,8.672s-4.163,4.586-6.942,5.956c-2.54,1.253-5.348,2.244-7.2,4.389s-2.143,5.974.265,7.467c2.734,1.694,6.723-.722,9.384,1.085,2.185,1.485,1.875,5.042.071,6.974s-4.519,2.655-7.082,3.294l-16.784,4.183c-3.084.768-12.391,4.881-15.238,3.065-2.774-1.769,1.247-9.606,1.907-12.479A90.272,90.272,0,0,0,502.327,570.855Z" transform="translate(-287.698 -342.96)" fill="#ffeee8"/>
        </g>
        <g id="Group_1632" data-name="Group 1632" transform="translate(193.681 -303.456)">
          <path id="Path_2439" data-name="Path 2439" d="M381.178,673.607a1.26,1.26,0,0,0-.938-.418h-4.06V660.91l2.863-9.047a4.124,4.124,0,1,0-8.247,0l2.863,9.047v12.279H369.6a1.261,1.261,0,0,0-1.254,1.4l1.956,18.25a1.261,1.261,0,0,0,1.254,1.127h6.732a1.261,1.261,0,0,0,1.254-1.127l1.956-18.25A1.261,1.261,0,0,0,381.178,673.607Zm-4.026,17.832h-4.465L371,675.711h7.836Z" transform="translate(-301.882 -54.022)" fill="#daa095"/>
          <path id="Path_2440" data-name="Path 2440" d="M204.519,658.689H203.46l-1.835-17.124a1.261,1.261,0,0,0-1.254-1.126H193.64a1.261,1.261,0,0,0-1.254,1.126l-1.835,17.124h-1.059a6.861,6.861,0,0,0-6.917,8.942l3.111,11.983a11.646,11.646,0,0,0,10.74,8.308h1.157a11.645,11.645,0,0,0,10.74-8.308l3.111-11.983a6.861,6.861,0,0,0-6.916-8.942Zm-18.146,13.533h5.291a5.478,5.478,0,0,0,0,2.166h-4.728Zm7.7,1.083a2.928,2.928,0,1,1,2.928,2.928A2.931,2.931,0,0,1,194.078,673.3Zm8.27-1.083h5.291l-.563,2.166h-4.728a5.469,5.469,0,0,0,0-2.166Zm-7.575-29.262h4.465l1.685,15.729h-7.836Zm-9.095,19.925a4.663,4.663,0,0,1,3.814-1.674h15.027A4.353,4.353,0,0,1,208.995,667l-.7,2.7h-7.2a5.442,5.442,0,0,0-8.167,0h-7.2l-.7-2.7A4.662,4.662,0,0,1,185.678,662.884ZM197.584,685.4h-1.157a9.166,9.166,0,0,1-8.3-6.42l-.537-2.07h5.332a5.441,5.441,0,0,0,8.167,0h5.332l-.537,2.07A9.167,9.167,0,0,1,197.584,685.4Z" transform="translate(-147.977 -47.982)" fill="#daa095"/>
        </g>
        <g id="Group_1631" data-name="Group 1631" transform="translate(-45.907 98.799)">
          <path id="Path_2428" data-name="Path 2428" d="M347.315,158.746h-.925V145.61a1.354,1.354,0,0,0-1.407-1.268V132.47a1.358,1.358,0,0,0-1.431-1.269,8.728,8.728,0,0,0-7.789,4.273,1.147,1.147,0,0,0-.13.528v8.341a1.354,1.354,0,0,0-1.407,1.268v13.136H333.3a1.358,1.358,0,0,0-1.431,1.269v17.713A1.358,1.358,0,0,0,333.3,179h14.015a1.357,1.357,0,0,0,1.431-1.269V160.015A1.357,1.357,0,0,0,347.315,158.746Zm-8.82-22.43a5.844,5.844,0,0,1,3.624-2.429v10.454H338.5Zm-1.407,10.563h6.439v11.867h-6.439Zm8.8,29.58H334.732V161.284h11.152Z" transform="translate(-103.505)" fill="#daa095"/>
          <path id="Path_2429" data-name="Path 2429" d="M379.567,326.143A1.432,1.432,0,0,0,381,324.711V313.345a1.432,1.432,0,0,0-2.863,0v11.366A1.432,1.432,0,0,0,379.567,326.143Z" transform="translate(-140.698 -151.399)" fill="#daa095"/>
          <path id="Path_2430" data-name="Path 2430" d="M224.353,281.8H223v-3.643a1.431,1.431,0,0,0-1.431-1.431h-8.446a1.431,1.431,0,0,0-1.432,1.431V281.8h-1.353a1.431,1.431,0,0,0-1.431,1.431v17.445a1.431,1.431,0,0,0,1.431,1.432h14.015a1.432,1.432,0,0,0,1.432-1.432V283.232A1.431,1.431,0,0,0,224.353,281.8Zm-9.8-2.211h5.583V281.8h-5.583Zm8.368,19.656H211.77V284.664h11.152Z" transform="translate(0 -123.112)" fill="#daa095"/>
        </g>
        <g id="Group_1633" data-name="Group 1633" transform="translate(-180.167 -26.807)">
          <path id="Path_2455" data-name="Path 2455" d="M812.81,1176.719a17.269,17.269,0,0,0-8.154-4.6v-3.388h1.28a1.3,1.3,0,0,0,1.3-1.3v-6.618a1.3,1.3,0,0,0-.638-1.118,13.532,13.532,0,0,0-12.149,0,1.3,1.3,0,0,0-.638,1.118v6.618a1.3,1.3,0,0,0,1.3,1.3h1.28v3.388a17.384,17.384,0,1,0,16.422,4.6Zm-16.4-15.08a11.212,11.212,0,0,1,8.23,0v4.5h-8.23Zm2.578,7.095h3.073v2.963c-.508-.044-1.021-.068-1.537-.068s-1.029.024-1.537.068Zm1.537,35.054a14.781,14.781,0,1,1,14.781-14.781A14.8,14.8,0,0,1,800.522,1203.788Z" transform="translate(-497.977 -817.684)" fill="#daa095"/>
          <path id="Path_2456" data-name="Path 2456" d="M874.834,1262.615a1.3,1.3,0,0,0,0,2.6,9.6,9.6,0,0,1,9.587,9.586,1.3,1.3,0,1,0,2.6,0A12.2,12.2,0,0,0,874.834,1262.615Z" transform="translate(-572.289 -903.475)" fill="#daa095"/>
          <path id="Path_2457" data-name="Path 2457" d="M926.136,1158.071a1.3,1.3,0,0,0,.5-.1l3.723-1.537a1.3,1.3,0,0,0-.992-2.4l-3.722,1.537a1.3,1.3,0,0,0,.5,2.5Z" transform="translate(-614.464 -814.129)" fill="#daa095"/>
          <path id="Path_2458" data-name="Path 2458" d="M925.64,1200.718l3.722,1.537a1.3,1.3,0,1,0,.992-2.4l-3.723-1.538a1.3,1.3,0,1,0-.991,2.4Z" transform="translate(-614.464 -850.534)" fill="#daa095"/>
          <path id="Path_2459" data-name="Path 2459" d="M926.137,1180.4a1.3,1.3,0,1,0,0,2.6h4.412a1.3,1.3,0,0,0,0-2.6Z" transform="translate(-614.466 -835.884)" fill="#daa095"/>
        </g>
      </g>
    </g>
  </g>
</svg>
