<svg xmlns="http://www.w3.org/2000/svg" width="302" height="271.415" viewBox="0 0 302 271.415">
  <g id="Group_1359" data-name="Group 1359" transform="translate(0)">
    <path id="Path_36" data-name="Path 36" d="M1078.477,499.8c.127-.135.257-.268.383-.4q3.224-3.452,6.141-7.09c.088-.11.178-.22.266-.331q2.946-3.692,5.572-7.556c.051-.074.1-.148.152-.222q2.655-3.92,4.981-8l.06-.105q2.351-4.126,4.357-8.393h0c18.724-39.8,14.825-87.865-16.12-125.484-26.086-31.713-72.239-16.422-107.859-27.839-43.865-14.06-67.213-22.394-107.266,8.91-45.947,35.911-76.012,111.2-49.517,164.846.043.086.088.171.13.256q.718,1.441,1.489,2.861c.115.211.236.42.353.631.453.816.917,1.629,1.4,2.434.167.28.34.558.511.836.447.729.9,1.456,1.373,2.176.209.32.422.637.636.956q.677,1.006,1.383,2,.367.517.744,1.029.693.942,1.415,1.869c.277.357.555.713.839,1.067.477.6.969,1.186,1.465,1.773.3.361.607.722.918,1.079.5.576,1.021,1.144,1.542,1.711.325.354.645.71.976,1.06.541.571,1.1,1.133,1.661,1.694.332.332.656.669.994,1,.619.6,1.261,1.193,1.9,1.784.3.275.588.555.891.828q1.433,1.284,2.939,2.531a92.207,92.207,0,0,0,9.561,6.891,110.684,110.684,0,0,0,10.7,5.92,135.582,135.582,0,0,0,14.735,6.07c5.134,1.781,10.473,3.323,15.969,4.634q1.648.393,3.316.759,3.333.731,6.733,1.353c6.8,1.242,13.776,2.159,20.849,2.762q3.538.3,7.1.5c7.127.4,14.32.482,21.492.273,5.977-.174,11.939-.554,17.838-1.131a247.919,247.919,0,0,0,27.614-4.257,207.369,207.369,0,0,0,22.388-6.065q1.519-.508,3.012-1.037,2.986-1.058,5.86-2.2a137.537,137.537,0,0,0,16.1-7.561c1.387-.772,2.746-1.57,4.093-2.38q.524-.316,1.043-.636,1.814-1.113,3.578-2.269c.132-.086.267-.17.4-.257,1.3-.859,2.565-1.74,3.819-2.634.3-.211.587-.425.881-.638q1.64-1.191,3.234-2.421c.169-.132.343-.26.511-.391q1.825-1.427,3.582-2.906c.217-.182.43-.367.646-.551q1.557-1.325,3.061-2.688c.159-.143.32-.285.478-.429q1.72-1.576,3.37-3.2c.119-.117.234-.236.352-.353Q1077.016,501.354,1078.477,499.8Z" transform="translate(-809.717 -275.562)" fill="#f0f0f0"/>
    <path id="Path_37" data-name="Path 37" d="M1091.566,401.118h-19.23v49.831H1056.2v29.225H1035.7V390.015l-44.529,35.617v55.934h-29.48V447.458H924.859v-32.8l-22.264-10.685v-30h-8.32v26.005L880.33,393.29v36.894H845.374V363.677c-31.417,38.4-47.3,94.838-25.746,137.338.043.083.088.166.13.249q.718,1.4,1.489,2.786c.115.206.236.409.353.614.453.795.917,1.586,1.4,2.37.167.273.34.543.511.814.447.71.9,1.418,1.373,2.119.209.311.422.62.636.93q.677.98,1.383,1.945.367.5.744,1,.693.917,1.415,1.82c.277.348.555.695.839,1.039.477.581.969,1.155,1.465,1.727.3.351.607.7.918,1.051.5.561,1.021,1.114,1.542,1.666.325.345.645.691.976,1.032.541.556,1.1,1.1,1.661,1.649.332.323.656.651.994.971.619.586,1.261,1.162,1.9,1.737.3.268.588.541.891.806q1.433,1.25,2.939,2.465a92.167,92.167,0,0,0,9.561,6.71,111.594,111.594,0,0,0,10.7,5.764,137.67,137.67,0,0,0,14.734,5.91c5.134,1.734,10.473,3.235,15.969,4.512q1.648.383,3.315.739,3.333.712,6.733,1.317c6.8,1.21,13.776,2.1,20.848,2.689q3.538.293,7.1.486c7.127.385,14.32.469,21.492.266,5.977-.17,11.939-.539,17.838-1.1a255.414,255.414,0,0,0,25.449-3.71l8.818-1.932c5.422-1.3,10.688-2.765,15.734-4.408q1.519-.495,3.012-1.009,2.985-1.03,5.86-2.141a139.284,139.284,0,0,0,16.1-7.361c1.387-.752,2.747-1.529,4.093-2.317q.525-.308,1.043-.619,1.814-1.083,3.578-2.209c.132-.084.267-.165.4-.25,1.3-.836,2.565-1.694,3.818-2.564.3-.206.588-.414.881-.621q1.64-1.159,3.234-2.357c.169-.128.343-.253.511-.381q1.825-1.389,3.582-2.829c.217-.177.43-.358.646-.536q1.557-1.29,3.061-2.617c.159-.14.32-.278.477-.418q1.72-1.534,3.37-3.116c.119-.114.234-.229.352-.343q1.523-1.471,2.984-2.983c.127-.131.256-.261.383-.394q3.224-3.36,6.141-6.9c.088-.108.178-.214.266-.322q2.946-3.594,5.572-7.357c.051-.072.1-.144.152-.217q2.655-3.817,4.981-7.786l.06-.1q2.351-4.018,4.357-8.172h0c17.132-35.454,15.309-77.641-8.824-112.615Z" transform="translate(-809.717 -286.891)" fill="#e0e0e0"/>
    <g id="Group_1354" data-name="Group 1354" transform="translate(14.306 29.922)">
      <g id="Group_1344" data-name="Group 1344" transform="translate(155.136 25.52)">
        <rect id="Rectangle_39" data-name="Rectangle 39" width="48.437" height="43.889" rx="6.795" transform="matrix(1, -0.022, 0.022, 1, 1.407, 1.083)" fill="#daa095"/>
        <rect id="Rectangle_40" data-name="Rectangle 40" width="51.251" height="9.506" rx="3.147" transform="matrix(1, -0.022, 0.022, 1, 0, 1.113)" fill="#926f73"/>
        <rect id="Rectangle_41" data-name="Rectangle 41" width="6.099" height="43.889" transform="matrix(1, -0.022, 0.022, 1, 22.571, 0.623)" fill="#f7d3c7"/>
        <rect id="Rectangle_42" data-name="Rectangle 42" width="6.099" height="48.437" transform="matrix(-0.022, -1, 1, -0.022, 1.999, 28.344)" fill="#f7d3c7"/>
      </g>
      <g id="Group_1345" data-name="Group 1345" transform="translate(90.788 60.328)">
        <rect id="Rectangle_43" data-name="Rectangle 43" width="105.619" height="95.703" rx="6.795" transform="matrix(0.994, 0.11, -0.11, 0.994, 10.534, 0.338)" fill="#926f73"/>
        <rect id="Rectangle_44" data-name="Rectangle 44" width="111.756" height="20.729" rx="3.147" transform="matrix(0.994, 0.11, -0.11, 0.994, 7.484, 0)" fill="#926f73"/>
      </g>
      <g id="Group_1348" data-name="Group 1348" transform="translate(54.726)">
        <g id="Group_1346" data-name="Group 1346" transform="translate(8.36 10.955)">
          <path id="Path_38" data-name="Path 38" d="M918.852,382.423c-5.778,0-10.461-2.822-12.8-7.975-2.428-5.337-2.047-11.133.992-15.125,2.777-3.648,7.351-5.265,12.549-4.442,9.348,1.487,16.66,8.5,23.171,15.857a3.923,3.923,0,0,1,.948,2.073,3.99,3.99,0,0,1-3.116,4.372l-16.29,4.467A20.648,20.648,0,0,1,918.852,382.423Zm-1.9-19.924a4.416,4.416,0,0,0-3.684,1.568c-1.27,1.669-1.307,4.471-.094,7.138.992,2.181,3.367,4.455,9.055,2.893l10.312-2.828c-4.348-4.327-9.036-7.836-14.183-8.654A9.008,9.008,0,0,0,916.955,362.5Z" transform="translate(-904.462 -354.672)" fill="#926f73"/>
        </g>
        <g id="Group_1347" data-name="Group 1347" transform="translate(39.809)">
          <path id="Path_39" data-name="Path 39" d="M946.88,374.793a3.914,3.914,0,0,1-3.846-4.651c1.847-9.649,4.559-19.412,11.841-25.458,4.05-3.362,8.81-4.3,13.059-2.582,4.651,1.884,7.934,6.674,8.569,12.5.8,7.313-3.812,13.255-12.027,15.506l-16.56,4.542A3.91,3.91,0,0,1,946.88,374.793Zm16.735-25.7a6.165,6.165,0,0,0-3.738,1.617c-4.01,3.329-6.251,8.739-7.784,14.678L962.4,362.56c5.688-1.559,6.572-4.725,6.313-7.107-.317-2.914-1.778-5.3-3.722-6.092A3.644,3.644,0,0,0,963.615,349.093Z" transform="translate(-942.964 -341.261)" fill="#926f73"/>
        </g>
        <rect id="Rectangle_45" data-name="Rectangle 45" width="85.699" height="77.653" rx="6.795" transform="translate(2.401 40.949) rotate(-15.335)" fill="#926f73"/>
        <rect id="Rectangle_46" data-name="Rectangle 46" width="90.679" height="16.82" rx="3.147" transform="translate(0 41.607) rotate(-15.335)" fill="#daa095"/>
        <rect id="Rectangle_47" data-name="Rectangle 47" width="10.79" height="77.653" transform="translate(38.522 31.044) rotate(-15.335)" fill="#f7d3c7"/>
        <rect id="Rectangle_48" data-name="Rectangle 48" width="10.79" height="85.699" transform="translate(15.16 87.476) rotate(-105.335)" fill="#f7d3c7"/>
      </g>
      <g id="Group_1349" data-name="Group 1349" transform="translate(45.261 65.435)">
        <path id="Path_40" data-name="Path 40" d="M1042.595,526.338H916.9a4.893,4.893,0,0,1-4.676-3.452L882.858,427.7a4.894,4.894,0,0,1,4.676-6.337h184.427a4.893,4.893,0,0,1,4.677,6.337l-29.366,95.182A4.895,4.895,0,0,1,1042.595,526.338Zm-122.081-9.789h118.469l26.346-85.393H894.168Z" transform="translate(-882.641 -421.367)" fill="#daa095"/>
      </g>
      <g id="Group_1350" data-name="Group 1350" transform="translate(74.628 160.635)">
        <path id="Path_41" data-name="Path 41" d="M1049.362,547.7H923.487a4.895,4.895,0,1,1,0-9.789h125.876a4.895,4.895,0,0,1,0,9.789Z" transform="translate(-918.592 -537.914)" fill="#daa095"/>
      </g>
      <g id="Group_1351" data-name="Group 1351" transform="translate(54.943 97.069)">
        <path id="Path_42" data-name="Path 42" d="M1061.754,469.884H899.388a4.895,4.895,0,0,1,0-9.789h162.367a4.895,4.895,0,0,1,0,9.789Z" transform="translate(-894.493 -460.095)" fill="#daa095"/>
      </g>
      <g id="Group_1352" data-name="Group 1352" transform="translate(65.578 131.494)">
        <path id="Path_43" data-name="Path 43" d="M1056.136,512.027H912.408a4.895,4.895,0,1,1,0-9.789h143.729a4.895,4.895,0,0,1,0,9.789Z" transform="translate(-907.513 -502.238)" fill="#daa095"/>
      </g>
      <circle id="Ellipse_4" data-name="Ellipse 4" cx="14.68" cy="14.68" r="14.68" transform="translate(73.785 197)" fill="#926f73"/>
      <circle id="Ellipse_5" data-name="Ellipse 5" cx="10.3" cy="10.3" r="10.3" transform="translate(0 34.334)" fill="#daa095"/>
      <g id="Group_1353" data-name="Group 1353" transform="translate(5.405 39.74)">
        <path id="Path_44" data-name="Path 44" d="M1032.5,543.914H891.883a16.554,16.554,0,0,1-.387-33.1L857.169,399.7H838.743a4.895,4.895,0,1,1,0-9.789h22.037a4.894,4.894,0,0,1,4.677,3.45l37.156,120.27a4.9,4.9,0,0,1-4.436,6.965h-6.293a6.765,6.765,0,0,0,0,13.529H1032.5a4.895,4.895,0,1,1,0,9.789Z" transform="translate(-833.848 -389.911)" fill="#a5888a"/>
      </g>
      <path id="Path_45" data-name="Path 45" d="M928.444,598.564,917.56,573.9h29.359l-10.884,24.665C934.293,602.512,930.186,602.512,928.444,598.564Z" transform="translate(-843.775 -383.869)" fill="#a5888a"/>
      <circle id="Ellipse_6" data-name="Ellipse 6" cx="14.68" cy="14.68" r="14.68" transform="translate(170.288 197)" fill="#926f73"/>
      <path id="Path_46" data-name="Path 46" d="M1046.585,598.564,1035.7,573.9h29.36l-10.884,24.665C1052.434,602.512,1048.328,602.512,1046.585,598.564Z" transform="translate(-865.413 -383.869)" fill="#a5888a"/>
    </g>
    <path id="Path_47" data-name="Path 47" d="M862.656,579.451c-.721-2.409-1.392-4.937-3.038-6.839s-4.618-2.933-6.732-1.571c-2.808,1.811-2.2,6.018-1.257,9.223L836.565,572.7c-2.775-1.392-5.636-2.81-8.73-3.063s-6.515.935-8.008,3.656c-1.535,2.8-.572,6.482,1.611,8.81s5.327,3.514,8.449,4.172c2.856.6,5.911.874,8.306,2.541s3.665,5.416,1.643,7.519c-2.3,2.389-6.895,1-9.088,3.481-1.8,2.04-.584,5.512,1.71,6.978s5.188,1.5,7.91,1.479l17.82-.112c3.274-.02,13.613,1.707,15.991-.832,2.317-2.474-3.7-9.269-5.091-11.968A93.017,93.017,0,0,1,862.656,579.451Z" transform="translate(-811.432 -353.161)" fill="#b3b3b3"/>
    <path id="Path_48" data-name="Path 48" d="M873.494,612.834l-10.434-6.919c-1.267-.841-2.615-1.782-3.1-3.222-.8-2.36,1.248-4.926,3.655-5.578s4.953.072,7.312.876a103.762,103.762,0,0,1,21.611,10.283c-1.03-3.246-2.07-6.7-1.237-10s4.333-6.175,7.545-5.041c7.457,2.634,11.221,21.445,4.331,26.279C894.215,625.794,881,617.759,873.494,612.834Z" transform="translate(-818.886 -357.442)" fill="#c7c7c7"/>
    <path id="Path_49" data-name="Path 49" d="M1081.219,584.641a55.263,55.263,0,0,1,31.807-40.284c5.863-2.548,12.146-4.047,17.944-6.737s11.3-6.893,13.533-12.884c5.385,9.647,4.81,21.865.335,31.967s-12.437,18.3-21.238,24.983a113.426,113.426,0,0,1-53.348,21.968Z" transform="translate(-873.738 -344.943)" fill="#c9c9c9"/>
    <path id="Path_50" data-name="Path 50" d="M1057.878,614.44c5.206-17.462,19.2-30.92,34.134-41.357,7.944-5.551,17.13-11.723,18.411-21.329a37.578,37.578,0,0,1-3.251,37.937c-9.3,12.761-25.461,18.119-40.558,22.742Z" transform="translate(-867.779 -349.891)" fill="#bdbdbd"/>
    <g id="Group_1356" data-name="Group 1356" transform="translate(42.268)">
      <path id="Rectangle_49" data-name="Rectangle 49" d="M9.178,0H76.73a9.178,9.178,0,0,1,9.178,9.178V43.34a9.179,9.179,0,0,1-9.179,9.179H9.178A9.178,9.178,0,0,1,0,43.34V9.178A9.178,9.178,0,0,1,9.178,0Z" fill="#a5888a"/>
      <rect id="Rectangle_50" data-name="Rectangle 50" width="85.908" height="10.046" transform="translate(0 10.835)" fill="#daa095"/>
      <rect id="Rectangle_51" data-name="Rectangle 51" width="45.247" height="8.109" rx="4.055" transform="translate(6.76 25.55)" fill="#fff"/>
      <rect id="Rectangle_52" data-name="Rectangle 52" width="20.133" height="8.109" rx="4.055" transform="translate(56.98 25.55)" fill="#fff"/>
      <path id="Path_51" data-name="Path 51" d="M945.656,319.079H908.579a1.31,1.31,0,0,1-1.31-1.309h0a1.309,1.309,0,0,1,1.31-1.309h37.077a1.309,1.309,0,0,1,1.31,1.309h0A1.31,1.31,0,0,1,945.656,319.079Z" transform="translate(-869.852 -278.243)" fill="#f7d3c7"/>
      <g id="Group_1355" data-name="Group 1355" transform="translate(7.957 43.339)">
        <path id="Path_52" data-name="Path 52" d="M950.061,325.35H932.627a1.31,1.31,0,0,1-1.309-1.309h0a1.31,1.31,0,0,1,1.309-1.31h17.433a1.31,1.31,0,0,1,1.31,1.31h0A1.31,1.31,0,0,1,950.061,325.35Z" transform="translate(-882.213 -322.73)" fill="#f7d3c7"/>
        <path id="Path_53" data-name="Path 53" d="M922.912,325.35h-9.122a1.31,1.31,0,0,1-1.309-1.309h0a1.31,1.31,0,0,1,1.309-1.31h9.122a1.31,1.31,0,0,1,1.31,1.31h0A1.31,1.31,0,0,1,922.912,325.35Z" transform="translate(-878.763 -322.73)" fill="#f7d3c7"/>
        <path id="Path_54" data-name="Path 54" d="M898.2,325.35H872.513a1.31,1.31,0,0,1-1.31-1.309h0a1.31,1.31,0,0,1,1.31-1.31H898.2a1.31,1.31,0,0,1,1.309,1.31h0A1.31,1.31,0,0,1,898.2,325.35Z" transform="translate(-871.203 -322.73)" fill="#f7d3c7"/>
      </g>
    </g>
    <g id="Group_1358" data-name="Group 1358" transform="translate(191.984 19.598)">
      <path id="Path_55" data-name="Path 55" d="M1142.185,293.666H1080.01a12.5,12.5,0,0,1,12.5,12.5v74.371a1.593,1.593,0,0,0,.347.992l4.188,5.256a.791.791,0,0,0,1.236,0l3.948-4.924a.792.792,0,0,1,1.234,0l3.949,4.926a.791.791,0,0,0,1.234,0l3.95-4.926a.791.791,0,0,1,1.234,0l3.95,4.926a.791.791,0,0,0,1.234,0l3.95-4.926a.791.791,0,0,1,1.234,0l3.949,4.926a.791.791,0,0,0,1.234,0l3.949-4.926a.792.792,0,0,1,1.234,0l3.95,4.926a.791.791,0,0,0,1.234,0l3.95-4.926a.791.791,0,0,1,1.234,0l3.949,4.926a.791.791,0,0,0,1.234,0l4.217-5.259a1.594,1.594,0,0,0,.35-1V306.165A12.5,12.5,0,0,0,1142.185,293.666Z" transform="translate(-1067.509 -293.666)" fill="#f7d3c7"/>
      <path id="Path_56" data-name="Path 56" d="M1089.708,306.167a12.5,12.5,0,0,0-12.5-12.5h0a12.5,12.5,0,0,0-12.5,12.5v15.27a1.849,1.849,0,0,0,.368,1.107l3.657,4.9a1.027,1.027,0,0,0,1.63.019l3.431-4.379a1.026,1.026,0,0,1,1.615,0l3.452,4.4a1.026,1.026,0,0,0,1.616,0l3.444-4.395a1.026,1.026,0,0,1,1.621.007l4.168,5.418Z" transform="translate(-1064.706 -293.666)" fill="#daa095"/>
      <g id="Group_1357" data-name="Group 1357" transform="translate(71.268 61.914)">
        <path id="Path_57" data-name="Path 57" d="M1156.786,386.864v-.9a9.3,9.3,0,0,1-4.285-1.546,1.237,1.237,0,0,1-.257-1.822h0a1.233,1.233,0,0,1,1.644-.225,6.992,6.992,0,0,0,2.9,1.213v-4.235a8.928,8.928,0,0,1-3.614-1.55,3.509,3.509,0,0,1-1.146-2.85,3.984,3.984,0,0,1,1.322-3.089,5.346,5.346,0,0,1,3.438-1.31v-.393a.7.7,0,0,1,.7-.7h0a.7.7,0,0,1,.7.7v.415a8.853,8.853,0,0,1,3.4.956,1.166,1.166,0,0,1,.416,1.711l-.06.086a1.18,1.18,0,0,1-1.518.348,6.913,6.913,0,0,0-2.236-.722v4.105h.065a8.86,8.86,0,0,1,3.691,1.594,3.619,3.619,0,0,1,1.179,2.915,3.965,3.965,0,0,1-1.354,3.111,5.628,5.628,0,0,1-3.581,1.309v.874a.7.7,0,0,1-.7.7h0A.7.7,0,0,1,1156.786,386.864Zm-1.539-13.4a1.567,1.567,0,0,0-.557,1.223,1.538,1.538,0,0,0,.437,1.157,4.42,4.42,0,0,0,1.659.819v-3.778A2.614,2.614,0,0,0,1155.247,373.469Zm4.6,9.574a1.686,1.686,0,0,0,.131-2.478,4.762,4.762,0,0,0-1.79-.84v3.93A3.053,3.053,0,0,0,1159.843,383.043Z" transform="translate(-1151.954 -369.462)" fill="#daa095"/>
      </g>
      <rect id="Rectangle_53" data-name="Rectangle 53" width="35.679" height="4.231" rx="2.116" transform="translate(32.671 13.194)" fill="#daa095"/>
      <rect id="Rectangle_54" data-name="Rectangle 54" width="22.605" height="4.231" rx="2.116" transform="translate(32.671 25.119)" fill="#daa095"/>
      <rect id="Rectangle_55" data-name="Rectangle 55" width="9.207" height="4.231" rx="2.116" transform="translate(73.182 25.119)" fill="#daa095"/>
      <rect id="Rectangle_56" data-name="Rectangle 56" width="9.207" height="4.231" rx="2.116" transform="translate(73.182 42.478)" fill="#daa095"/>
      <rect id="Rectangle_57" data-name="Rectangle 57" width="13.361" height="4.231" rx="2.116" transform="translate(69.028 51.346)" fill="#daa095"/>
      <rect id="Rectangle_58" data-name="Rectangle 58" width="17.168" height="4.231" rx="2.116" transform="translate(32.671 33.799)" fill="#daa095"/>
      <rect id="Rectangle_59" data-name="Rectangle 59" width="26.715" height="4.231" rx="2.116" transform="translate(32.671 42.478)" fill="#daa095"/>
      <rect id="Rectangle_60" data-name="Rectangle 60" width="22.605" height="4.231" rx="2.116" transform="translate(32.671 51.346)" fill="#daa095"/>
      <rect id="Rectangle_61" data-name="Rectangle 61" width="22.605" height="4.231" rx="2.116" transform="translate(32.671 68.848)" fill="#daa095"/>
      <rect id="Rectangle_62" data-name="Rectangle 62" width="14.767" height="4.231" rx="2.116" transform="translate(67.622 33.799)" fill="#daa095"/>
    </g>
  </g>
</svg>
