<svg id="_1._Icons_Line_add-item-alt_Copy" data-name="1. Icons / Line /  add-item-alt Copy" xmlns="http://www.w3.org/2000/svg" width="16" height="16" viewBox="0 0 16 16">
  <path id="user" d="M9,10.666H1.667A1.669,1.669,0,0,1,0,9V8.525A1.67,1.67,0,0,1,.977,7.007l2.3-1.047a3.333,3.333,0,1,1,4.1,0l2.3,1.047a1.671,1.671,0,0,1,.977,1.517V9A1.669,1.669,0,0,1,9,10.666ZM3.974,6.377,1.253,7.614a1,1,0,0,0-.587.911V9a1,1,0,0,0,1,1H9a1,1,0,0,0,1-1V8.525a1,1,0,0,0-.587-.911L6.692,6.377a3.283,3.283,0,0,1-1.351.289H5.325a3.287,3.287,0,0,1-1.351-.289ZM5.333.666A2.667,2.667,0,1,0,8,3.333,2.67,2.67,0,0,0,5.333.666Z" transform="translate(2.667 2.667)" fill="#c5cee0"/>
</svg>
