<svg id="_1._Icons_Line_add-item-alt_Copy_2" data-name="1. Icons / Line /  add-item-alt Copy 2" xmlns="http://www.w3.org/2000/svg" width="16" height="16" viewBox="0 0 16 16">
  <path id="phone" d="M11.666,13.339H10.333a10.266,10.266,0,0,1-7.307-3.027A10.266,10.266,0,0,1,0,3.005V1.667A1.669,1.669,0,0,1,1.667,0h2.2A1.661,1.661,0,0,1,5.515,1.393l.307,1.847a1.559,1.559,0,0,1-1.05,1.743l-.4.134a.334.334,0,0,0-.217.4l.418,1.534a2.617,2.617,0,0,0,1.7,1.8l1.018.339a.334.334,0,0,0,.383-.131l.486-.729a1.666,1.666,0,0,1,1.913-.656l2.122.707a1.664,1.664,0,0,1,1.139,1.582v1.71a1.656,1.656,0,0,1-.488,1.179A1.681,1.681,0,0,1,11.666,13.339ZM1.667.667a1,1,0,0,0-1,1V3A9.6,9.6,0,0,0,3.5,9.84a9.6,9.6,0,0,0,6.835,2.831h1.333a1,1,0,0,0,1-1V9.961a1,1,0,0,0-.684-.949L9.86,8.305A1,1,0,0,0,8.713,8.7l-.487.729a1,1,0,0,1-1.148.394L6.061,9.482A3.28,3.28,0,0,1,3.929,7.229L3.511,5.7a1,1,0,0,1,.648-1.211l.4-.134a.9.9,0,0,0,.6-1L4.856,1.5A1,1,0,0,0,3.87.667Z" transform="translate(1.333 1.333)" fill="#c5cee0"/>
</svg>
