<svg xmlns="http://www.w3.org/2000/svg" width="32" height="32" viewBox="0 0 32 32">
  <g id="Group_1639" data-name="Group 1639" transform="translate(-28 -141)">
    <rect id="Rectangle" width="32" height="32" rx="10" transform="translate(28 141)" fill="#daa095"/>
    <g id="Group_1638" data-name="Group 1638">
      <path id="Path_2600" data-name="Path 2600" d="M10,2.792l5.444,2.545V9.182A8.551,8.551,0,0,1,10,17.306,8.551,8.551,0,0,1,4.556,9.182V5.336L10,2.792M10,1,3,4.273V9.182C3,13.723,5.987,17.969,10,19c4.013-1.031,7-5.277,7-9.818V4.273L10,1ZM9.222,5.909h1.556V7.545H9.222Zm0,3.273h1.556v4.909H9.222Z" transform="translate(34 147)" fill="#fff"/>
    </g>
  </g>
</svg>
