<svg id="Group_1640" data-name="Group 1640" xmlns="http://www.w3.org/2000/svg" width="32" height="32" viewBox="0 0 32 32">
  <g id="Group">
    <rect id="Rectangle" width="32" height="32" rx="10" fill="#daa095"/>
    <g id="_01_Icons_Line_checkmark-circle" data-name="01) Icons/Line/checkmark-circle" transform="translate(6 6)">
      <path id="cog" d="M8.359,16.667h-1.3a1.248,1.248,0,0,1-1.186-.855l-.4-1.195a6.644,6.644,0,0,1-2.089-1.208l-1.237.253a1.25,1.25,0,0,1-1.333-.6L.168,11.938a1.249,1.249,0,0,1,.148-1.454l.836-.943a6.705,6.705,0,0,1,0-2.414L.315,6.183A1.248,1.248,0,0,1,.168,4.729L.818,3.6A1.249,1.249,0,0,1,2.151,3l1.235.253A6.656,6.656,0,0,1,5.476,2.05l.4-1.195A1.25,1.25,0,0,1,7.059,0h1.3A1.247,1.247,0,0,1,9.543.855l.4,1.195a6.644,6.644,0,0,1,2.09,1.208l1.238-.253a1.249,1.249,0,0,1,1.333.6l.649,1.124A1.246,1.246,0,0,1,15.1,6.183l-.837.943a6.671,6.671,0,0,1,0,2.414l.837.943a1.248,1.248,0,0,1,.147,1.454L14.6,13.063a1.25,1.25,0,0,1-1.333.6l-1.236-.253a6.643,6.643,0,0,1-2.09,1.207l-.4,1.195A1.247,1.247,0,0,1,8.359,16.667ZM3.506,12.542a.415.415,0,0,1,.281.109,5.79,5.79,0,0,0,2.145,1.24.419.419,0,0,1,.269.266l.463,1.391a.417.417,0,0,0,.4.285h1.3a.417.417,0,0,0,.4-.285l.464-1.391a.418.418,0,0,1,.269-.266,5.79,5.79,0,0,0,2.145-1.24.414.414,0,0,1,.281-.109A.423.423,0,0,1,12,12.55l1.439.3a.418.418,0,0,0,.446-.2l.649-1.125a.416.416,0,0,0-.05-.485l-.973-1.1a.419.419,0,0,1-.1-.365,5.9,5.9,0,0,0,0-2.48.421.421,0,0,1,.1-.364l.974-1.1a.417.417,0,0,0,.049-.485l-.65-1.125a.418.418,0,0,0-.444-.2L12,4.116a.423.423,0,0,1-.083.008.414.414,0,0,1-.281-.109,5.8,5.8,0,0,0-2.145-1.24.42.42,0,0,1-.27-.266L8.754,1.118a.417.417,0,0,0-.4-.285H7.06a.417.417,0,0,0-.4.285L6.2,2.51a.419.419,0,0,1-.269.266,5.871,5.871,0,0,0-2.145,1.24.417.417,0,0,1-.281.109.423.423,0,0,1-.083-.008l-1.438-.3a.417.417,0,0,0-.445.2L.89,5.146a.418.418,0,0,0,.05.485l.973,1.1a.421.421,0,0,1,.1.364,5.9,5.9,0,0,0,0,2.48.419.419,0,0,1-.1.365l-.974,1.1a.417.417,0,0,0-.049.485l.65,1.125a.416.416,0,0,0,.444.2l1.439-.3A.423.423,0,0,1,3.506,12.542Zm4.2-.875a3.333,3.333,0,1,1,3.333-3.334A3.338,3.338,0,0,1,7.71,11.667Zm0-5.833a2.5,2.5,0,1,0,2.5,2.5A2.5,2.5,0,0,0,7.71,5.833Z" transform="translate(2.291 1.667)" fill="#fff"/>
    </g>
  </g>
</svg>
