<svg id="Group_1641" data-name="Group 1641" xmlns="http://www.w3.org/2000/svg" width="32" height="32" viewBox="0 0 32 32">
  <g id="Group">
    <rect id="Rectangle" width="32" height="32" rx="10" fill="#daa095"/>
    <g id="_01_Icons_Line_checkmark-circle" data-name="01) Icons/Line/checkmark-circle" transform="translate(6 6)">
      <path id="shopping-bag-alt" d="M12.923,15H2.083A2.086,2.086,0,0,1,0,12.916V1.666A1.668,1.668,0,0,1,1.666,0H13.333a1.658,1.658,0,0,1,1.658,1.593c0,.007,0,.014.006.021a.154.154,0,0,1,.009.045V12.916A2.086,2.086,0,0,1,12.923,15ZM.833,3.1v9.814a1.252,1.252,0,0,0,1.25,1.25h10.84a1.252,1.252,0,0,0,1.25-1.25V3.1a1.66,1.66,0,0,1-.84.234H1.666A1.638,1.638,0,0,1,.833,3.1ZM1.666.833a.833.833,0,0,0,0,1.666H13.333a.833.833,0,1,0,0-1.666ZM7.5,8.333A3.337,3.337,0,0,1,4.167,5H3.75a.417.417,0,1,1,0-.833H5.417a.417.417,0,1,1,0,.833H5a2.5,2.5,0,1,0,5,0H9.583a.417.417,0,1,1,0-.833H11.25a.417.417,0,1,1,0,.833h-.417A3.337,3.337,0,0,1,7.5,8.333Z" transform="translate(2.5 2.5)" fill="#fff"/>
    </g>
  </g>
</svg>
