<svg xmlns="http://www.w3.org/2000/svg" width="32" height="32" viewBox="0 0 32 32">
  <g id="Group_1641" data-name="Group 1641" transform="translate(-29 -289)">
    <rect id="Rectangle" width="32" height="32" rx="10" transform="translate(29 289)" fill="#daa095"/>
    <g id="Twitter_black" transform="translate(35 295)">
      <g id="Twitter">
        <path id="Combined-Shape" d="M10,20A10,10,0,0,1,6.108.786a10,10,0,0,1,7.785,18.428A9.937,9.937,0,0,1,10,20ZM5.321,8.843c-.011,0-.017,0-.02.006a2.516,2.516,0,0,0,.252.946,2.256,2.256,0,0,0,.958.9l.343.162-.406.007c-.251,0-.341,0-.37.041s-.009.061.006.115a2.111,2.111,0,0,0,1.308,1.158l.434.149-.378.226a3.966,3.966,0,0,1-1.875.523A2.12,2.12,0,0,0,5,13.135a5.279,5.279,0,0,0,1.35.621A5.656,5.656,0,0,0,8.017,14a5.828,5.828,0,0,0,2.922-.766,6.11,6.11,0,0,0,2.329-2.74,7.317,7.317,0,0,0,.476-2.118c0-.327.023-.369.413-.756a4.612,4.612,0,0,0,.49-.544c.026-.049.041-.08.032-.094s-.011-.008-.023-.008a1.591,1.591,0,0,0-.3.088,1.965,1.965,0,0,1-.49.136c-.031,0-.05-.007-.056-.022-.015-.034.035-.111.162-.248a2.062,2.062,0,0,0,.476-.756s0-.006-.012-.006a.694.694,0,0,0-.212.084,3.909,3.909,0,0,1-.616.24l-.378.12-.343-.233a2.826,2.826,0,0,0-.594-.311A2.183,2.183,0,0,0,11.73,6a2.121,2.121,0,0,0-.665.094A2.017,2.017,0,0,0,9.7,8.128l.021.346-.35-.042A5.7,5.7,0,0,1,6.042,6.794l-.462-.459-.119.339A2.044,2.044,0,0,0,5.9,8.764c.126.134.179.212.164.246-.006.014-.023.021-.052.021a1.416,1.416,0,0,1-.378-.1A1.422,1.422,0,0,0,5.321,8.843Z" fill="#fff"/>
      </g>
    </g>
  </g>
</svg>
