<svg id="freepik--confetti--inject-2" xmlns="http://www.w3.org/2000/svg" width="355.894" height="288.971" viewBox="0 0 355.894 288.971">
  <path id="Path_12515" data-name="Path 12515" d="M304.28,28.73c-3.57,3.06-2.3,13,3.57,12.3,3.25-.39,6.43-5,3.58-7.66a.51.51,0,0,0-.6,0c-3.15,2.07-4.53,5.79-1,8.3a8.24,8.24,0,0,0,10.23-.9c.16-.15-.18-.37-.32-.27-2.7,1.85-6.23,2.66-9.13.74a4.34,4.34,0,0,1-2.08-2.94,3.48,3.48,0,0,1,.35-2c.25-.52,1.39-2.16,2-2.16,1.25,0,.71,2.73.4,3.4a5,5,0,0,1-3.21,2.77c-2.31.47-3.83-1.65-4.49-3.58-.89-2.6-.8-5.59,1.11-7.72.17-.2-.27-.43-.42-.3Z" transform="translate(-81.05 -19.81)" fill="#23c9cf"/>
  <path id="Path_12517" data-name="Path 12517" d="M420,31.88c3.07-.9,7.29-.65,9.86,1.42,2,1.6,3.12,5.07.19,6.26-1.15.46-4.94.46-5.39-1.1-.32-1.09.85-1.74,1.79-1.88,2.75-.43,5.33,2.47,5.26,5.06-.09,3.89-4.62,5.18-7.82,5.21-.21,0-.16.4,0,.41,5.45.53,11.53-4.52,6.68-9.58-1.3-1.36-3.34-2.33-5.22-1.58-1.06.43-1.9,1.39-1.37,2.54.85,1.85,4.27,2.17,5.93,1.7a3.33,3.33,0,0,0,2.3-4.28c-1.34-4.92-8.23-6-12.31-4.47-.12,0-.07.33.07.29Z" transform="translate(-111.926 -19.81)" fill="#ba68c8"/>
  <path id="Path_12518" data-name="Path 12518" d="M196.25,164.56c3.07-.9,7.29-.65,9.87,1.42,2,1.6,3.12,5.07.18,6.26-1.14.46-4.93.46-5.39-1.1-.31-1.09.86-1.74,1.79-1.88,2.76-.43,5.33,2.47,5.27,5.06-.09,3.89-4.62,5.18-7.82,5.21-.22,0-.16.4,0,.42,5.45.52,11.53-4.53,6.69-9.59-1.31-1.36-3.34-2.33-5.22-1.58-1.07.43-1.91,1.39-1.38,2.54.85,1.85,4.28,2.17,5.94,1.7a3.33,3.33,0,0,0,2.3-4.28c-1.34-4.92-8.23-6-12.32-4.47-.11,0-.07.33.07.29Z" transform="translate(-59.421 -19.81)" fill="#ba68c8"/>
  <path id="Path_12519" data-name="Path 12519" d="M445,157.57c3.07-.89,7.29-.65,9.87,1.43,2,1.59,3.12,5.06.18,6.25-1.15.47-4.93.47-5.39-1.1-.31-1.09.86-1.74,1.79-1.88,2.76-.42,5.33,2.48,5.27,5.07-.09,3.89-4.62,5.17-7.82,5.21-.22,0-.16.39,0,.41,5.45.52,11.53-4.53,6.69-9.58-1.31-1.37-3.34-2.33-5.22-1.58-1.07.42-1.91,1.38-1.38,2.54.85,1.85,4.28,2.16,5.94,1.69a3.31,3.31,0,0,0,2.29-4.28c-1.33-4.92-8.22-5.94-12.31-4.46-.12,0-.07.32.07.28Z" transform="translate(-111.926 -19.81)" fill="#ba68c8"/>
  <path id="Path_12520" data-name="Path 12520" d="M437.73,88.79c-3.66,1.09-7.06,7.53-3.66,10.46,2.89,2.49,8.73,1.93,7.76-2.82a.31.31,0,0,0-.2-.24c-3.84-.92-5.11,3.56-4.3,6.52,1.25,4.6,5.89,4.54,9.24,2.14.11-.08.06-.4-.1-.32-2.74,1.37-6.58,2.59-8.25-.91-.89-1.87-.92-5,.8-6.41a2.38,2.38,0,0,1,1.65-.64c1.28.15,1.06,1.53.34,2.41-1.15,1.4-3.46,1.25-5,.71-5.27-1.87-1.65-8.7,1.79-10.62.1-.06.08-.32-.07-.28Z" transform="translate(-111.926 -19.81)" fill="#ba68c8"/>
  <path id="Path_12521" data-name="Path 12521" d="M423.06,132.68c-4.31-.55-13.6,3.09-11.19,9,1.29,3.14,7.05,5.16,8.95,1.55a.42.42,0,0,0-.21-.53c-9-5.09-18.49,9.63-8.93,15,.3.17.29-.34.11-.47a7.51,7.51,0,0,1-1.87-10.57,9.87,9.87,0,0,1,4-3.62c1.23-.58,4.32-1.4,5.46-.19.53.55.51-.15.24.5-.16.4-.71.63-1.1.78a4.46,4.46,0,0,1-2.95-.11c-2-.69-3.58-2.53-3.05-4.75,1.06-4.43,6.7-6,10.64-6.07.28,0,.1-.51-.11-.54Z" transform="translate(-111.926 -19.81)" fill="#ffe600"/>
  <path id="Path_12522" data-name="Path 12522" d="M376,32.83s-.26,4.84,3.33,7.53l3.76-1.15s-2.51-1.2-3.76-6.38Z" transform="translate(-94.079 -19.81)" fill="#f22090"/>
  <path id="Path_12523" data-name="Path 12523" d="M281.16,157.73s-.27,4.83,3.33,7.52l3.76-1.14s-2.51-1.21-3.76-6.38Z" transform="translate(-75.588 -19.81)" fill="#455a64"/>
  <path id="Path_12524" data-name="Path 12524" d="M461.26,57.08s-2.2,4.32-6.65,4.85l-2.69-2.88s2.78.22,6.46-3.63Z" transform="translate(-111.926 -19.81)" fill="#2fbc4b"/>
  <path id="Path_12525" data-name="Path 12525" d="M430.72,198.09s-2.19,4.31-6.65,4.84l-2.68-2.87s2.78.21,6.45-3.64Z" transform="translate(-111.926 -19.81)" fill="#2fbc4b"/>
  <path id="Path_12526" data-name="Path 12526" d="M308.86,179.32s-2.19,4.32-6.65,4.85l-2.69-2.88s2.79.22,6.46-3.63Z" transform="translate(-79.442 -19.81)" fill="#ba68c8"/>
  <path id="Path_12527" data-name="Path 12527" d="M417,74s-4.81.6-7.74-2.81l.89-3.83s1.37,2.43,6.62,3.32Z" transform="translate(-111.926 -19.81)" fill="#ba68c8"/>
  <path id="Path_12528" data-name="Path 12528" d="M347.26,50.39s-4.8.6-7.73-2.8l.88-3.83s1.38,2.42,6.63,3.32Z" transform="translate(-87.058 -19.81)" fill="#ba68c8"/>
  <path id="Path_12529" data-name="Path 12529" d="M400.44,178.26s-4.81.6-7.74-2.8l.89-3.84s1.38,2.43,6.62,3.32Z" transform="translate(-105.044 -19.81)" fill="#ba68c8"/>
  <path id="Path_12530" data-name="Path 12530" d="M307.69,113.79s-4.81.59-7.74-2.81l.88-3.83s1.38,2.43,6.63,3.32Z" transform="translate(-79.331 -19.81)" fill="#ba68c8"/>
  <path id="Path_12531" data-name="Path 12531" d="M467.82,140.22s-4.81.59-7.73-2.81l.88-3.83s1.38,2.43,6.62,3.32Z" transform="translate(-111.926 -19.81)" fill="#ba68c8"/>
  <path id="Path_12532" data-name="Path 12532" d="M37.24,130.84s-4.8.59-7.73-2.81l.88-3.83s1.38,2.42,6.63,3.32Z" transform="translate(-25.804 -19.81)" fill="#ba68c8"/>
  <path id="Path_12535" data-name="Path 12535" d="M388.91,79.37s-.86,4.76-5,6.55l-3.4-2a12.45,12.45,0,0,0,5.71-5.21Z" transform="translate(-95.164 -19.81)" fill="#f22090"/>
  <path id="Path_12536" data-name="Path 12536" d="M219.89,36.85c4.68-.46,11,7.33,6.42,11.08-2.53,2.09-8.07,1.18-8-2.71a.5.5,0,0,1,.41-.43c3.68-.84,7.31.73,6.69,5a8.23,8.23,0,0,1-7.72,6.76c-.23,0-.15-.38,0-.41,3.2-.68,6.22-2.67,6.84-6.09a4.33,4.33,0,0,0-.69-3.53,3.43,3.43,0,0,0-1.67-1.12c-.54-.17-2.52-.48-2.95,0-.87.9,1.48,2.4,2.18,2.64a4.93,4.93,0,0,0,4.22-.4c1.94-1.35,1.46-3.91.52-5.73-1.26-2.44-3.49-4.44-6.35-4.53-.25,0-.12-.49.08-.51Z" transform="translate(-63.465 -19.81)" fill="#23c9cf"/>
  <path id="Path_12537" data-name="Path 12537" d="M50.42,180.12c-1.47-3.31-1.32-6.74-5.59-7.83-1.88-.48-6.33-.92-7.75.75a2.05,2.05,0,0,0,.37,2.58c1.12,1,1.95-.2,2.24-1.26a4.85,4.85,0,0,0-2.14-5.18A8.61,8.61,0,0,0,26.07,171c-.15.2-.32-.05-.25-.22,3.28-7.55,19-2.3,14,4.94-1.53,2.19-4.24.26-3.73-2.05.57-2.58,5-2.45,6.88-2.32a8,8,0,0,1,5.33,2c1.71,1.68,1.94,4.34,2.3,6.6,0,.1-.09.25-.16.1Z" transform="translate(-25.804 -19.81)" fill="#ffe600"/>
  <path id="Path_12538" data-name="Path 12538" d="M89.5,31.88c-3.07-.9-7.29-.65-9.87,1.42-2,1.6-3.11,5.07-.18,6.26,1.15.46,4.94.46,5.39-1.1.32-1.09-.85-1.74-1.79-1.88-2.75-.43-5.33,2.47-5.27,5.06.1,3.89,4.63,5.18,7.83,5.21.21,0,.16.4,0,.41-5.45.53-11.53-4.52-6.69-9.58,1.31-1.36,3.35-2.33,5.23-1.58,1.06.43,1.9,1.39,1.37,2.54-.85,1.85-4.27,2.17-5.93,1.7a3.33,3.33,0,0,1-2.3-4.28c1.34-4.92,8.22-6,12.31-4.47.12,0,.07.33-.07.29Z" transform="translate(-25.804 -19.81)" fill="#ffe600"/>
  <path id="Path_12540" data-name="Path 12540" d="M61.66,90.64c3.66,1.09,7.06,7.53,3.66,10.46-2.89,2.5-8.73,1.93-7.76-2.82a.33.33,0,0,1,.2-.24c3.84-.91,5.11,3.57,4.3,6.53-1.25,4.59-5.89,4.54-9.24,2.13-.11-.08-.06-.39.1-.31,2.74,1.37,6.58,2.58,8.25-.92.89-1.87.92-5-.8-6.4a2.39,2.39,0,0,0-1.65-.65c-1.28.15-1.06,1.54-.34,2.41,1.15,1.4,3.46,1.25,5,.71,5.27-1.86,1.65-8.7-1.79-10.62-.1-.06-.08-.32.07-.28Z" transform="translate(-25.804 -19.81)" fill="#ba68c8"/>
  <path id="Path_12541" data-name="Path 12541" d="M66.23,207.77c-6.23.5-5.1,12.33-.07,13.92a2.4,2.4,0,0,0,1.91-.1,2.76,2.76,0,0,0,1.13-2.4c-.6-2-4,.54-4.39,1.33a5.81,5.81,0,0,0,.47,6.8c2.57,2.82,7.46,2.92,10.67,1.3.17-.08.2.23.08.31-3.44,2.21-9.23,1.89-11.78-1.61-2-2.81-.64-10.23,3.83-9.57,4.16.61,1.28,5.35-1.87,4.72s-4.29-4.81-4.59-7.4c-.39-3.26.59-7.67,4.63-7.59.13,0,.11.28,0,.29Z" transform="translate(-25.804 -19.81)" fill="#23c9cf"/>
  <path id="Path_12543" data-name="Path 12543" d="M134,41.63s.27,4.84-3.33,7.53L126.91,48s2.51-1.2,3.76-6.38Z" transform="translate(-45.516 -19.81)" fill="#2fbc4b"/>
  <path id="Path_12544" data-name="Path 12544" d="M46.61,57.08s2.2,4.32,6.65,4.85L56,59.05s-2.78.22-6.46-3.63Z" transform="translate(-25.804 -19.81)" fill="#2fbc4b"/>
  <path id="Path_12546" data-name="Path 12546" d="M33.52,291.08s2.2,4.32,6.65,4.85l2.69-2.88s-2.78.22-6.46-3.63Z" transform="translate(-25.804 -19.81)" fill="#f22090"/>
  <path id="Path_12547" data-name="Path 12547" d="M140.49,126.41s2.19,4.32,6.65,4.85l2.68-2.88s-2.78.22-6.45-3.63Z" transform="translate(-48.277 -19.81)" fill="#ba68c8"/>
  <path id="Path_12548" data-name="Path 12548" d="M175.74,72s2.19,4.32,6.64,4.85L185.07,74s-2.78.22-6.46-3.63Z" transform="translate(-55.185 -19.81)" fill="#f22090"/>
  <path id="Path_12549" data-name="Path 12549" d="M90.86,74s4.81.6,7.74-2.81l-.89-3.83s-1.37,2.43-6.62,3.32Z" transform="translate(-25.804 -19.81)" fill="#ba68c8"/>
  <path id="Path_12550" data-name="Path 12550" d="M173,36.55s4.81.6,7.74-2.8l-.88-3.83s-1.38,2.42-6.63,3.32Z" transform="translate(-54.544 -19.81)" fill="#ba68c8"/>
  <path id="Path_12552" data-name="Path 12552" d="M33,247.79s4.81.6,7.73-2.8l-.88-3.84s-1.38,2.43-6.62,3.33Z" transform="translate(-25.804 -19.81)" fill="#23c9cf"/>
  <path id="Path_12553" data-name="Path 12553" d="M108.77,308.74s4.81.6,7.74-2.8l-.88-3.83s-1.38,2.42-6.63,3.32Z" transform="translate(-42.003 -19.81)" fill="#ffe600"/>
  <path id="Path_12556" data-name="Path 12556" d="M249.39,21.18s-2.2,4.32-6.65,4.85l-2.69-2.88s3.29.51,7-3.34Z" transform="translate(-67.788 -19.81)" fill="#ffe600"/>
  <path id="Path_12557" data-name="Path 12557" d="M243.13,70.41s-.86,4.77-5,6.55l-3.4-2a12.46,12.46,0,0,0,5.7-5.21Z" transform="translate(-66.658 -19.81)" fill="#2fbc4b"/>
</svg>
