<svg xmlns="http://www.w3.org/2000/svg" width="244.496" height="278.691" viewBox="0 0 244.496 278.691">
  <g id="Group_1179" data-name="Group 1179" transform="translate(-486.514 -130.563)">
    <path id="Path_10981" data-name="Path 10981" d="M654.006,275.477a41.552,41.552,0,0,1,2.489,14.713c.006,7.157.036,14.313-.032,21.469-.019,2.007.227,3.291,2.527,4.192,5.681,2.226,8.579,7.329,7.63,12.433-1.034,5.56-5.779,9.524-12.029,9.692-6.15.166-12.31.119-18.463.011-2.285-.039-3.4.325-3.931,3.026-1.8,9.239-9.053,14.884-18.356,14.825-9.063-.058-16.262-5.716-18.071-14.681-.51-2.526-1.343-3.252-3.813-3.185-6.007.163-12.023.134-18.033.024-6.6-.121-11.42-3.881-12.571-9.589-1.051-5.209,1.807-10.153,7.908-12.638,2.461-1,2.144-2.6,2.2-4.416.317-9.569-.943-19.208.744-28.7,3.079-17.34,13.149-28.845,29.9-34.244,2.891-.932,3.954-2.143,3.634-5.059a30.563,30.563,0,0,1,.049-6c.422-4.707,4.177-8.329,8.353-8.217,4.024.108,8.488,3.8,7.856,8.089-1.258,8.523,2.76,12.084,10.246,13.475.745,1.928-.2,3.049-1.83,3.849-3.72.683-6.728-2.572-10.453-1.884-6.182-1.244-12.2-.347-18.141,1.419-11.766,3.371-23.32,17.667-24.391,30.1a210.86,210.86,0,0,0-.952,23.13c.135,5.7.07,5.7,6.026,6.074,15.606-.575,31.21-.219,46.812-.173,1.994.006,4.4.378,4.481,2.99.089,2.728-2.241,3.388-4.453,3.7a42.683,42.683,0,0,1-6.007.14q-22.34.015-44.679.014a19.79,19.79,0,0,0-5.956.568c-2.9.9-5.466,2.153-5.631,5.617-.155,3.245,1.992,4.851,4.77,5.816a18.9,18.9,0,0,0,7.541,1.308c21.892-.047,43.785-.082,65.677.025,3.937.02,7.649-.946,11.416-1.689,2.716-.535,4.087-2.53,4.06-5.31a4.916,4.916,0,0,0-4.177-5.229c-3.637-.712-7.234-1.745-10.988-1.79a3.433,3.433,0,0,1-2.447-2.792c.086-2.706,2.178-3.292,4.141-3.3,3.786-.012,4.286-2.111,4.314-5.235a175.39,175.39,0,0,0-1.564-27.562,8.179,8.179,0,0,1-.009-2.968C650.634,275.654,651.8,274.492,654.006,275.477Z" fill="#171725"/>
    <path id="Path_10982" data-name="Path 10982" d="M630.391,254.01l1.854-3.32c8.487-9.629,19.16-7.431,24.66-2.5,7.909,7.093,8.143,20.162-2.9,27.285l-3.476,1.581c-2.636,2.6-5.778,1.632-8.833,1.26-9.161-2.136-14.96-10.7-13.9-20.491A5.734,5.734,0,0,1,630.391,254.01Z" fill="#ffe600"/>
    <path id="Path_10983" data-name="Path 10983" d="M530.084,198.679A13.96,13.96,0,0,1,527.9,197.5c-4.759-4.316-10.353-5.586-16.631-4.939-3.835.4-7.9-.01-9.6-4.032a17.013,17.013,0,0,1,.26-14.521c1.218-2.435,3.731-3.475,6.492-3.5,4.578-.036,9.16-.121,13.734.017s7.709,2.948,7.868,7.43C530.259,184.639,530.084,191.337,530.084,198.679Z" fill="#171725"/>
    <path id="Path_10984" data-name="Path 10984" d="M706.269,384.458q5.129,0,10.257,0c.873,0,1.909.047,2.019,1.1.146,1.415-1.044,1.453-2.045,1.455q-10.684.021-21.368,0c-1.011,0-2.3-.029-2.292-1.29s1.307-1.267,2.318-1.269Q700.714,384.45,706.269,384.458Z" fill="#171725"/>
    <path id="Path_10985" data-name="Path 10985" d="M512.708,325.105a7.174,7.174,0,0,1,.356-14.341,7.249,7.249,0,0,1,6.871,7.351A7.175,7.175,0,0,1,512.708,325.105Z" fill="#ffe600"/>
    <path id="Path_10986" data-name="Path 10986" d="M731.009,196.678a7.143,7.143,0,1,1-14.285-.189,7.143,7.143,0,0,1,14.285.189Z" fill="#171725"/>
    <path id="Path_10987" data-name="Path 10987" d="M701.152,396.183c-2.129,0-4.258.028-6.386-.014-.863-.017-1.8-.232-1.942-1.25-.152-1.1.769-1.507,1.623-1.517q6.809-.083,13.618.006c.809.011,1.8.254,1.746,1.406-.056,1.1-1.032,1.3-1.849,1.326-2.268.075-4.54.026-6.81.026Z" fill="#171725"/>
    <path id="Path_10989" data-name="Path 10989" d="M622.235,138.8c2.065.521,3.51,1.614,3.417,3.821-.1,2.394-1.617,3.739-3.933,3.489a3.3,3.3,0,0,1-3.136-3.867C618.785,140.067,620.246,139.089,622.235,138.8Z" fill="#ffe600"/>
    <path id="Path_10990" data-name="Path 10990" d="M629.11,257.512c-.7,9.414,3.371,15.889,12.033,19.538,2.86,1.711,3.14,4.685,3.236,7.467.306,8.8.045,17.6.169,26.4.029,2.034-1.894,3.594-1.015,5.689l1.776,1.727c6.44,1.183,9.165,8.184,5.3,13.594a5.073,5.073,0,0,1-4.383,2.235c-24.974-.1-49.95.3-74.923-.2q-7.419-3.053-6.227-8.869c.773-3.816,4.173-6.448,8.946-6.477,12.994-.076,25.989,0,38.983.007,4.855,0,9.71.025,14.565-.013,2.246-.017,5.54.335,5.422-2.566-.1-2.441-3.3-1.091-5.023-1.111-15.418-.18-30.838-.173-46.257-.221a4.441,4.441,0,0,1-1.513-3.418c-.075-8.826-.7-17.678.339-26.47,1.657-14.014,8.3-24.922,20.753-32A29.836,29.836,0,0,1,620.39,251.3C623.577,252.98,627.85,253.131,629.11,257.512Z" fill="#f7f7f7"/>
    <path id="Path_10991" data-name="Path 10991" d="M601.3,252.82c-1.484,2.677-4.22,4.1-6.326,6.135-9.146,8.859-13.2,19.684-13.225,32.22q-.025,11.768-.028,23.536c-1.284.046-2.575.021-3.849.154-2.151.224-2.679-.851-2.643-2.784.167-9-.161-18.032.466-27C576.708,270.521,588.745,255.752,601.3,252.82Z" fill="#fdfdfe"/>
    <path id="Path_10992" data-name="Path 10992" d="M643.533,316.606c-1.324-1.3-.666-2.951-.73-4.449-.457-10.743.931-21.539-.915-32.242-.167-.969-.494-1.911-.746-2.865a40.768,40.768,0,0,0,9.388.009c2.417,7.012,2.148,14.327,2.371,21.576.128,4.14-.136,8.294.074,12.427.156,3.085-1.095,3.885-4,3.9C647.164,314.974,644.511,313.428,643.533,316.606Z" fill="#f1f1f1"/>
    <path id="Path_10993" data-name="Path 10993" d="M571.308,333.96c23.619-.064,47.238-.2,70.856-.125,4.127.013,7.354-.316,8.2-5.23.876-5.086-.61-8.357-5.054-10.272,3.56.241,7.135.351,10.677.758a7.4,7.4,0,0,1,.131,14.7,93.341,93.341,0,0,1-10.679.739q-34.982.1-69.965.027C574.067,334.558,572.6,334.853,571.308,333.96Z" fill="#f1f1f1"/>
    <path id="Path_10994" data-name="Path 10994" d="M612.647,351.772c-6.361-.422-11.1-4.138-12.888-9.9-.8-2.586-.653-3.995,2.661-3.836,4.81.23,9.638.106,14.458.134,2.122,1.919,1.156,4.1.459,6.2C616.394,347.215,614.3,349.359,612.647,351.772Z" fill="#f7f7f7"/>
    <path id="Path_10995" data-name="Path 10995" d="M612.647,351.772c-.925-1.448-.39-2.512.7-3.667a12.526,12.526,0,0,0,3.527-9.937c2.708-.042,5.429.067,8.121-.162,3.542-.3,4.241,1.021,3.073,4.206C625.675,348.749,620.669,351.937,612.647,351.772Z" fill="#f1f1f1"/>
    <path id="Path_10996" data-name="Path 10996" d="M616.8,234.949c3.225,3.064,1.47,6.945,1.679,10.494a1.279,1.279,0,0,1-1.413,1.308c-2.548-.351-5.312,1.388-7.664-.772,1.86-1.314,1.492-3.541,2.211-5.324C612.627,238.143,613,234.961,616.8,234.949Z" fill="#f1f1f1"/>
    <path id="Path_10997" data-name="Path 10997" d="M616.8,234.949a9.443,9.443,0,0,0-4.058,8.3c.012,2.513-1.01,3.306-3.34,2.726.021-2.815-.135-5.646.127-8.438a4.576,4.576,0,0,1,3.1-4.191C614.309,232.834,616.034,232.8,616.8,234.949Z" fill="#f7f7fe"/>
    <path id="Path_10998" data-name="Path 10998" d="M629.11,257.512l-8.72-6.208c3.619-.152,6.722,1.607,10,2.7Q629.749,255.762,629.11,257.512Z" fill="#f1f1f1"/>
    <path id="Path_11000" data-name="Path 11000" d="M527.515,194.616c-5.347-5.814-11.232-4.524-16.825-4.611-6.387-.1-7.513-1.409-7.49-8.909.02-6.654,1.264-8,7.493-8.02,3.7-.015,7.409-.054,11.112.021,3.583.072,5.59,2.009,5.68,5.572C527.606,183.489,527.515,188.314,527.515,194.616Z" fill="#f3f4f7"/>
    <path id="Path_11001" data-name="Path 11001" d="M518.4,317.908a5.366,5.366,0,0,1-5.617,5.6,5.485,5.485,0,0,1-5.532-5.76c.323-3.19,2.131-5.229,5.492-5.4A5.331,5.331,0,0,1,518.4,317.908Z" fill="#ffe600"/>
    <path id="Path_11002" data-name="Path 11002" d="M718.338,196.563a5.176,5.176,0,0,1,5.655-5.476c3.373.134,5.214,2.02,5.432,5.329a5.546,5.546,0,1,1-11.087.147Z" fill="#f2f3f7"/>
    <path id="Path_11003" data-name="Path 11003" d="M578.88,403.519a2,2,0,0,1,1.979,2.245,1.755,1.755,0,0,1-1.836,1.876,1.911,1.911,0,0,1-2.246-1.943C576.748,404.395,577.6,403.694,578.88,403.519Z" fill="#f2f2f8"/>
    <path id="Path_11004" data-name="Path 11004" d="M624.287,142.726c-.3,1.288-1.01,2.09-2.378,1.947a1.993,1.993,0,0,1-1.952-2.305,2.022,2.022,0,0,1,2.347-1.936A2.125,2.125,0,0,1,624.287,142.726Z" fill="#ffe600"/>
    <g id="plus" transform="translate(634.872 249.506)">
      <path id="Path_10978" data-name="Path 10978" d="M17.287,18.6a.744.744,0,0,1-.787-.787V6.787a.787.787,0,0,1,1.575,0V17.81A.744.744,0,0,1,17.287,18.6Z" transform="translate(-4.989)" fill="#171725" stroke="#171725" stroke-width="1"/>
      <path id="Path_10979" data-name="Path 10979" d="M17.81,18.075H6.787a.787.787,0,0,1,0-1.575H17.81a.787.787,0,0,1,0,1.575Z" transform="translate(0 -4.989)" fill="#171725" stroke="#171725" stroke-width="1"/>
    </g>
    <rect id="Rectangle_376" data-name="Rectangle 376" width="6" height="6" rx="3" transform="translate(554.171 130.563) rotate(45)" fill="#171725"/>
    <rect id="Rectangle_377" data-name="Rectangle 377" width="8" height="8" transform="translate(492.171 384.148) rotate(45)" fill="#ffe600"/>
    <path id="Path_11005" data-name="Path 11005" d="M578.877,401.943c2.11.34,3.649,1.488,3.626,3.814a3.321,3.321,0,0,1-3.471,3.5,3.383,3.383,0,0,1-3.73-3.259C575.112,403.672,576.562,402.4,578.877,401.943Z" fill="#171725"/>
    <g id="Background" transform="translate(427.171 -36.195)" opacity="0.91">
      <rect id="Rectangle_371" data-name="Rectangle 371" width="8" height="8" transform="translate(297 313.343) rotate(45)" fill="#ffe600"/>
    </g>
  </g>
</svg>
