<svg xmlns="http://www.w3.org/2000/svg" width="281.412" height="263.135" viewBox="0 0 281.412 263.135">
  <g id="On_the_way-pana" data-name="On the way-pana" transform="translate(-18.63 -47.394)">
    <g id="freepik--background-complete--inject-3" transform="translate(29.732 47.394)">
      <path id="Path_11474" data-name="Path 11474" d="M291.312,189.295c-4.3-7.651-11.76-14.21-20.768-15.407-9.266-1.228-18.355,3.3-25.625,8.935A77.5,77.5,0,0,0,226.5,203.167c-2.843,4.581-5.748,9.9-11.1,11.391-5.035,1.4-10.329-1.228-14.388-4.409s-7.707-7.062-12.6-8.873c-12.748-4.722-26.97,6.6-40.21,3.334-11.4-2.812-16.863-14.738-23.949-23.734-11.7-14.812-32.042-23.372-51.189-20.264S39.344,195.9,36.71,214.282l262.266-.086C297.33,205.648,295.629,196.94,291.312,189.295Z" transform="translate(-36.71 -90.842)" fill="#ebebeb"/>
      <path id="Path_11475" data-name="Path 11475" d="M98,94.976c.233-1.713-2.18-3.12-4-3.267a10.341,10.341,0,0,1-2.585-.221c-1.775-.614-2.456-2.917-4.219-3.648a4.948,4.948,0,0,0-4.041.571,10.461,10.461,0,0,1-3.906,1.517c-1.228.08-2.548-.375-3.617.221-.792.448-1.228,1.363-1.947,1.9a4.606,4.606,0,0,1-2.542.706,7.234,7.234,0,0,0-2.622.424,2.076,2.076,0,0,0-1.314,2.106Z" transform="translate(-48.476 -62.912)" fill="#f5f5f5"/>
      <path id="Path_11476" data-name="Path 11476" d="M230.876,121.506c.233-1.713-2.18-3.12-4-3.267a10.341,10.341,0,0,1-2.585-.221c-1.775-.614-2.456-2.917-4.219-3.648a4.948,4.948,0,0,0-4.041.571,10.578,10.578,0,0,1-3.906,1.523c-1.228.074-2.548-.375-3.611.221-.8.442-1.228,1.357-1.947,1.9a4.673,4.673,0,0,1-2.548.688,7.1,7.1,0,0,0-2.622.43,2.076,2.076,0,0,0-1.314,2.1Z" transform="translate(-99.758 -73.15)" fill="#f5f5f5"/>
      <path id="Path_11477" data-name="Path 11477" d="M433.218,116.155c.424-3.07-3.924-5.619-7.2-5.883-1.56-.123-3.175.117-4.655-.4-3.2-1.118-4.477-5.25-7.6-6.571-2.333-.983-5.017-.1-7.283,1.032s-4.5,2.573-7.025,2.739c-2.2.135-4.587-.675-6.515.4-1.431.8-2.18,2.456-3.506,3.427a8.173,8.173,0,0,1-4.581,1.228,12.645,12.645,0,0,0-4.728.774,3.732,3.732,0,0,0-2.364,3.789Z" transform="translate(-168.312 -68.806)" fill="#ebebeb"/>
      <path id="Path_11478" data-name="Path 11478" d="M218.427,64.174c.534-3.9-4.962-7.1-9.1-7.436-1.971-.16-4.016.141-5.883-.51-4.047-1.412-5.662-6.638-9.61-8.3-2.954-1.228-6.35-.135-9.211,1.3s-5.686,3.255-8.9,3.451c-2.782.178-5.8-.854-8.235.51-1.842,1.007-2.763,3.07-4.434,4.3a10.467,10.467,0,0,1-5.8,1.572,16.282,16.282,0,0,0-5.975.976c-1.848.847-3.371,2.8-2.991,4.8Z" transform="translate(-79.75 -47.394)" fill="#ebebeb"/>
    </g>
    <g id="freepik--Road--inject-3" transform="translate(18.63 170.581)">
      <path id="Path_11479" data-name="Path 11479" d="M18.63,319.466l1.953-17.913,111.412,7.289a9.573,9.573,0,0,0,10.114-8.241l7.265-52.6H174.63l10.924,53.8a9.567,9.567,0,0,0,9.825,7.658l104.663-4.79v18.8l-91.9,15.659a16.015,16.015,0,0,0-14.277,18.177l4.3,30.642H133.388l2.622-28.057a20.51,20.51,0,0,0-17.163-22.162Z" transform="translate(-18.63 -248)" fill="#e0e0e0"/>
      <path id="Path_11480" data-name="Path 11480" d="M256.11,310.463H250l1.449-26.233,2.653.006Z" transform="translate(-107.921 -261.982)" fill="#f5f5f5"/>
      <path id="Path_11481" data-name="Path 11481" d="M258.308,405.135H250l1.48-32.485,4.544.012Z" transform="translate(-107.921 -296.106)" fill="#f5f5f5"/>
      <path id="Path_11482" data-name="Path 11482" d="M324.15,369.849l-.59-5.078,32.374-2.831.878,3.371Z" transform="translate(-136.31 -291.972)" fill="#f5f5f5"/>
      <path id="Path_11483" data-name="Path 11483" d="M431.013,358.688l-.583-5.078,28.53-2.5V354.8Z" transform="translate(-177.554 -287.793)" fill="#f5f5f5"/>
      <path id="Path_11484" data-name="Path 11484" d="M168.1,364.915l.59-5.078L136.318,357l-.878,3.377Z" transform="translate(-63.71 -290.066)" fill="#f5f5f5"/>
      <path id="Path_11485" data-name="Path 11485" d="M51.9,351.906l.467-4.053L20.615,343.8l-.405,3.7Z" transform="translate(-19.24 -284.972)" fill="#f5f5f5"/>
    </g>
    <g id="freepik--Sign--inject-3" transform="translate(173.226 57.646)">
      <path id="Path_11486" data-name="Path 11486" d="M317.4,226.881H312.12V66.731a2.641,2.641,0,0,1,2.641-2.641h0a2.647,2.647,0,0,1,2.641,2.641Z" transform="translate(-286.491 -64.09)" fill="#171725"/>
      <path id="Path_11487" data-name="Path 11487" d="M275.64,173.047l14.633-1.357,36.175,19.472-2.419,4.489-4.563-.018,3.04,2.855-3.31,6.147-35.942-19.343Z" transform="translate(-272.413 -105.615)" fill="#ffe600"/>
      <path id="Path_11488" data-name="Path 11488" d="M275.64,173.047l14.633-1.357,36.175,19.472-2.419,4.489-4.563-.018,3.04,2.855-3.31,6.147-35.942-19.343Z" transform="translate(-272.413 -105.615)" opacity="0.3"/>
      <path id="Path_11489" data-name="Path 11489" d="M274.023,170.252l10.329-.958a5.92,5.92,0,0,1,3.359.682l34.6,18.619-2.419,4.5h-4.563l3.04,2.855-3.31,6.141-34.548-18.594a5.951,5.951,0,0,1-2.223-2.088l-5.435-8.769a1.56,1.56,0,0,1,1.173-2.383Z" transform="translate(-271.243 -104.681)" fill="#ffe600"/>
      <g id="Group_1190" data-name="Group 1190" transform="translate(3.766 64.717)" opacity="0.2">
        <path id="Path_11490" data-name="Path 11490" d="M317.173,208.545a5.189,5.189,0,0,0-.614-1.492,11,11,0,0,0-3.23-2.966,73.122,73.122,0,0,0-12.754-7.148c-2.622-1.148-5.2-2.045-7.522-2.929a57.171,57.171,0,0,1-6.073-2.61,24.777,24.777,0,0,1-3.783-2.358c-.424-.313-.725-.614-.94-.768a1.873,1.873,0,0,1-.307-.295s.467.356,1.32.958a26.7,26.7,0,0,0,3.813,2.26,60.266,60.266,0,0,0,6.073,2.536c2.321.866,4.913,1.756,7.547,2.911a69.045,69.045,0,0,1,12.76,7.258,10.66,10.66,0,0,1,3.205,3.07,3.647,3.647,0,0,1,.442,1.136,1.569,1.569,0,0,1,.049.313C317.173,208.509,317.18,208.545,317.173,208.545Z" transform="translate(-278.614 -176.62)"/>
        <path id="Path_11491" data-name="Path 11491" d="M276.758,171a4.7,4.7,0,0,0-.049,2,5.687,5.687,0,0,0,.933,2.149,11.09,11.09,0,0,0,2.186,2.229,66.258,66.258,0,0,0,6.755,4.661c2.647,1.609,5.649,3.218,8.837,4.845l16.322,8.339c2.057,1.075,3.74,1.94,4.913,2.561l1.333.712a4.3,4.3,0,0,1,.454.264,2.8,2.8,0,0,1-.485-.209L316.6,197.9l-4.98-2.456-16.334-8.29c-3.187-1.633-6.2-3.255-8.843-4.913a62.462,62.462,0,0,1-6.755-4.741,10.9,10.9,0,0,1-2.192-2.3,5.656,5.656,0,0,1-.909-2.223,4.212,4.212,0,0,1,0-1.523A2.726,2.726,0,0,1,276.758,171Z" transform="translate(-276.517 -170.067)"/>
        <path id="Path_11492" data-name="Path 11492" d="M293.287,177.1a3.018,3.018,0,0,1-.307-.436,13.36,13.36,0,0,0-.915-1.228,12.834,12.834,0,0,0-4.385-3.322,8.738,8.738,0,0,0-1.719-.614,3.285,3.285,0,0,0-1.9.086,2.008,2.008,0,0,0-1.3,1.418,2.806,2.806,0,0,0,.614,2.02,23.021,23.021,0,0,0,7.682,6.386c.78.442,1.56.878,2.333,1.271a5.527,5.527,0,0,0,2.395.688,2.573,2.573,0,0,0,2.088-.9,2.929,2.929,0,0,0,.5-2.155,5.865,5.865,0,0,0-.761-2.076c-.362-.614-.761-1.228-1.148-1.8a20.768,20.768,0,0,0-2.456-2.929,17.648,17.648,0,0,0-4.513-3.2c-.614-.289-1.056-.491-1.382-.614a4.428,4.428,0,0,1-.479-.215,3.073,3.073,0,0,1,.5.154,14.42,14.42,0,0,1,1.412.571,16.874,16.874,0,0,1,4.612,3.15,20.385,20.385,0,0,1,2.53,2.935c.393.571.8,1.167,1.173,1.842a6.172,6.172,0,0,1,.811,2.168,3.236,3.236,0,0,1-.559,2.389,2.886,2.886,0,0,1-2.327,1.025,5.748,5.748,0,0,1-2.548-.712c-.792-.4-1.566-.835-2.352-1.277a22.876,22.876,0,0,1-7.762-6.5,3.07,3.07,0,0,1-.614-2.241,2.278,2.278,0,0,1,1.48-1.609,3.555,3.555,0,0,1,2.051-.08,8.6,8.6,0,0,1,1.756.614,12.122,12.122,0,0,1,5.263,4.692A4.624,4.624,0,0,1,293.287,177.1Z" transform="translate(-278.823 -169.48)"/>
        <path id="Path_11493" data-name="Path 11493" d="M333.74,192.743a14.76,14.76,0,0,0-1.437-.4,12.9,12.9,0,0,0-4.047,0,50.347,50.347,0,0,1-6.024.743,10.359,10.359,0,0,1-3.568-.614,13.337,13.337,0,0,1-3.414-1.842,20.191,20.191,0,0,1-4.974-5.527,50.2,50.2,0,0,1-2.849-5.367c-.743-1.56-1.351-2.812-1.805-3.684l-.516-.983a1.573,1.573,0,0,1-.166-.35,1.927,1.927,0,0,1,.221.319c.141.215.332.534.571.952.485.841,1.13,2.082,1.9,3.629a53.862,53.862,0,0,0,2.892,5.306,20.338,20.338,0,0,0,4.913,5.428,11.471,11.471,0,0,0,6.792,2.4,53.379,53.379,0,0,0,6-.669,12.141,12.141,0,0,1,4.1.135,6.651,6.651,0,0,1,1.062.338,1.485,1.485,0,0,1,.356.184Z" transform="translate(-287.486 -171.502)"/>
        <path id="Path_11494" data-name="Path 11494" d="M325.3,189.153a2.217,2.217,0,0,1-.368-.135c-.233-.1-.571-.252-1.007-.473s-.946-.5-1.529-.872q-.442-.27-.921-.614a2.721,2.721,0,0,1-.921-.866.614.614,0,0,1,.074-.749.823.823,0,0,1,.761-.135c.479.129.927.289,1.412.454.958.338,1.971.743,3.009,1.228a32.5,32.5,0,0,1,3.169,1.683,4.041,4.041,0,0,1,1.48,1.271,1.228,1.228,0,0,1-.583,1.842,4.5,4.5,0,0,1-2,.221,11.958,11.958,0,0,1-1.9-.246,12.968,12.968,0,0,1-3.4-1.2,12.791,12.791,0,0,1-6.374-7.658,8.8,8.8,0,0,1-.264-1.081,1.639,1.639,0,0,1-.049-.387c.031,0,.129.522.436,1.431a13.509,13.509,0,0,0,1.842,3.586,12.736,12.736,0,0,0,4.526,3.844,12.9,12.9,0,0,0,3.328,1.154,12.247,12.247,0,0,0,1.842.233,4.108,4.108,0,0,0,1.842-.2.983.983,0,0,0,.571-.614.946.946,0,0,0-.129-.792,3.783,3.783,0,0,0-1.363-1.173,34.908,34.908,0,0,0-3.132-1.683A30.935,30.935,0,0,0,322.682,186c-.473-.172-.946-.344-1.376-.461a.614.614,0,0,0-.553.061.381.381,0,0,0-.037.473,2.536,2.536,0,0,0,.847.8c.307.233.614.436.89.614.571.375,1.081.675,1.5.909s.749.411.976.528a1.615,1.615,0,0,1,.368.221Z" transform="translate(-291.712 -174.096)"/>
      </g>
      <path id="Path_11495" data-name="Path 11495" d="M336.019,143.8l-.08-.068-10.347-6.141-40.983-2.868-.356,5.085,3.869,2.456-4.09.792-.491,6.964,38.392,2.684a8.665,8.665,0,0,0,4.372-.841l7.6-3.684C335.5,147.407,336.019,145.626,336.019,143.8Z" transform="translate(-275.461 -91.348)" fill="#ffe600"/>
      <path id="Path_11496" data-name="Path 11496" d="M336.019,143.8l-.08-.068-10.347-6.141-40.983-2.868-.356,5.085,3.869,2.456-4.09.792-.491,6.964,38.392,2.684a8.665,8.665,0,0,0,4.372-.841l7.6-3.684A4.857,4.857,0,0,0,336.019,143.8Z" transform="translate(-275.461 -91.348)" opacity="0.3"/>
      <path id="Path_11497" data-name="Path 11497" d="M335.517,141.684l-8.216-6.331a5.92,5.92,0,0,0-3.205-1.228l-39.2-2.745-.356,5.091,3.869,2.419-4.09.792-.491,6.964,39.141,2.745a5.944,5.944,0,0,0,3-.577l9.279-4.489a1.566,1.566,0,0,0,.27-2.641Z" transform="translate(-275.573 -90.059)" fill="#ffe600"/>
      <g id="Group_1191" data-name="Group 1191" transform="translate(8.773 42.825)" opacity="0.2">
        <path id="Path_11498" data-name="Path 11498" d="M286.49,155.226s0-.037.061-.092a1.842,1.842,0,0,1,.209-.239,3.813,3.813,0,0,1,.983-.718,10.525,10.525,0,0,1,4.36-.9,68.248,68.248,0,0,1,14.664.682c2.843.43,5.527,1.062,7.934,1.572a60.026,60.026,0,0,0,6.491,1.1,27.429,27.429,0,0,0,4.427.129c1.044-.055,1.621-.141,1.627-.1a2.118,2.118,0,0,1-.418.08,11.194,11.194,0,0,1-1.228.147,24.509,24.509,0,0,1-4.458,0,57.379,57.379,0,0,1-6.528-1.038c-2.456-.5-5.1-1.118-7.922-1.547a73.648,73.648,0,0,0-14.6-.768,10.979,10.979,0,0,0-4.3.78A5.128,5.128,0,0,0,286.49,155.226Z" transform="translate(-285.372 -141.286)"/>
        <path id="Path_11499" data-name="Path 11499" d="M334.748,147.17a2.409,2.409,0,0,1-.135.51,4.182,4.182,0,0,1-.8,1.3,5.846,5.846,0,0,1-1.959,1.394,10.992,10.992,0,0,1-3.07.774,61.567,61.567,0,0,1-8.247.393c-3.1-.037-6.509-.27-10.077-.614l-18.244-1.762-5.527-.577-1.5-.172a3.071,3.071,0,0,1-.516-.08,2.787,2.787,0,0,1,.522,0l1.511.111,5.527.473,18.256,1.67c3.562.325,6.957.565,10.052.614a64.21,64.21,0,0,0,8.21-.319,11.207,11.207,0,0,0,3.07-.718,5.643,5.643,0,0,0,1.934-1.314A4.7,4.7,0,0,0,334.748,147.17Z" transform="translate(-284.67 -138.978)"/>
        <path id="Path_11500" data-name="Path 11500" d="M336.365,141.523a4.11,4.11,0,0,1,.461-.264,13.1,13.1,0,0,1,1.406-.583,12.6,12.6,0,0,1,5.527-.571,8.948,8.948,0,0,1,1.842.4,3.549,3.549,0,0,1,1.695,1.161,2.278,2.278,0,0,1,.387,2.155,3.07,3.07,0,0,1-1.732,1.554,23.32,23.32,0,0,1-10.04,1.339c-.9-.043-1.787-.086-2.665-.172a5.8,5.8,0,0,1-2.53-.749,2.874,2.874,0,0,1-1.419-2.112,3.242,3.242,0,0,1,.8-2.315,6.091,6.091,0,0,1,1.842-1.4c.657-.344,1.314-.614,1.959-.909a20.461,20.461,0,0,1,3.684-1.13,16.709,16.709,0,0,1,5.582-.2,13.32,13.32,0,0,1,1.5.27,3.07,3.07,0,0,1,.516.141,4.479,4.479,0,0,1-.528-.08c-.338-.061-.847-.141-1.5-.209a17.563,17.563,0,0,0-5.527.295,21.021,21.021,0,0,0-3.648,1.154c-.614.276-1.29.571-1.934.909a5.907,5.907,0,0,0-1.75,1.345,2.941,2.941,0,0,0-.731,2.094,2.567,2.567,0,0,0,1.29,1.879,5.527,5.527,0,0,0,2.389.7c.866.08,1.756.123,2.653.166a22.852,22.852,0,0,0,9.9-1.29,2.794,2.794,0,0,0,1.59-1.382,2,2,0,0,0-.338-1.9,3.286,3.286,0,0,0-1.56-1.087,8.21,8.21,0,0,0-1.775-.405,12.816,12.816,0,0,0-5.484.461c-.614.2-1.093.4-1.412.528a3.178,3.178,0,0,1-.454.2Z" transform="translate(-301.891 -135.277)"/>
        <path id="Path_11501" data-name="Path 11501" d="M285.2,135.119a1.529,1.529,0,0,1,.387.037,6.139,6.139,0,0,1,1.081.282,12.1,12.1,0,0,1,3.531,2.069,55.643,55.643,0,0,0,4.716,3.777,11.465,11.465,0,0,0,7.025,1.6,20.264,20.264,0,0,0,7.086-1.959,53.971,53.971,0,0,0,5.281-2.941c1.474-.9,2.684-1.6,3.537-2.051.43-.227.768-.393.995-.5a1.615,1.615,0,0,1,.362-.154,1.758,1.758,0,0,1-.332.209l-.964.553c-.835.479-2.02,1.228-3.476,2.137a50.486,50.486,0,0,1-5.275,3.009,20.178,20.178,0,0,1-7.166,2.014,13.184,13.184,0,0,1-3.863-.276,10.316,10.316,0,0,1-3.334-1.388,46.078,46.078,0,0,1-4.7-3.85,12.675,12.675,0,0,0-3.433-2.131A13.813,13.813,0,0,0,285.2,135.119Z" transform="translate(-284.875 -134.327)"/>
        <path id="Path_11502" data-name="Path 11502" d="M304.554,136.157a2.038,2.038,0,0,1,.387,0c.252,0,.614.055,1.105.08s1.068.043,1.75.031a8.467,8.467,0,0,0,1.093-.049,2.659,2.659,0,0,0,1.142-.233.375.375,0,0,0,.221-.418c-.037-.16-.221-.276-.43-.35-.43-.129-.921-.233-1.406-.344-.989-.215-2.051-.4-3.181-.54a34.14,34.14,0,0,0-3.549-.246,3.684,3.684,0,0,0-1.775.258.97.97,0,0,0-.534.614.983.983,0,0,0,.166.8A4.145,4.145,0,0,0,301,136.912a11.755,11.755,0,0,0,1.695.792,13.085,13.085,0,0,0,3.427.811A12.809,12.809,0,0,0,312,137.68a13.381,13.381,0,0,0,3.488-2.039c.749-.614,1.111-.995,1.13-.976s-.074.111-.246.3a9.367,9.367,0,0,1-.768.811,12.742,12.742,0,0,1-9.475,3.07,13.276,13.276,0,0,1-3.519-.8,11.925,11.925,0,0,1-1.732-.811A4.3,4.3,0,0,1,299.316,136a1.3,1.3,0,0,1-.209-1.062,1.271,1.271,0,0,1,.7-.8,3.992,3.992,0,0,1,1.922-.289,32.745,32.745,0,0,1,3.58.27c1.136.147,2.211.344,3.2.571.5.117.964.221,1.437.368a.835.835,0,0,1,.571.522.614.614,0,0,1-.332.675,2.776,2.776,0,0,1-1.228.239h-1.105c-.688,0-1.277-.043-1.756-.086s-.854-.092-1.105-.135a1.529,1.529,0,0,1-.436-.117Z" transform="translate(-290.228 -133.83)"/>
      </g>
      <path id="Path_11503" data-name="Path 11503" d="M273.6,99.162l12.527,7.688,41.051-1.474-.178-5.1-4.1-2.008,3.985-1.216-.252-6.976-40.787,1.462Z" transform="translate(-271.625 -74.12)" fill="#ffe600"/>
      <path id="Path_11504" data-name="Path 11504" d="M273.6,99.162l12.527,7.688,41.051-1.474-.178-5.1-4.1-2.008,3.985-1.216-.252-6.976-40.787,1.462Z" transform="translate(-271.625 -74.12)" opacity="0.3"/>
      <path id="Path_11505" data-name="Path 11505" d="M271.131,100.725l8.843,5.422a5.9,5.9,0,0,0,3.316.872l39.264-1.406-.184-5.1-4.1-2,3.985-1.228-.246-6.976L282.8,91.722a5.926,5.926,0,0,0-2.923.89l-8.751,5.447a1.566,1.566,0,0,0,.006,2.665Z" transform="translate(-270.384 -74.209)" fill="#ffe600"/>
      <g id="Group_1192" data-name="Group 1192" transform="translate(1.876 16.119)" opacity="0.2">
        <path id="Path_11506" data-name="Path 11506" d="M326.172,90.34a.324.324,0,0,1-.055.1,1.842,1.842,0,0,1-.178.258,3.967,3.967,0,0,1-.9.823A10.672,10.672,0,0,1,320.8,92.87a68.593,68.593,0,0,1-14.658.872c-2.874-.129-5.588-.479-8.057-.731a61.74,61.74,0,0,0-6.571-.424,27.246,27.246,0,0,0-4.415.338c-1.032.166-1.6.313-1.609.276a3.854,3.854,0,0,1,.405-.123c.27-.068.663-.184,1.179-.276a24.9,24.9,0,0,1,4.44-.442,57.577,57.577,0,0,1,6.6.338c2.456.239,5.183.577,8.038.706a73.271,73.271,0,0,0,14.609-.78,11.053,11.053,0,0,0,4.206-1.228A5.416,5.416,0,0,0,326.172,90.34Z" transform="translate(-278.09 -90.34)"/>
        <path id="Path_11507" data-name="Path 11507" d="M273.44,103.984a2.087,2.087,0,0,1,.08-.522,4.127,4.127,0,0,1,.657-1.369,5.766,5.766,0,0,1,1.8-1.6,11.133,11.133,0,0,1,2.991-1.1,62.973,62.973,0,0,1,8.149-1.228c3.07-.289,6.509-.418,10.089-.473l18.336-.2h7.068a3.224,3.224,0,0,1,.528,0,3.29,3.29,0,0,1-.528.043l-1.511.043-5.527.117-18.33.264c-3.58.055-6.982.172-10.065.448a65.931,65.931,0,0,0-8.161,1.234,11.158,11.158,0,0,0-2.954,1.038,5.693,5.693,0,0,0-1.787,1.511,4.7,4.7,0,0,0-.835,1.793Z" transform="translate(-273.44 -93.096)"/>
        <path id="Path_11508" data-name="Path 11508" d="M291.753,105.154a2.915,2.915,0,0,1-.43.313,11.434,11.434,0,0,1-1.339.731,12.558,12.558,0,0,1-5.453,1.154,9.132,9.132,0,0,1-1.842-.2,3.525,3.525,0,0,1-1.8-.976,2.284,2.284,0,0,1-.614-2.106,3.07,3.07,0,0,1,1.56-1.726,23.025,23.025,0,0,1,9.825-2.395c.9-.049,1.787-.1,2.671-.111a5.766,5.766,0,0,1,2.591.485,2.88,2.88,0,0,1,1.64,1.947,3.242,3.242,0,0,1-.559,2.389,6.141,6.141,0,0,1-1.689,1.584c-.614.418-1.228.774-1.842,1.111a20.485,20.485,0,0,1-3.562,1.517,16.924,16.924,0,0,1-5.527.786,13.984,13.984,0,0,1-1.517-.111,2.653,2.653,0,0,1-.522-.086,3.794,3.794,0,0,1,.528,0c.344,0,.854.055,1.511.055a17.673,17.673,0,0,0,5.459-.878,20.264,20.264,0,0,0,3.506-1.535c.614-.338,1.228-.7,1.842-1.111a5.79,5.79,0,0,0,1.6-1.517,2.966,2.966,0,0,0,.5-2.162,2.579,2.579,0,0,0-1.48-1.732,5.527,5.527,0,0,0-2.456-.442c-.866,0-1.756.061-2.653.111A22.99,22.99,0,0,0,282,102.581a2.763,2.763,0,0,0-1.437,1.541,2,2,0,0,0,.54,1.842,3.3,3.3,0,0,0,1.664.921,8.419,8.419,0,0,0,1.805.215,12.9,12.9,0,0,0,5.4-1.038,14.243,14.243,0,0,0,1.351-.675A3.877,3.877,0,0,1,291.753,105.154Z" transform="translate(-276.058 -94.003)"/>
        <path id="Path_11509" data-name="Path 11509" d="M334.039,107.429a2.07,2.07,0,0,1-.387,0,6.246,6.246,0,0,1-1.105-.166,12.128,12.128,0,0,1-3.734-1.689,58.05,58.05,0,0,0-5.085-3.255,11.471,11.471,0,0,0-7.154-.847,20.326,20.326,0,0,0-6.81,2.7,54.341,54.341,0,0,0-4.943,3.482c-1.369,1.05-2.5,1.879-3.3,2.413-.4.27-.718.473-.933.614a2.014,2.014,0,0,1-.344.19,1.979,1.979,0,0,1,.307-.246l.9-.651c.78-.565,1.879-1.419,3.23-2.487a50.617,50.617,0,0,1,4.913-3.556,20.265,20.265,0,0,1,6.908-2.757,13.092,13.092,0,0,1,3.875-.135,10.476,10.476,0,0,1,3.463,1.032,51.57,51.57,0,0,1,5.078,3.328,12.9,12.9,0,0,0,3.66,1.726C333.5,107.393,334.045,107.393,334.039,107.429Z" transform="translate(-283.783 -94.435)"/>
        <path id="Path_11510" data-name="Path 11510" d="M324.876,109.844a3.185,3.185,0,0,1-.387,0c-.252,0-.614,0-1.105.037s-1.068.074-1.744.16c-.338.043-.7.1-1.081.166a2.573,2.573,0,0,0-1.112.35.375.375,0,0,0-.178.436.614.614,0,0,0,.467.3c.436.086.94.141,1.437.2,1,.111,2.082.184,3.212.2a33.777,33.777,0,0,0,3.562-.123,3.783,3.783,0,0,0,1.738-.442.983.983,0,0,0,.467-.663,1,1,0,0,0-.252-.78,4.133,4.133,0,0,0-1.566-.989,12.05,12.05,0,0,0-1.769-.614,13.172,13.172,0,0,0-3.494-.442,12.7,12.7,0,0,0-5.76,1.455,13.276,13.276,0,0,0-3.255,2.389c-.676.682-1,1.111-1.026,1.093a2.155,2.155,0,0,1,.221-.325,9.322,9.322,0,0,1,.712-.854,12.8,12.8,0,0,1,9.1-4.053,13.27,13.27,0,0,1,3.58.43,12.625,12.625,0,0,1,1.812.614,4.39,4.39,0,0,1,1.689,1.081,1.283,1.283,0,0,1,.319,1.032,1.228,1.228,0,0,1-.614.878,4.09,4.09,0,0,1-1.885.491,32.473,32.473,0,0,1-3.586.1,26.6,26.6,0,0,1-3.242-.227c-.51-.068-.983-.123-1.468-.221a.829.829,0,0,1-.614-.454.614.614,0,0,1,.264-.706,2.714,2.714,0,0,1,1.228-.368c.381-.061.749-.1,1.093-.141.682-.068,1.271-.1,1.756-.1s.86,0,1.111,0a1.351,1.351,0,0,1,.369.1Z" transform="translate(-288.719 -96.9)"/>
      </g>
    </g>
    <g id="freepik--Plants--inject-3" transform="translate(41.164 154.376)">
      <path id="Path_11511" data-name="Path 11511" d="M62.6,401.916c-.055,0-.276-.909-.725-2.364a40.466,40.466,0,0,0-2.174-5.527,40.226,40.226,0,0,0-2.972-5.146c-.86-1.259-1.443-2.008-1.4-2.039a2.891,2.891,0,0,1,.461.479c.282.326.669.811,1.124,1.431a33.311,33.311,0,0,1,3.07,5.14,32.491,32.491,0,0,1,2.1,5.607c.2.743.344,1.345.418,1.769a2.9,2.9,0,0,1,.1.651Z" transform="translate(-55.326 -285.376)" fill="#263238"/>
      <path id="Path_11512" data-name="Path 11512" d="M69.6,401.151c-.08,0-1.633-5.134-3.457-11.52S62.905,378.043,63,378s1.633,5.134,3.457,11.52S69.685,401.126,69.6,401.151Z" transform="translate(-58.285 -281.965)" fill="#263238"/>
      <path id="Path_11513" data-name="Path 11513" d="M78.442,393.16a16.928,16.928,0,0,1-.239,2.088c-.166,1.283-.356,3.07-.461,5.035s-.111,3.758-.08,5.054a19.319,19.319,0,0,1,0,2.1,1.738,1.738,0,0,1-.1-.559c-.049-.362-.092-.884-.135-1.535a42.982,42.982,0,0,1,0-5.078,43.968,43.968,0,0,1,.559-5.048c.111-.645.215-1.161.3-1.511a2.266,2.266,0,0,1,.16-.547Z" transform="translate(-63.825 -287.815)" fill="#263238"/>
      <path id="Path_11514" data-name="Path 11514" d="M364.467,221.61c.086,0,1.2,3.58,2.456,8.051s2.26,8.118,2.18,8.143-1.2-3.58-2.487-8.051S364.381,221.635,364.467,221.61Z" transform="translate(-174.629 -221.61)" fill="#263238"/>
      <path id="Path_11515" data-name="Path 11515" d="M375.474,223.47c.049,0-.184.835-.448,2.186a32.965,32.965,0,0,0-.614,5.318,32.543,32.543,0,0,0,.289,5.342c.184,1.363.368,2.192.313,2.2a2.26,2.26,0,0,1-.184-.571,15.855,15.855,0,0,1-.35-1.6,26.553,26.553,0,0,1,.325-10.746,15.971,15.971,0,0,1,.442-1.578,1.886,1.886,0,0,1,.227-.559Z" transform="translate(-178.341 -222.328)" fill="#263238"/>
      <path id="Path_11516" data-name="Path 11516" d="M381.258,228.14c.043.031-.381.614-.964,1.67a22.881,22.881,0,0,0-1.842,4.231,22.321,22.321,0,0,0-.9,4.526c-.111,1.185-.1,1.922-.16,1.922a1.64,1.64,0,0,1-.068-.516,13.427,13.427,0,0,1,0-1.418,18.686,18.686,0,0,1,2.763-8.861,13.366,13.366,0,0,1,.811-1.167C381.117,228.268,381.24,228.127,381.258,228.14Z" transform="translate(-179.588 -224.13)" fill="#263238"/>
      <path id="Path_11517" data-name="Path 11517" d="M316.767,301.346c-.325-1.228.5-2.518,1.425-3.427a9.424,9.424,0,0,0,2.505-2.935c.78-1.959-.264-4.489,1.062-6.141.78-.958,2.186-1.277,2.88-2.3a5.25,5.25,0,0,0,.614-1.842,18.625,18.625,0,0,1,4.624-8.658,16.144,16.144,0,0,1-1.842,8.345,10.538,10.538,0,0,0-1.376,3.162c-.295,1.842.743,3.777.289,5.594-.522,2.088-2.868,3.482-2.978,5.631-.092,1.842,1.492,3.408,1.376,5.22a4.968,4.968,0,0,1-.811,2.155,7.2,7.2,0,0,1-6.589,3.887l-3.826.135Z" transform="translate(-155.201 -242.616)" fill="#ffe600"/>
      <g id="Group_1193" data-name="Group 1193" transform="translate(158.919 33.424)" opacity="0.3">
        <path id="Path_11518" data-name="Path 11518" d="M316.767,301.346c-.325-1.228.5-2.518,1.425-3.427a9.424,9.424,0,0,0,2.505-2.935c.78-1.959-.264-4.489,1.062-6.141.78-.958,2.186-1.277,2.88-2.3a5.25,5.25,0,0,0,.614-1.842,18.625,18.625,0,0,1,4.624-8.658,16.144,16.144,0,0,1-1.842,8.345,10.538,10.538,0,0,0-1.376,3.162c-.295,1.842.743,3.777.289,5.594-.522,2.088-2.868,3.482-2.978,5.631-.092,1.842,1.492,3.408,1.376,5.22a4.968,4.968,0,0,1-.811,2.155,7.2,7.2,0,0,1-6.589,3.887l-3.826.135Z" transform="translate(-314.12 -276.04)"/>
      </g>
      <path id="Path_11519" data-name="Path 11519" d="M304.532,302.066a3.071,3.071,0,0,1-1.05,0,6.816,6.816,0,0,1-1.228-.313,5.49,5.49,0,0,1-1.535-.841,2.168,2.168,0,0,1-.614-.847,4.041,4.041,0,0,1-.178-1.142,12.3,12.3,0,0,0-.092-1.228,3.34,3.34,0,0,0-.467-1.228,9.525,9.525,0,0,1-1.443-2.616,8.653,8.653,0,0,1,.1-3.359,7.136,7.136,0,0,0-.086-3.592c-.411-1.2-1.228-2.278-1.67-3.629a17.091,17.091,0,0,1-.313-4.3,5.685,5.685,0,0,0-.5-2.125c-.313-.682-.743-1.32-1.075-2.033a14.9,14.9,0,0,1-.989-4.673c-.086-.811-.178-1.627-.27-2.456a11.783,11.783,0,0,0-.43-2.456,21.156,21.156,0,0,0-.915-2.37,7.983,7.983,0,0,1-.442-1.228,12.023,12.023,0,0,1-.123-1.314,15.909,15.909,0,0,1,.1-2.647c.1-.884.264-1.762.362-2.647v-.332l.154.08a5.962,5.962,0,0,1,2.063,1.738,9.458,9.458,0,0,1,1.265,2.334,28.578,28.578,0,0,1,1.191,5.017,13.608,13.608,0,0,0,1.572,4.624c.418.682.927,1.308,1.369,1.971a5.336,5.336,0,0,1,.952,2.18c.227,1.621-.663,3.04-.479,4.477a4.956,4.956,0,0,0,.7,1.983c.344.614.755,1.179,1.142,1.75a11.109,11.109,0,0,1,1.026,1.769,5.594,5.594,0,0,1,.473,1.916c.092,1.29-.092,2.518,0,3.684a8.314,8.314,0,0,0,.94,3.144c.467.946.982,1.793,1.412,2.622a12.286,12.286,0,0,1,.577,1.228,6.139,6.139,0,0,1,.338,1.228,7.505,7.505,0,0,1,.031,2.186,5.459,5.459,0,0,1-1.1,2.788,2.844,2.844,0,0,1-.307.338,1.658,1.658,0,0,1-.252.209c-.141.1-.221.154-.221.154a4.176,4.176,0,0,0,.743-.731,5.527,5.527,0,0,0,1.038-2.769,7.51,7.51,0,0,0-.049-2.149,5.84,5.84,0,0,0-.338-1.185,12.634,12.634,0,0,0-.583-1.228c-.436-.817-.952-1.664-1.425-2.61a8.554,8.554,0,0,1-.983-3.205c-.1-1.179.08-2.407,0-3.684a5.348,5.348,0,0,0-.461-1.842,10.39,10.39,0,0,0-1.019-1.732c-.387-.565-.8-1.136-1.154-1.762a5.22,5.22,0,0,1-.731-2.063c-.184-1.529.7-2.96.473-4.464a5.171,5.171,0,0,0-.921-2.088c-.436-.651-.946-1.277-1.376-1.977a13.658,13.658,0,0,1-1.609-4.7,28.783,28.783,0,0,0-1.185-4.968,9.155,9.155,0,0,0-1.228-2.272,5.686,5.686,0,0,0-1.971-1.67l.172-.1v.154c-.1.9-.258,1.775-.362,2.647a15.486,15.486,0,0,0-.1,2.61,12.025,12.025,0,0,0,.117,1.277,7.292,7.292,0,0,0,.43,1.191,23.173,23.173,0,0,1,.921,2.395,12.186,12.186,0,0,1,.43,2.493c.092.823.184,1.64.27,2.456a14.86,14.86,0,0,0,.958,4.612c.325.688.755,1.333,1.075,2.033a5.9,5.9,0,0,1,.51,2.2,18.513,18.513,0,0,0,.289,4.225c.4,1.308,1.228,2.389,1.658,3.629a7.3,7.3,0,0,1,.08,3.684,8.6,8.6,0,0,0-.123,3.291,9.364,9.364,0,0,0,1.406,2.585,3.641,3.641,0,0,1,.479,1.277,11.356,11.356,0,0,1,.08,1.228,3.992,3.992,0,0,0,.16,1.118,2.125,2.125,0,0,0,.614.8,5.325,5.325,0,0,0,1.5.841,7,7,0,0,0,1.228.338,4.987,4.987,0,0,0,.78.074Z" transform="translate(-146.357 -234.376)" fill="#263238"/>
      <path id="Path_11520" data-name="Path 11520" d="M293.22,258.41a.38.38,0,0,1,.037.117,1.639,1.639,0,0,0,.086.344c.074.3.166.761.307,1.326s.5,1.228.792,2a26.8,26.8,0,0,1,.915,2.714c.289,1.019.547,2.155.817,3.365a14.261,14.261,0,0,0,1.228,3.74c.313.614.663,1.228.946,1.94a9.088,9.088,0,0,1,.553,2.2,45.1,45.1,0,0,0,.823,4.63c.768,3.132,1.5,6.141,2.168,8.843l1.842,7.209c.5,2.045.915,3.684,1.228,4.87q.2.847.313,1.326l.074.35v.117a.94.94,0,0,1-.043-.111l-.1-.344c-.086-.319-.2-.755-.356-1.314l-1.277-4.851c-.534-2.051-1.167-4.489-1.842-7.2s-1.412-5.711-2.186-8.849a43.55,43.55,0,0,1-.823-4.649,8.762,8.762,0,0,0-.528-2.143c-.27-.669-.614-1.3-.933-1.922a14.344,14.344,0,0,1-1.228-3.795c-.264-1.228-.51-2.352-.792-3.371s-.571-1.922-.866-2.708-.614-1.437-.761-2.026-.2-1.032-.264-1.339a1.57,1.57,0,0,0-.061-.35A.367.367,0,0,1,293.22,258.41Z" transform="translate(-147.135 -235.812)" fill="#263238"/>
      <path id="Path_11521" data-name="Path 11521" d="M310.153,294.491c-2.5-1.486-3.218-5.993-2.174-8.708s2.868-5.2,3.15-8.094c.215-2.223-.51-4.507,0-6.681.7-2.935,3.568-5.214,3.531-8.229,0-1.695-.983-3.285-.9-4.974.092-2.076,1.683-3.721,2.671-5.527,1.511-2.794,1.609-6.1,2.125-9.211s1.713-6.5,4.489-8.038c.411,2.659,1.111,4.483.9,8.094-.08,1.3-1.584,3.777-1.793,6.614-.123,1.695-.2,3.4-.307,5.1a16.286,16.286,0,0,1-.8,4.876c-.454,1.185-1.179,2.266-1.517,3.488-.614,2.3.2,4.79-.313,7.123-.436,1.977-1.8,3.684-2.082,5.68-.393,2.812,1.431,5.735.5,8.419-.461,1.333-1.56,2.4-1.842,3.777-.246,1.068,0,2.2-.2,3.273-.35,1.726-3.641,3.07-5.4,2.96" transform="translate(-152.652 -226.789)" fill="#ffe600"/>
      <path id="Path_11522" data-name="Path 11522" d="M324.035,239.25a.579.579,0,0,1,0,.154,4.184,4.184,0,0,1-.055.436c-.055.387-.123.952-.252,1.676s-.516,1.566-.817,2.561-.614,2.137-.921,3.42-.522,2.708-.774,4.231a17.81,17.81,0,0,1-1.277,4.784c-.356.8-.749,1.6-1.044,2.456a11.2,11.2,0,0,0-.528,2.7,55.138,55.138,0,0,1-.731,5.828c-.768,3.942-1.492,7.7-2.162,11.121s-1.326,6.478-1.842,9.064-.97,4.642-1.271,6.1c-.154.706-.276,1.259-.362,1.652-.037.178-.074.319-.1.43a.616.616,0,0,1-.043.147.894.894,0,0,1,0-.147,3.215,3.215,0,0,1,.074-.436c.08-.4.184-.958.313-1.67.289-1.461.7-3.543,1.228-6.141s1.124-5.662,1.805-9.07,1.382-7.179,2.143-11.121a54.686,54.686,0,0,0,.731-5.8,11.435,11.435,0,0,1,.547-2.757c.307-.872.706-1.676,1.056-2.456a17.545,17.545,0,0,0,1.283-4.722c.264-1.529.51-2.948.811-4.237a35.449,35.449,0,0,1,.952-3.427c.319-1,.712-1.842.86-2.536s.221-1.283.295-1.664l.08-.436Z" transform="translate(-154.327 -228.418)" fill="#263238"/>
      <path id="Path_11523" data-name="Path 11523" d="M397.47,425.6a4.913,4.913,0,0,1,2.548,2.886,8.7,8.7,0,0,1,.338,3.912,15.351,15.351,0,0,1-3.279,7.129c-2.137-1.842-2.628-5.121-2.776-6.786-.233-2.634.952-7.535,3.169-7.142" transform="translate(-186.134 -300.325)" fill="#ffe600"/>
      <path id="Path_11524" data-name="Path 11524" d="M402.829,451.779a4.212,4.212,0,0,1,1.357-3.991,5.57,5.57,0,0,1,4.108-1.283,2.37,2.37,0,0,1,1.805.811,1.8,1.8,0,0,1,0,1.842,3.624,3.624,0,0,1-1.345,1.326c-1.842,1.161-3.856,1.947-5.95,1.32" transform="translate(-189.405 -308.393)" fill="#ffe600"/>
      <path id="Path_11525" data-name="Path 11525" d="M398.42,461.15a3.375,3.375,0,0,1,.074-.522l.258-1.412a14.879,14.879,0,0,1,1.455-4.5,9.015,9.015,0,0,1,3.23-3.433,6.265,6.265,0,0,1,1.32-.583,2.709,2.709,0,0,1,.381-.092.368.368,0,0,1,.135,0,8.845,8.845,0,0,0-1.769.8,9.315,9.315,0,0,0-3.132,3.414,15.968,15.968,0,0,0-1.492,4.44c-.129.614-.233,1.069-.313,1.394a2.673,2.673,0,0,1-.147.491Z" transform="translate(-187.735 -309.983)" fill="#263238"/>
      <path id="Path_11526" data-name="Path 11526" d="M398.47,431.82a.8.8,0,0,1,0,.227,3.855,3.855,0,0,0,.043.651c0,.571.061,1.394.092,2.407.068,2.033.117,4.845.1,7.952s-.086,5.914-.172,7.946c-.043,1.013-.08,1.842-.117,2.407,0,.264-.031.485-.043.651a.989.989,0,0,1-.031.227,1.305,1.305,0,0,1,0-.227V453.4c0-.614.037-1.406.061-2.407.049-2.033.1-4.839.117-7.946s0-5.907-.049-7.94c0-1-.031-1.842-.037-2.407v-.657a.939.939,0,0,1,.031-.227Z" transform="translate(-187.705 -302.735)" fill="#263238"/>
      <path id="Path_11527" data-name="Path 11527" d="M391.832,452.882a9.825,9.825,0,0,0-5.355-7.185,1.629,1.629,0,0,0-2.407,2.186,8.388,8.388,0,0,0,7.713,5.232" transform="translate(-182.104 -307.954)" fill="#ffe600"/>
      <path id="Path_11528" data-name="Path 11528" d="M388.7,449.83a3.259,3.259,0,0,1,.454.2,5.407,5.407,0,0,1,.51.27c.19.123.424.239.651.411a8.739,8.739,0,0,1,.749.559,10.481,10.481,0,0,1,.792.725,11,11,0,0,1,1.511,1.934,10.779,10.779,0,0,1,.995,2.248c.1.368.2.712.252,1.044a8.139,8.139,0,0,1,.129.927,6.94,6.94,0,0,1,0,.768,4.338,4.338,0,0,1,0,.583,2.668,2.668,0,0,1-.055.491c-.043,0,0-.706-.1-1.842a8.16,8.16,0,0,0-.147-.909,9.261,9.261,0,0,0-.264-1.019,10.347,10.347,0,0,0-2.456-4.12,9.233,9.233,0,0,0-.768-.725c-.246-.221-.5-.4-.725-.571C389.326,450.162,388.681,449.867,388.7,449.83Z" transform="translate(-183.983 -309.686)" fill="#263238"/>
      <path id="Path_11529" data-name="Path 11529" d="M363.346,394.76a1.344,1.344,0,0,1-.154.295c-.123.221-.282.491-.479.817s-.473.78-.749,1.3-.614,1.081-.952,1.738c-.688,1.29-1.437,2.874-2.192,4.655a62.637,62.637,0,0,0-2.106,5.944c-.614,2.149-1.081,4.231-1.431,6.141a50.711,50.711,0,0,0-.663,5.109c-.074.731-.1,1.394-.135,1.971s-.055,1.087-.068,1.5,0,.694,0,.946a1.129,1.129,0,0,1-.037.325,1.347,1.347,0,0,1-.031-.325v-2.45a15.582,15.582,0,0,1,.092-1.983,51.258,51.258,0,0,1,.614-5.14,58.688,58.688,0,0,1,1.412-6.178,57.571,57.571,0,0,1,2.143-5.963c.774-1.793,1.547-3.365,2.266-4.655.344-.651.694-1.228.995-1.719s.565-.927.8-1.271.387-.571.534-.78S363.346,394.754,363.346,394.76Z" transform="translate(-170.727 -288.433)" fill="#263238"/>
      <path id="Path_11530" data-name="Path 11530" d="M352.278,409.18a3.968,3.968,0,0,1-.037.823c-.055.614-.129,1.351-.209,2.247-.184,1.891-.418,4.513-.614,7.406s-.313,5.527-.393,7.424l-.1,2.254a3.769,3.769,0,0,1-.074.829,4.043,4.043,0,0,1-.049-.829v-2.26c0-1.9.1-4.538.3-7.436s.467-5.527.706-7.412c.123-.946.227-1.707.313-2.235a4.707,4.707,0,0,1,.16-.811Z" transform="translate(-169.354 -293.998)" fill="#263238"/>
      <path id="Path_11531" data-name="Path 11531" d="M337.879,422.26a2.334,2.334,0,0,1,.442.387,14.212,14.212,0,0,1,1.081,1.191,19.65,19.65,0,0,1,2.757,4.526,19.4,19.4,0,0,1,1.437,5.1,14.166,14.166,0,0,1,.141,1.6,2.455,2.455,0,0,1,0,.614c-.055,0-.111-.829-.344-2.155A22.186,22.186,0,0,0,339.242,424C338.413,422.9,337.836,422.3,337.879,422.26Z" transform="translate(-164.369 -299.046)" fill="#263238"/>
      <path id="Path_11532" data-name="Path 11532" d="M399.13,257.54a2.022,2.022,0,0,1,.289.282l.786.847.559.614c.2.233.405.5.614.774.442.565.97,1.185,1.474,1.934l.811,1.154c.276.405.528.847.811,1.3.583.89,1.1,1.9,1.664,2.941a44.153,44.153,0,0,1,4.55,14.738c.117,1.185.258,2.309.282,3.365,0,.534.055,1.044.055,1.535v1.412c0,.9-.08,1.707-.129,2.419a9.471,9.471,0,0,1-.08.995c-.031.3-.08.577-.117.829-.068.473-.123.854-.172,1.142a1.531,1.531,0,0,1-.08.4,3.325,3.325,0,0,1,0-.405c.031-.295.068-.676.111-1.148,0-.252.055-.528.086-.829s.037-.614.055-.995c.031-.706.1-1.517.08-2.413v-1.406c0-.485-.055-.995-.08-1.517-.031-1.056-.178-2.168-.307-3.347a45.749,45.749,0,0,0-4.513-14.64c-.559-1.044-1.062-2.051-1.627-2.935-.276-.448-.528-.9-.8-1.3s-.534-.792-.786-1.161c-.485-.755-1-1.382-1.431-1.953-.215-.282-.411-.553-.614-.786l-.54-.614-.737-.884a1.766,1.766,0,0,1-.215-.344Z" transform="translate(-188.009 -235.476)" fill="#263238"/>
      <path id="Path_11533" data-name="Path 11533" d="M426.626,277.28a6.052,6.052,0,0,1-.24.915c-.178.614-.424,1.425-.712,2.456a74.271,74.271,0,0,0-2.6,16.74c-.043,1.087-.068,1.965-.08,2.573a5.264,5.264,0,0,1-.049.946,4.8,4.8,0,0,1-.074-.94c0-.614-.043-1.492,0-2.585a62.128,62.128,0,0,1,2.616-16.8c.319-1.044.614-1.879.811-2.456A5.05,5.05,0,0,1,426.626,277.28Z" transform="translate(-197.162 -243.094)" fill="#263238"/>
      <path id="Path_11534" data-name="Path 11534" d="M429.179,296.86a23.5,23.5,0,0,0-3.1,9.082,5.006,5.006,0,0,1,0-1.431,15.969,15.969,0,0,1,.755-3.371,15.556,15.556,0,0,1,1.468-3.132,4.838,4.838,0,0,1,.878-1.148Z" transform="translate(-198.389 -250.651)" fill="#263238"/>
    </g>
    <g id="freepik--Character--inject-3" transform="translate(70.246 94.024)">
      <path id="Path_11535" data-name="Path 11535" d="M138.332,441.7l-.841,19.939L126.72,461.4l.811-19.976Z" transform="translate(-111.96 -246.088)" fill="#ffe600"/>
      <path id="Path_11536" data-name="Path 11536" d="M135.634,460.685c-.092,0,.074-4.372.368-9.752s.614-9.739.7-9.733-.074,4.372-.375,9.752S135.72,460.691,135.634,460.685Z" transform="translate(-115.39 -246.003)" fill="#263238"/>
      <path id="Path_11537" data-name="Path 11537" d="M137.546,471.936l-10.765-.276-.061,1.406,10.771.246Z" transform="translate(-111.96 -257.759)" fill="#263238"/>
      <path id="Path_11538" data-name="Path 11538" d="M127.14,461.7a1.516,1.516,0,0,1,.3-.424,7.256,7.256,0,0,1,1-.983,7.53,7.53,0,0,1,1.793-1.081,5.723,5.723,0,0,1,6.644,1.529,4.727,4.727,0,0,1,.731,1.228,1.406,1.406,0,0,1,.147.5,9.995,9.995,0,0,0-1.056-1.554,5.723,5.723,0,0,0-3.949-1.842,6.6,6.6,0,0,0-4.17,1.406C127.668,461.168,127.183,461.733,127.14,461.7Z" transform="translate(-112.122 -252.769)" fill="#263238"/>
      <g id="Group_1194" data-name="Group 1194" transform="translate(15.251 201.018)" opacity="0.3">
        <path id="Path_11539" data-name="Path 11539" d="M127.606,450.68l-.086,2.2,10.789.19.074-1.652Z" transform="translate(-127.52 -450.68)"/>
      </g>
      <path id="Path_11540" data-name="Path 11540" d="M179.483,443.747l-.522,12.14s12.159,4.606,12.281,6.859l-23.562-.172.043-18.944Z" transform="translate(-127.768 -246.941)" fill="#ffe600"/>
      <path id="Path_11541" data-name="Path 11541" d="M174.012,461.876a.964.964,0,0,0-.682,1.1.933.933,0,0,0,1.087.682,1.019,1.019,0,0,0,.712-1.167.958.958,0,0,0-1.228-.614" transform="translate(-129.942 -253.962)" fill="#e0e0e0"/>
      <path id="Path_11542" data-name="Path 11542" d="M167.67,473.281V471.39l22.807.86s1.05.467.927,1.228Z" transform="translate(-127.764 -257.654)" fill="#263238"/>
      <path id="Path_11543" data-name="Path 11543" d="M185.024,463.642c0,.117-.583.166-1.154.534s-.878.854-.989.8.074-.712.774-1.148S185.055,463.538,185.024,463.642Z" transform="translate(-133.623 -254.623)" fill="#263238"/>
      <path id="Path_11544" data-name="Path 11544" d="M189.455,465.4c0,.111-.479.307-.878.792s-.516,1.007-.614,1-.184-.663.325-1.228S189.449,465.285,189.455,465.4Z" transform="translate(-135.566 -255.326)" fill="#263238"/>
      <path id="Path_11545" data-name="Path 11545" d="M192.615,469.038c-.1,0-.264-.559.043-1.191s.841-.878.89-.78-.289.43-.528.952S192.731,469.026,192.615,469.038Z" transform="translate(-137.338 -255.978)" fill="#263238"/>
      <path id="Path_11546" data-name="Path 11546" d="M184.544,458.9c-.049.1-.614-.061-1.228,0s-1.173.24-1.228.141.43-.51,1.228-.547S184.6,458.805,184.544,458.9Z" transform="translate(-133.326 -252.678)" fill="#263238"/>
      <path id="Path_11547" data-name="Path 11547" d="M184.555,453.692a2.236,2.236,0,0,1-1.191,0,5.486,5.486,0,0,1-1.228-.393,4.968,4.968,0,0,1-.682-.368,1.48,1.48,0,0,1-.356-.282.5.5,0,0,1-.049-.614.614.614,0,0,1,.51-.264,1.844,1.844,0,0,1,.448.068,4.339,4.339,0,0,1,.737.258,4.231,4.231,0,0,1,1.093.731c.547.51.731.946.688.97s-.319-.332-.872-.755a4.98,4.98,0,0,0-1.056-.614,4.658,4.658,0,0,0-.682-.221c-.252-.068-.467-.068-.528.043s0,.061,0,.135a1.045,1.045,0,0,0,.258.2,6.054,6.054,0,0,0,.614.362,6.7,6.7,0,0,0,1.148.454A8.372,8.372,0,0,1,184.555,453.692Z" transform="translate(-132.895 -250.083)" fill="#263238"/>
      <path id="Path_11548" data-name="Path 11548" d="M186.364,452.793a1.842,1.842,0,0,1-.307-1.148,3.826,3.826,0,0,1,.172-1.3,4.01,4.01,0,0,1,.307-.718.989.989,0,0,1,.768-.614.559.559,0,0,1,.491.338,1.4,1.4,0,0,1,.117.436,2.659,2.659,0,0,1-.522,2.02c-.467.614-.952.749-.958.712a4.982,4.982,0,0,0,.725-.872,2.7,2.7,0,0,0,.387-1.111,2.6,2.6,0,0,0,0-.688c-.037-.252-.129-.454-.227-.43a.831.831,0,0,0-.418.387,3.506,3.506,0,0,0-.295.614,4.224,4.224,0,0,0-.239,1.185C186.309,452.344,186.426,452.774,186.364,452.793Z" transform="translate(-134.858 -249.017)" fill="#263238"/>
      <g id="Group_1195" data-name="Group 1195" transform="translate(39.9 203.966)" opacity="0.3">
        <path id="Path_11549" data-name="Path 11549" d="M167.66,455.48l.025,2.7h11.367v-2.444Z" transform="translate(-167.66 -455.48)"/>
      </g>
      <path id="Path_11550" data-name="Path 11550" d="M144.651,303.284l-3.482,33.565-2.5,50.545H125.332L124.97,279.82l38.189,2.72,7.915,56.44-6.853,49.4H149.588l3.42-46.971-8.358-38.128" transform="translate(-111.285 -183.723)" fill="#171725"/>
      <path id="Path_11551" data-name="Path 11551" d="M157,318a19.889,19.889,0,0,0,2.6,2.561,20.315,20.315,0,0,0,2.812,2.315,19.613,19.613,0,0,0-2.591-2.561A20.142,20.142,0,0,0,157,318Z" transform="translate(-123.646 -198.457)" fill="#455a64"/>
      <path id="Path_11552" data-name="Path 11552" d="M156.794,311.537a39.156,39.156,0,0,0-.074-4.3,39.62,39.62,0,0,0-.246-4.3,22.192,22.192,0,0,0-.086,4.3A22.437,22.437,0,0,0,156.794,311.537Z" transform="translate(-123.385 -192.645)" fill="#455a64"/>
      <path id="Path_11553" data-name="Path 11553" d="M141.981,296.2a1,1,0,0,0-.215,0l-.657-.037-2.53-.123-9.039-.381h-.16V305.5l.1.043,5.883,2.352h.111l5.2-1.805.08-.031v-.086c.381-2.929.7-5.367.927-7.117.1-.817.178-1.474.239-1.959a5.789,5.789,0,0,0,.061-.669.988.988,0,0,0-.037.19,3.7,3.7,0,0,1-.092.528c-.08.491-.184,1.154-.313,1.983-.258,1.719-.614,4.127-1.056,7.007l.092-.111-5.214,1.769h.111l-5.877-2.37.1.154V295.8l-.154.154,8.941.221,2.573.043h.94Z" transform="translate(-112.987 -189.836)" fill="#455a64"/>
      <path id="Path_11554" data-name="Path 11554" d="M174.032,296.634h-.811l-2.29-.068-8.247-.2h-.154v.154c.092,2.788.19,5.993.3,9.414v.031l.068.049.958.614,4.833,3.15.086.055.086-.049,5.447-3.322.068-.043v-.08c-.1-2.923-.19-5.361-.252-7.111-.031-.811-.061-1.468-.08-1.953a4.435,4.435,0,0,0-.049-.669.78.78,0,0,0,0,.2v2.555c0,1.726.061,4.139.1,7.025l.068-.117-5.471,3.279h.172l-4.82-3.175-.952-.614.074.135c-.123-3.42-.239-6.632-.344-9.42l-.147.154,8.161.043h2.941Z" transform="translate(-125.78 -190.11)" fill="#455a64"/>
      <path id="Path_11555" data-name="Path 11555" d="M131.68,320.564a8.56,8.56,0,0,0,1.812-.055c1.111-.08,2.647-.233,4.335-.454s3.212-.461,4.3-.663a9.157,9.157,0,0,0,1.762-.411,10.548,10.548,0,0,0-1.8.178l-4.3.571-4.3.547A10.906,10.906,0,0,0,131.68,320.564Z" transform="translate(-113.874 -198.836)" fill="#455a64"/>
      <path id="Path_11556" data-name="Path 11556" d="M132.19,377.928a1.05,1.05,0,0,0,.313.424,2.131,2.131,0,0,0,1.363.461,3.2,3.2,0,0,0,2-.761,14.3,14.3,0,0,0,1.842-1.842,25.18,25.18,0,0,0,2.7-3.8,8.081,8.081,0,0,0,.847-1.738,18.311,18.311,0,0,0-1.044,1.615,34.2,34.2,0,0,1-2.751,3.684,15.511,15.511,0,0,1-1.756,1.811,3.07,3.07,0,0,1-1.805.768,2.113,2.113,0,0,1-1.283-.332A4.918,4.918,0,0,1,132.19,377.928Z" transform="translate(-114.071 -218.784)" fill="#455a64"/>
      <path id="Path_11557" data-name="Path 11557" d="M175.09,382.118a.849.849,0,0,0,.178.43,2.757,2.757,0,0,0,.921.872,3.512,3.512,0,0,0,1.842.485,4.409,4.409,0,0,0,2.2-.7,7.823,7.823,0,0,0,2.653-3.163,6.755,6.755,0,0,0,.657-1.572,11.89,11.89,0,0,0-.866,1.461,8.376,8.376,0,0,1-2.622,2.991,4.188,4.188,0,0,1-2.033.676,3.439,3.439,0,0,1-1.707-.381,3.728,3.728,0,0,1-1.228-1.1Z" transform="translate(-130.627 -221.794)" fill="#455a64"/>
      <path id="Path_11558" data-name="Path 11558" d="M173.7,376.16a3.317,3.317,0,0,0,1.1.614,8.56,8.56,0,0,0,2.984.663,8.671,8.671,0,0,0,3.07-.411,3.421,3.421,0,0,0,1.142-.547,13.975,13.975,0,0,1-4.163.614A13.779,13.779,0,0,1,173.7,376.16Z" transform="translate(-130.091 -220.903)" fill="#455a64"/>
      <path id="Path_11559" data-name="Path 11559" d="M147.178,164.621l-14.388-.178,1.609-11.827s-.983-.2-1.05-5.349-.313-13.89-.313-13.89h0a19.036,19.036,0,0,1,18.613,2.278l.792.614Z" transform="translate(-114.303 -126.646)" fill="#ffbe9d"/>
      <path id="Path_11560" data-name="Path 11560" d="M161.939,149.128c.092-.037,3.684-1.044,3.543,2.456s-3.752,2.677-3.752,2.573S161.939,149.128,161.939,149.128Z" transform="translate(-125.471 -133.223)" fill="#ffbe9d"/>
      <path id="Path_11561" data-name="Path 11561" d="M132.172,147.928a2.4,2.4,0,0,0-3.224,2.634c.111,3.512,3.752,2.684,3.758,2.579S132.172,147.928,132.172,147.928Z" transform="translate(-112.819 -132.779)" fill="#ffbe9d"/>
      <path id="Path_11562" data-name="Path 11562" d="M151.658,141.852c-.54,2.948-.436,4.5-.94,6.466a10.375,10.375,0,0,1-5.306,7.062c-2.9,1.535-6.841,1.529-9.334-.614a8.182,8.182,0,0,1-3.224-5.349c-.258-2.217-.51-6.141-.528-8.358,0-4.016-.307-7.854-.307-7.854L143.9,131.13l6.755,3.881Z" transform="translate(-114.006 -126.34)" fill="#171725"/>
      <path id="Path_11563" data-name="Path 11563" d="M144,173.225a3.967,3.967,0,0,0,2.082.178,3.881,3.881,0,0,0,1.99-.614c0-.086-.909.178-2.026.295S144.031,173.133,144,173.225Z" transform="translate(-118.629 -142.411)" fill="#263238"/>
      <path id="Path_11564" data-name="Path 11564" d="M149.949,143.852c.344-3.021.571-6.472,1.062-9.659a20.783,20.783,0,0,0,.516-4.12,9.635,9.635,0,0,0-.786-3.537,5.2,5.2,0,0,0-3.611-2.7,5.4,5.4,0,0,0-4.409,1.136,4.028,4.028,0,0,0-4.077-1.56,3.875,3.875,0,0,0-2.954,3.132,2.849,2.849,0,0,0-3.242-.338,2.622,2.622,0,0,0-1.179,2.929,2.659,2.659,0,0,0-1.965,1.474,2.512,2.512,0,0,0,.2,2.4c.553.817,1.547,1.265,2.149,2.045a2.843,2.843,0,0,1,.184,3.175" transform="translate(-112.874 -123.329)" fill="#171725"/>
      <path id="Path_11565" data-name="Path 11565" d="M136.18,138.251a.761.761,0,0,0,.135.325,2.3,2.3,0,0,0,.688.755,2.548,2.548,0,0,0,1.547.473,2.714,2.714,0,0,0,1.9-.866l-.252-.068a2.419,2.419,0,0,0,1.59,1.762,2.929,2.929,0,0,0,2.677-.325,3.906,3.906,0,0,0,1.511-1.91l-.289.037a3.359,3.359,0,0,0,2.69,1.419,3.15,3.15,0,0,0,2.266-.89,3,3,0,0,0,.817-1.345,1.3,1.3,0,0,0,.074-.559s-.055.2-.178.528a3.236,3.236,0,0,1-.854,1.228,3.009,3.009,0,0,1-2.112.768,3.138,3.138,0,0,1-2.456-1.326l-.172-.264-.117.295a3.685,3.685,0,0,1-1.388,1.75,2.61,2.61,0,0,1-2.376.3,2.155,2.155,0,0,1-1.425-1.517l-.049-.295-.2.227a2.456,2.456,0,0,1-3.132.436,3.347,3.347,0,0,1-.9-.94Z" transform="translate(-115.611 -128.628)" fill="#455a64"/>
      <path id="Path_11566" data-name="Path 11566" d="M136.181,133.529a3.07,3.07,0,0,1,.5-1.283,2.174,2.174,0,0,1,1.228-.811,2.34,2.34,0,0,1,1.812.332l.289.2-.031-.344a2.53,2.53,0,0,1,.123-1.013,2.776,2.776,0,0,1,1.462-1.64,2.911,2.911,0,0,1,1.842-.16,3.973,3.973,0,0,1,1.541.841,1.366,1.366,0,0,0-.295-.393,3.008,3.008,0,0,0-4.87,1.253,2.806,2.806,0,0,0-.129,1.142l.258-.147a2.6,2.6,0,0,0-2.076-.344,2.309,2.309,0,0,0-1.351.964,2.18,2.18,0,0,0-.368,1.013C136.126,133.393,136.163,133.529,136.181,133.529Z" transform="translate(-115.588 -125.312)" fill="#455a64"/>
      <path id="Path_11567" data-name="Path 11567" d="M148.409,135.163c.043,0,0-.2,0-.479a2.254,2.254,0,0,1,.375-1.044c.239-.362.522-.731.688-.933s.35-.049.381-.068,0-.08-.08-.141a.418.418,0,0,0-.448.031,2.559,2.559,0,0,0-.411.405,4.591,4.591,0,0,0-.418.54,1.922,1.922,0,0,0-.319,1.228C148.225,135.022,148.372,135.181,148.409,135.163Z" transform="translate(-120.238 -126.848)" fill="#455a64"/>
      <path id="Path_11568" data-name="Path 11568" d="M157.778,128.8c.037,0,0-.276-.221-.614a1.664,1.664,0,0,0-.547-.553,1.443,1.443,0,0,0-.964-.2,2.309,2.309,0,0,0-1.443.872c-.264.325-.387.547-.356.571s.233-.147.528-.418a2.549,2.549,0,0,1,1.314-.712,1.4,1.4,0,0,1,1.271.571A6.191,6.191,0,0,1,157.778,128.8Z" transform="translate(-122.582 -124.907)" fill="#455a64"/>
      <path id="Path_11569" data-name="Path 11569" d="M157,151.009a7.621,7.621,0,0,0,1.7-4.759c-.1,0-.289,1.105-.755,2.413S156.929,150.935,157,151.009Z" transform="translate(-123.642 -132.175)" fill="#455a64"/>
      <path id="Path_11570" data-name="Path 11570" d="M154.43,153.225a4.249,4.249,0,0,0,.878-1.6,4.163,4.163,0,0,0,.436-1.762,6.638,6.638,0,0,0-.743,1.652,6.2,6.2,0,0,0-.571,1.713Z" transform="translate(-122.654 -133.568)" fill="#455a64"/>
      <path id="Path_11571" data-name="Path 11571" d="M138.077,155.73a5.355,5.355,0,0,0,.411,3.07,5.527,5.527,0,0,0,1.842,2.579,18.853,18.853,0,0,1-1.5-2.69,18.881,18.881,0,0,1-.755-2.96Z" transform="translate(-116.317 -135.834)" fill="#455a64"/>
      <path id="Path_11572" data-name="Path 11572" d="M135.293,151.55a4.348,4.348,0,0,0-.233,2.782,4.434,4.434,0,0,0,1.228,2.53,15.917,15.917,0,0,1-.9-2.585A15.129,15.129,0,0,1,135.293,151.55Z" transform="translate(-115.129 -134.22)" fill="#455a64"/>
      <path id="Path_11573" data-name="Path 11573" d="M103.609,222.757V237.5s11.053,24.428,11.053,24.053,3.949-15.419,3.949-15.419l-4.446-11.735-.418-7.664-9.125-18.25s-2.266,12.282-1.9,13.018A4.912,4.912,0,0,0,103.609,222.757Z" transform="translate(-102.684 -156.191)" fill="#ffe600"/>
      <path id="Path_11574" data-name="Path 11574" d="M118.583,172.674s-10.046,5.214-11.287,6.822-1.486,8.186-1.486,8.186l12.773,25.546.614,10.292s-3.844,8.014-3.844,13.614v.614l-.614,7.688,15.352,1.363s.872-4.219.872-3.844,1.118,3.844,1.118,3.844h25.429l-.94-16.93-4.329-26.135s1.842-14.99,1.934-15.536c.16-.97,16.261-8.112,16.261-8.112l7.584-4.1a6.141,6.141,0,0,0,3.205-5.379h0a6.141,6.141,0,0,0-3.4-5.478l-21.4-10.593-4.98,8.376,6.521,4.188,4.673,3.236-12.963,1.228s-2.3-3.009-3.291-3.009-8.929,1.842-8.929,1.842l.123-1.983s-2.106-2.358-4.464-2.235-12.282,2.978-12.282,2.978Z" transform="translate(-103.89 -135.374)" fill="#ffe600"/>
      <path id="Path_11575" data-name="Path 11575" d="M169.18,153.2h0l-5.582-3.248-8.493-4.606s-2.8-2.125-3.906-2.063a3.39,3.39,0,0,0-2.284,1.566c-.049.252.411.718,1.124.522.233-.061.884-.534,1.228-.461a2.555,2.555,0,0,1,1.584,1.142.381.381,0,0,1-.307.614s-4.808-1.228-6.6-.246a.958.958,0,0,0-.485,1.179c.129.313.473.614,1.314.43,1.689-.325,4.477.97,4.477.97s-6.239-.2-7.307.332c-.424.209-.884,1.572.387,1.713,1.5.16,4.452.1,4.452.1s2.788.387,2.34.909-4.728.565-5.054.614-1.775,0-1.695,1.179c.043.669,1.3,1.093,2.917,1.038,1.376-.043,5.643-.129,6.141.651s.16,1.345-.233,1.541a23.828,23.828,0,0,1-3.8.614c-.565,0-1.308,1.044.068,1.376a15.1,15.1,0,0,0,4.059.068,14.943,14.943,0,0,0,6.589-1.32s2.456-1.111,5.8.8Z" transform="translate(-118.436 -131.028)" fill="#ffbe9d"/>
      <path id="Path_11576" data-name="Path 11576" d="M145.279,180.562c0,.092-3.912.614-8.763,1.228s-8.8.995-8.806.9,3.912-.614,8.769-1.228S145.273,180.476,145.279,180.562Z" transform="translate(-112.342 -145.412)" fill="#263238"/>
      <path id="Path_11577" data-name="Path 11577" d="M154.9,246.119a2.826,2.826,0,0,1,.215-.35l.675-.976c.614-.841,1.431-2.076,2.456-3.623s2.162-3.4,3.384-5.527,2.456-4.464,3.727-6.988,2.309-4.974,3.236-7.228,1.676-4.3,2.272-6.055,1.062-3.156,1.363-4.145c.147-.461.264-.835.356-1.13a2.535,2.535,0,0,1,.147-.387,2.019,2.019,0,0,1-.08.405c-.08.295-.178.675-.307,1.148-.264,1-.688,2.456-1.265,4.182s-1.314,3.826-2.217,6.092-1.983,4.728-3.218,7.258-2.53,4.913-3.758,6.994-2.413,3.961-3.451,5.49-1.9,2.745-2.53,3.562l-.718.946A1.841,1.841,0,0,1,154.9,246.119Z" transform="translate(-122.835 -156.666)" fill="#263238"/>
      <path id="Path_11578" data-name="Path 11578" d="M117.527,265.633a2.408,2.408,0,0,1,0-.344c0-.246.055-.577.092-.983.092-.854.27-2.1.547-3.654a84.67,84.67,0,0,1,3.285-12.312v.061c-.135-2.137-.276-4.44-.418-6.829-.074-1.185-.141-2.352-.209-3.463v.061c-2.733-5.324-4.992-10.1-6.534-13.559-.774-1.726-1.363-3.132-1.756-4.1-.178-.467-.325-.841-.436-1.124A2.094,2.094,0,0,1,112,219a2.174,2.174,0,0,1,.184.375l.485,1.1c.43.952,1.044,2.346,1.842,4.059,1.59,3.433,3.887,8.192,6.62,13.51h0v.031c.068,1.111.141,2.278.209,3.463.147,2.389.282,4.692.405,6.829h0v.031a91.564,91.564,0,0,0-3.384,12.238c-.307,1.547-.51,2.788-.614,3.635l-.147.976a1.136,1.136,0,0,1-.074.387Z" transform="translate(-106.279 -160.251)" fill="#263238"/>
      <path id="Path_11579" data-name="Path 11579" d="M147.106,286.78a51.917,51.917,0,0,1-.682,5.643,50.355,50.355,0,0,1-.995,5.588,50.12,50.12,0,0,1,.682-5.637A50.674,50.674,0,0,1,147.106,286.78Z" transform="translate(-119.181 -186.409)" fill="#263238"/>
      <path id="Path_11580" data-name="Path 11580" d="M175.448,193.566a2.008,2.008,0,0,1-.325-.442c-.19-.295-.448-.737-.743-1.3a23.623,23.623,0,0,1-1.8-4.6,23.95,23.95,0,0,1-.823-4.87c-.037-.614-.043-1.142-.031-1.492a2.034,2.034,0,0,1,.049-.547c.055,0,.074.774.209,2.02a29.021,29.021,0,0,0,2.6,9.383,19.707,19.707,0,0,1,.866,1.842Z" transform="translate(-129.327 -145.323)" fill="#263238"/>
      <g id="Group_1196" data-name="Group 1196" transform="translate(32.74 57.355)" opacity="0.3">
        <path id="Path_11581" data-name="Path 11581" d="M156,247.655a4.409,4.409,0,0,0,3.942-.258,10.782,10.782,0,0,0,3.034-2.726,39.811,39.811,0,0,0,8.99-27.94,115.127,115.127,0,0,1-15.456,30.255" transform="translate(-156 -216.73)"/>
      </g>
      <g id="Group_1197" data-name="Group 1197" transform="translate(2.273 58.473)" opacity="0.3">
        <path id="Path_11582" data-name="Path 11582" d="M110.337,220.1a5.035,5.035,0,0,0-2-1.449,1.5,1.5,0,0,0-1.922.8,2.18,2.18,0,0,0,.16,1.228c1.185,3.494,2.407,7.068,4.728,9.936a5.692,5.692,0,0,0,1.455,1.161c.553.35,2.057.657,2.266.061a3.684,3.684,0,0,0,0-1.535s-3.31-6.755-4.913-10.224" transform="translate(-106.385 -218.551)"/>
      </g>
      <g id="Group_1198" data-name="Group 1198" transform="translate(54.927 32.368)" opacity="0.3">
        <path id="Path_11583" data-name="Path 11583" d="M195.814,178.631a9.082,9.082,0,0,0,4.483-.08c-2.3-1.744-5.306-2.125-8.167-2.512l3.684,2.591" transform="translate(-192.13 -176.04)"/>
      </g>
      <path id="Path_11584" data-name="Path 11584" d="M207.469,180.409a7.221,7.221,0,0,1-1.431,0l-3.427-.1-3.427-.055a7.222,7.222,0,0,1-1.425-.08,5.858,5.858,0,0,1,1.419-.147c.878-.043,2.094-.068,3.439-.037s2.561.111,3.439.19a6.1,6.1,0,0,1,1.412.227Z" transform="translate(-139.376 -145.191)" fill="#263238"/>
      <path id="Path_11585" data-name="Path 11585" d="M110,248a3.869,3.869,0,0,1,.792.54,8.977,8.977,0,0,0,1.9,1.2,3.961,3.961,0,0,0,2.168.282c.559-.1.866-.313.9-.264s-.252.313-.847.485a3.641,3.641,0,0,1-2.34-.209,6.94,6.94,0,0,1-1.928-1.32C110.227,248.274,110,248,110,248Z" transform="translate(-105.507 -171.44)" fill="#263238"/>
      <path id="Path_11586" data-name="Path 11586" d="M147.539,288.67l3.021,9.923h-2.739l-1.271-4.464Z" transform="translate(-119.613 -187.138)" opacity="0.3"/>
    </g>
  </g>
</svg>
