<svg xmlns="http://www.w3.org/2000/svg" width="12" height="10.673" viewBox="0 0 12 10.673">
  <g id="_1._Icons_Line_add-item-alt" data-name="1. Icons / Line /  add-item-alt" transform="translate(-2 -2)">
    <path id="briefcase" d="M10.333,10.673H1.667A1.669,1.669,0,0,1,0,9.007V3A1.669,1.669,0,0,1,1.667,1.333H4V1A1,1,0,0,1,5,0H7A1,1,0,0,1,8,1v.333h2.333A1.669,1.669,0,0,1,12,3V9.007A1.669,1.669,0,0,1,10.333,10.673ZM9.334,2v8.007h1a1,1,0,0,0,1-1V3a1,1,0,0,0-1-1Zm-6,0v8.007H8.666V2ZM1.667,2a1,1,0,0,0-1,1V9.007a1,1,0,0,0,1,1h1V2ZM5,.667A.334.334,0,0,0,4.667,1v.333H7.333V1A.334.334,0,0,0,7,.667Z" transform="translate(2 2)" fill="#fff"/>
  </g>
</svg>
