<svg xmlns="http://www.w3.org/2000/svg" width="18.107" height="18.107" viewBox="0 0 18.107 18.107">
  <g id="Group_1641" data-name="Group 1641" transform="translate(-2 -3.893)">
    <path id="Path_2591" data-name="Path 2591" d="M19.573,10.673,11.425,2.525A1.8,1.8,0,0,0,10.148,2H3.811A1.816,1.816,0,0,0,2,3.811v6.337a1.807,1.807,0,0,0,.534,1.286l8.148,8.148a1.8,1.8,0,0,0,1.277.525,1.77,1.77,0,0,0,1.277-.534l6.337-6.337a1.77,1.77,0,0,0,.534-1.277A1.829,1.829,0,0,0,19.573,10.673Zm-7.614,7.632L3.811,10.148V3.811h6.337V3.8L18.3,11.95Z" transform="translate(0 1.893)" fill="#c9c9c9"/>
    <circle id="Ellipse_33" data-name="Ellipse 33" cx="1" cy="1" r="1" transform="translate(5 7)" fill="#c9c9c9"/>
  </g>
</svg>
