<svg xmlns="http://www.w3.org/2000/svg" width="15.043" height="15.043" viewBox="0 0 15.043 15.043">
  <g id="Group_1638" data-name="Group 1638" transform="translate(-15 0)">
    <g id="dashboard" transform="translate(15)">
      <path id="Dashboard-2" data-name="Dashboard" d="M12.034,15.043a3.009,3.009,0,1,1,3.009-3.009A3.012,3.012,0,0,1,12.034,15.043Zm-9.025,0a3.009,3.009,0,1,1,3.008-3.009A3.012,3.012,0,0,1,3.008,15.043Zm9.025-9.026a3.008,3.008,0,1,1,3.009-3.008A3.012,3.012,0,0,1,12.034,6.017Zm-9.025,0A3.008,3.008,0,1,1,6.017,3.008,3.012,3.012,0,0,1,3.008,6.017Z" transform="translate(0 0)" fill="#c9c9c9"/>
    </g>
  </g>
</svg>
